<?xml version="1.0" encoding="UTF-8" standalone="no"?>
<svg
   width="216"
   height="216"
   viewBox="0 0 216 216"
   version="1.1"
   id="svg"
   inkscape:version="1.2.2 (b0a8486541, 2022-12-01)"
   sodipodi:docname="saunakauha-logo.svg"
   inkscape:export-filename="logo.png"
   inkscape:export-xdpi="480"
   inkscape:export-ydpi="480"
   xmlns:inkscape="http://www.inkscape.org/namespaces/inkscape"
   xmlns:sodipodi="http://sodipodi.sourceforge.net/DTD/sodipodi-0.dtd"
   xmlns="http://www.w3.org/2000/svg"
   xmlns:svg="http://www.w3.org/2000/svg"
   xmlns:rdf="http://www.w3.org/1999/02/22-rdf-syntax-ns#"
   xmlns:cc="http://creativecommons.org/ns#"
   xmlns:dc="http://purl.org/dc/elements/1.1/">
  <title
     id="title">Hacklab Jyväskylä Logo</title>
  <defs
     id="defs" />
  <sodipodi:namedview
     id="base"
     pagecolor="#ffffff"
     bordercolor="#666666"
     borderopacity="1"
     inkscape:pageopacity="0"
     inkscape:pageshadow="2"
     inkscape:zoom="3"
     inkscape:cx="108"
     inkscape:cy="117"
     inkscape:document-units="px"
     inkscape:current-layer="layer"
     showgrid="true"
     units="px"
     inkscape:snap-global="true"
     inkscape:window-width="1920"
     inkscape:window-height="1021"
     inkscape:window-x="0"
     inkscape:window-y="0"
     inkscape:window-maximized="1"
     inkscape:showpageshadow="2"
     inkscape:pagecheckerboard="0"
     inkscape:deskcolor="#d1d1d1">
    <inkscape:grid
       type="xygrid"
       id="grid"
       empspacing="2"
       spacingx="4"
       spacingy="4" />
  </sodipodi:namedview>
  <metadata
     id="metadata">
    <rdf:RDF>
      <cc:Work
         rdf:about="">
        <dc:format>image/svg+xml</dc:format>
        <dc:type
           rdf:resource="http://purl.org/dc/dcmitype/StillImage" />
        <dc:title>Hacklab Jyväskylä Logo</dc:title>
        <cc:license
           rdf:resource="http://creativecommons.org/licenses/by-sa/4.0/" />
        <dc:date>2021-12-31</dc:date>
        <dc:creator>
          <cc:Agent>
            <dc:title>Sampsa Kiiskinen</dc:title>
          </cc:Agent>
        </dc:creator>
        <dc:contributor>
          <cc:Agent>
            <dc:title>Members of Hacklab Jyväskylä</dc:title>
          </cc:Agent>
        </dc:contributor>
        <dc:description>This file was written by hand and previewed with Inkscape. The fractions in the source code are approximations of dynamic offsets of radii `1` and `2`.</dc:description>
      </cc:Work>
      <cc:License
         rdf:about="http://creativecommons.org/licenses/by-sa/4.0/">
        <cc:permits
           rdf:resource="http://creativecommons.org/ns#Reproduction" />
        <cc:permits
           rdf:resource="http://creativecommons.org/ns#Distribution" />
        <cc:requires
           rdf:resource="http://creativecommons.org/ns#Notice" />
        <cc:requires
           rdf:resource="http://creativecommons.org/ns#Attribution" />
        <cc:permits
           rdf:resource="http://creativecommons.org/ns#DerivativeWorks" />
        <cc:requires
           rdf:resource="http://creativecommons.org/ns#ShareAlike" />
      </cc:License>
    </rdf:RDF>
  </metadata>
  <g
     inkscape:label="Layer"
     inkscape:groupmode="layer"
     id="layer">
    <path
       id="frame"
       d="m -106.66667,298 c 0,1.105 0.895,2 2,2 h 212 c 1.105,0 2,-0.895 2,-2 V 134 c 0,-1.105 -0.895,-2 -2,-2 h -212 c -1.105,0 -2,0.895 -2,2 z m 8.000003,-158 H 101.33333 V 292 H -98.666667 Z"
       style="fill:#000000;fill-opacity:1;fill-rule:evenodd;stroke:none" />
    <g
       id="lights"
       transform="translate(-106.66667,108)">
      <path
         id="row-0-column-0"
         d="m 16,78 c 0,1.105 0.895,2 2,2 h 4 c 1.105,0 2,-0.895 2,-2 V 64 h 24 v 14 c 0,1.105 0.895,2 2,2 h 4 c 1.105,0 2,-0.895 2,-2 V 42 c 0,-1.105 -0.895,-2 -2,-2 h -4 c -1.105,0 -2,0.895 -2,2 V 56 H 24 V 42 c 0,-1.105 -0.895,-2 -2,-2 h -4 c -1.105,0 -2,0.895 -2,2 z"
         style="fill:#000000;fill-opacity:1;fill-rule:evenodd;stroke:none" />
      <path
         id="row-0-column-1"
         d="m 64,78 c 0,1.105 0.895,2 2,2 h 4 c 1.105,0 2,-0.895 2,-2 V 64 h 24 v 14 c 0,1.105 0.895,2 2,2 h 4 c 1.105,0 2,-0.895 2,-2 V 42 c 0,-1.105 -0.895,-2 -2,-2 H 66 c -1.105,0 -2,0.895 -2,2 z m 8,-30 h 24 v 8 H 72 Z"
         style="fill:#000000;fill-opacity:1;fill-rule:evenodd;stroke:none" />
      <path
         id="row-0-column-2"
         d="m 112,78 c 0,1.105 0.895,2 2,2 h 36 c 1.105,0 2,-0.895 2,-2 v -4 c 0,-1.105 -0.895,-2 -2,-2 H 120 V 48 h 30 c 1.105,0 2,-0.895 2,-2 v -4 c 0,-1.105 -0.895,-2 -2,-2 h -36 c -1.105,0 -2,0.895 -2,2 z"
         style="fill:#000000;fill-opacity:1;fill-rule:evenodd;stroke:none" />
      <path
         id="row-0-column-3"
         d="m 160,78 c 0,1.105 0.895,2 2,2 h 4 c 1.105,0 2,-0.895 2,-2 v -0.344 l 12,-12 13.758,13.758 c 0.375,0.375 0.883,0.586 1.414,0.586 H 198 c 1.105,0 2,-0.895 2,-2 v -2.828 c 0,-0.531 -0.211,-1.039 -0.586,-1.414 L 185.656,60 199.414,46.242 C 199.789,45.867 200,45.359 200,44.828 V 42 c 0,-1.105 -0.895,-2 -2,-2 h -2.828 c -0.531,0 -1.039,0.211 -1.414,0.586 L 168,66.344 V 42 c 0,-1.105 -0.895,-2 -2,-2 h -4 c -1.105,0 -2,0.895 -2,2 z"
         style="fill:#000000;fill-opacity:1;fill-rule:evenodd;stroke:none" />
      <path
         id="row-1-column-0"
         d="m 16,126 c 0,1.105 0.895,2 2,2 h 36 c 1.105,0 2,-0.895 2,-2 v -4 c 0,-1.105 -0.895,-2 -2,-2 H 24 V 90 c 0,-1.105 -0.895,-2 -2,-2 h -4 c -1.105,0 -2,0.895 -2,2 z"
         style="fill:#000000;fill-opacity:1;fill-rule:evenodd;stroke:none" />
      <path
         id="row-1-column-1"
         d="m 64,126 c 0,1.105 0.895,2 2,2 h 4 c 1.105,0 2,-0.895 2,-2 v -14 h 24 v 14 c 0,1.105 0.895,2 2,2 h 4 c 1.105,0 2,-0.895 2,-2 V 90 c 0,-1.105 -0.895,-2 -2,-2 H 66 c -1.105,0 -2,0.895 -2,2 z m 8,-30 h 24 v 8 H 72 Z"
         style="fill:#000000;fill-opacity:1;fill-rule:evenodd;stroke:none" />
      <path
         id="row-1-column-2"
         d="m 112,126 c 0,1.105 0.895,2 2,2 h 36 c 1.105,0 2,-0.895 2,-2 V 90 c 0,-1.105 -0.895,-2 -2,-2 h -36 c -1.105,0 -2,0.895 -2,2 z m 8,-30 h 24 v 8 h -24 z m 0,16 h 24 v 8 h -24 z"
         style="fill:#000000;fill-opacity:1;fill-rule:evenodd;stroke:none" />
      <path
         id="row-2-column-0"
         d="m 16,174 c 0,1.105 0.895,2 2,2 h 36 c 1.105,0 2,-0.895 2,-2 v -36 c 0,-1.105 -0.895,-2 -2,-2 h -4 c -1.105,0 -2,0.895 -2,2 v 30 H 18 c -1.105,0 -2,0.895 -2,2 z"
         style="fill:#000000;fill-opacity:1;fill-rule:evenodd;stroke:none" />
      <path
         id="row-2-column-1"
         d="m 64,174 c 0,1.105 0.895,2 2,2 h 4 c 1.105,0 2,-0.895 2,-2 v -0.344 l 12,-12 13.758,13.758 c 0.375,0.375 0.883,0.586 1.414,0.586 H 102 c 1.105,0 2,-0.895 2,-2 v -2.828 c 0,-0.531 -0.211,-1.039 -0.586,-1.414 L 89.656,156 103.414,142.242 c 0.375,-0.375 0.586,-0.883 0.586,-1.414 V 138 c 0,-1.105 -0.895,-2 -2,-2 h -2.828 c -0.531,0 -1.039,0.211 -1.414,0.586 L 72,162.344 V 138 c 0,-1.105 -0.895,-2 -2,-2 h -4 c -1.105,0 -2,0.895 -2,2 z"
         style="fill:#000000;fill-opacity:1;fill-rule:evenodd;stroke:none" />
      <path
         id="row-2-column-2"
         d="m 112,174 c 0,1.105 0.895,2 2,2 h 36 c 1.105,0 2,-0.895 2,-2 v -4 c 0,-1.105 -0.895,-2 -2,-2 h -30 v -30 c 0,-1.105 -0.895,-2 -2,-2 h -4 c -1.105,0 -2,0.895 -2,2 z"
         style="fill:#000000;fill-opacity:1;fill-rule:evenodd;stroke:none" />
      <path
         id="row-1-column-3-subcolumn-0"
         d="m 160,127 c 0,0.552 0.448,1 1,1 h 2 c 0.552,0 1,-0.448 1,-1 V 89 c 0,-0.552 -0.448,-1 -1,-1 h -2 c -0.552,0 -1,0.448 -1,1 z"
         style="fill:#000000;fill-opacity:1;fill-rule:evenodd;stroke:none" />
      <path
         id="row-1-column-3-subcolumn-1-subrow-0"
         d="m 172,103 c 0,0.552 0.448,1 1,1 h 26 c 0.552,0 1,-0.448 1,-1 V 89 c 0,-0.552 -0.448,-1 -1,-1 h -26 c -0.552,0 -1,0.448 -1,1 z m 4,-11 h 20 v 8 h -20 z"
         style="fill:#000000;fill-opacity:1;fill-rule:evenodd;stroke:none" />
      <path
         id="row-1-column-3-subcolumn-1-subrow-1"
         d="m 172,127 c 0,0.552 0.448,1 1,1 h 26 c 0.552,0 1,-0.448 1,-1 v -14 c 0,-0.552 -0.448,-1 -1,-1 h -2 c -0.552,0 -1,0.448 -1,1 v 11 h -23 c -0.552,0 -1,0.448 -1,1 z"
         style="fill:#000000;fill-opacity:1;fill-rule:evenodd;stroke:none" />
      <path
         id="row-2-column-3-subcolumn-0"
         d="m 160,175 c 0,0.552 0.448,1 1,1 h 2 c 0.552,0 1,-0.448 1,-1 v -38 c 0,-0.552 -0.448,-1 -1,-1 h -2 c -0.552,0 -1,0.448 -1,1 z"
         style="fill:#000000;fill-opacity:1;fill-rule:evenodd;stroke:none" />
      <path
         id="row-2-column-3-subcolumn-1-subrow-0"
         d="m 172,151 c 0,0.552 0.448,1 1,1 h 26 c 0.552,0 1,-0.448 1,-1 v -2 c 0,-0.552 -0.448,-1 -1,-1 h -11 v -11 c 0,-0.552 -0.448,-1 -1,-1 h -14 c -0.552,0 -1,0.448 -1,1 z m 4,-11 h 8 v 8 h -8 z"
         style="fill:#000000;fill-opacity:1;fill-rule:evenodd;stroke:none" />
      <path
         id="row-2-column-3-subcolumn-1-subrow-1"
         d="m 172,175 c 0,0.552 0.448,1 1,1 h 14 c 0.552,0 1,-0.448 1,-1 v -11 h 11 c 0.552,0 1,-0.448 1,-1 v -2 c 0,-0.552 -0.448,-1 -1,-1 h -26 c -0.552,0 -1,0.448 -1,1 z m 4,-11 h 8 v 8 h -8 z"
         style="fill:#000000;fill-opacity:1;fill-rule:evenodd;stroke:none" />
    </g>
  </g>
</svg>
