<?xml version="1.0" encoding="UTF-8" standalone="no"?>
<!-- Created with Inkscape (http://www.inkscape.org/) -->

<svg
   width="70mm"
   height="13.59456mm"
   viewBox="0 0 70.000003 13.59456"
   version="1.1"
   id="svg1"
   inkscape:version="1.4 (e7c3feb100, 2024-10-09)"
   sodipodi:docname="moppepay.svg"
   xmlns:inkscape="http://www.inkscape.org/namespaces/inkscape"
   xmlns:sodipodi="http://sodipodi.sourceforge.net/DTD/sodipodi-0.dtd"
   xmlns="http://www.w3.org/2000/svg"
   xmlns:svg="http://www.w3.org/2000/svg">
  <sodipodi:namedview
     id="namedview1"
     pagecolor="#ffffff"
     bordercolor="#000000"
     borderopacity="0.25"
     inkscape:showpageshadow="2"
     inkscape:pageopacity="0.0"
     inkscape:pagecheckerboard="0"
     inkscape:deskcolor="#d1d1d1"
     inkscape:document-units="mm"
     inkscape:zoom="1.4929296"
     inkscape:cx="200.27736"
     inkscape:cy="102.14815"
     inkscape:window-width="1440"
     inkscape:window-height="828"
     inkscape:window-x="0"
     inkscape:window-y="0"
     inkscape:window-maximized="1"
     inkscape:current-layer="layer1" />
  <defs
     id="defs1" />
  <g
     inkscape:label="Taso 1"
     inkscape:groupmode="layer"
     id="layer1"
     transform="translate(28.575002,-101.33542)">
    <path
       id="text2"
       style="-inkscape-font-specification:'Newcastle-BasicClean Ultra-Condensed';stroke-width:0.138683"
       d="m -22.766315,101.33542 a 5.8087273,5.8087273 0 0 0 -5.808687,5.80869 5.8087273,5.8087273 0 0 0 5.808687,5.80868 5.8087273,5.8087273 0 0 0 5.808686,-5.80868 5.8087273,5.8087273 0 0 0 -5.808686,-5.80869 z m -0.558794,0.8451 h 1.052038 c 0.143832,0 0.259487,0.11562 0.259487,0.25948 v 0.71102 c 0,0.14384 -0.115651,0.25976 -0.259487,0.25976 h -1.052038 c -0.143832,0 -0.259759,-0.11597 -0.259759,-0.25976 V 102.44 c 0,-0.14383 0.115932,-0.25948 0.259759,-0.25948 z m 22.82221942,1.11758 c -0.57987952,0 -1.07690902,0.10337 -1.49110852,0.30012 -0.4141995,0.20711 -0.8385702,0.52822 -1.29419,0.97349 -0.041419,0.0414 -0.114078,0.14485 -0.1969186,0.28982 -0.08284,0.15533 -0.1656669,0.25897 -0.2277965,0.3004 -0.3106496,0.68342 -0.455594,1.2736 -0.455594,1.77064 0,0.56952 0.1034577,1.10803 0.3312672,1.61542 0.2174549,0.5074 0.5282618,0.9424 0.9217514,1.29447 0.2278097,0.23816 0.5694556,0.4557 1.004365,0.6628 0.4349094,0.2071 0.93206315,0.31041 1.47052243,0.31041 1.05620857,0 1.95691737,-0.36227 2.69212117,-1.10782 0.7248491,-0.74556 1.0978134,-1.60521 1.0978134,-2.58893 0,-0.56952 -0.1036432,-1.08723 -0.3003888,-1.54285 -0.2070997,-0.45562 -0.4348712,-0.80752 -0.6833906,-1.06639 -0.7559142,-0.80769 -1.7086951,-1.21158 -2.86845358,-1.21158 z m 35.29010658,0.11002 c -0.02071,0 -0.04124,0.0208 -0.07232,0.0414 -0.0414,0.0207 -0.05173,0.0414 -0.05173,0.0414 0,0.0105 -8.5e-5,0.031 0.01027,0.0518 0,0.0207 0.01027,0.0413 0.01027,0.0517 l 0.600777,1.17014 c 0.248517,0.31064 0.538445,0.77663 0.859452,1.39793 0.383131,0.77662 0.714277,1.36679 0.983509,1.77064 v 2.63036 c 0,0.0828 0.186556,0.11375 0.559335,0.11375 0.06213,0 0.269152,4e-5 0.600506,-0.0105 0.331361,0 0.517789,-0.0105 0.579922,-0.0105 0.07249,-0.0105 0.124204,-0.0414 0.144912,-0.0932 0.01038,-0.27959 0.02086,-0.66294 0.02086,-1.13926 0,-0.47633 -1.21e-4,-0.84905 0.0206,-1.13899 0.01038,-0.27958 0.0414,-0.45564 0.09318,-0.53847 l 0.838866,-1.58429 c 0.02071,-0.0207 0.062,-0.0828 0.113762,-0.18635 0.04141,-0.1036 0.09319,-0.16559 0.134618,-0.19666 l 1.190995,-2.1642 -0.03114,-0.17606 h -1.998439 c -0.06213,0 -0.424597,0.59024 -1.076958,1.76035 -0.03108,0.0828 -0.08277,0.18642 -0.144911,0.31068 -0.06213,0.12426 -0.113914,0.18635 -0.134621,0.18635 -0.02071,0 -0.0313,-0.0105 -0.05201,-0.0414 l -1.170134,-2.12277 c -0.0414,-0.0828 -0.13462,-0.12433 -0.26924,-0.12433 z m -2.950798,0.004 c -0.176031,0 -0.269239,0.0311 -0.269239,0.0828 l -1.470522,3.7279 c -0.04141,0.0828 -0.124122,0.31048 -0.248382,0.66254 -0.124262,0.36243 -0.238132,0.63168 -0.320975,0.80772 l -0.600506,1.73976 c 0,0.0105 -0.01062,0.0208 -0.01062,0.0414 v 0.0517 c 0,0.0828 0.145067,0.12433 0.435009,0.12433 0.186389,0 0.414158,0.0105 0.68339,0.0309 0.269227,0.0207 0.507295,0.0209 0.693684,0.0105 0.06214,-0.0414 0.134602,-0.21741 0.227797,-0.54877 0.08283,-0.32101 0.196983,-0.48674 0.321245,-0.48674 0,0 0.06195,0.0105 0.165498,0.0105 0.103553,0.0105 0.165646,0.0105 0.186355,0.0105 l 1.294461,-0.0207 c 0.113902,0 0.2486,0.0105 0.393566,0.0311 0.14497,0.0207 0.238049,0.0207 0.289825,0.0207 0.05179,0.0725 0.103705,0.14496 0.155475,0.22779 0.0414,0.0828 0.08276,0.15545 0.103472,0.20722 0.02071,0.0622 0.06204,0.13453 0.103472,0.23808 0.0414,0.1036 0.06217,0.17609 0.08288,0.21752 0.176037,0 0.445355,0.0105 0.797425,0.0105 l 0.527915,0.0105 c 0.217455,0 0.372756,-0.0105 0.455593,-0.0312 0.08284,-0.0208 0.124327,-0.0828 0.124327,-0.18635 -1.428987,-3.47927 -2.205591,-5.40551 -2.350561,-5.78865 0,-0.0414 -0.0827,-0.24852 -0.248382,-0.63165 -0.165681,-0.37279 -0.259029,-0.56936 -0.290097,-0.56936 z m -13.555136,0.0209 c -0.207099,0 -0.507342,0.0105 -0.911187,0.0206 -0.403845,0.0207 -0.703943,0.0209 -0.890332,0.0209 l -0.103741,0.0829 c 0,0.0207 1.85e-4,0.0518 0.01056,0.0932 0,0.0414 0.01029,0.0619 0.01029,0.0826 0,0.0622 -0.01044,0.63184 -0.03115,1.72947 -0.0207,1.09763 -0.03115,1.83286 -0.03115,2.20565 0,0.16568 1.85e-4,0.41419 0.01056,0.72482 0,0.31067 0.01029,0.54872 0.01029,0.69369 0.0207,0 0.04144,0.0105 0.04144,0.0312 -0.05179,0.0932 -0.07259,0.24838 -0.07259,0.47618 v 0.45559 c 0,0.21746 0.01056,0.39364 0.01056,0.5179 0.03108,0.1036 0.144818,0.1552 0.341559,0.1552 h 0.134621 c 0.04141,0 0.07253,-0.0105 0.08288,-0.0105 0.310651,0 0.786863,0.0105 1.418517,0.0206 0.621296,0.0105 1.10816,0.0105 1.46023,0.0105 0.14497,0 0.248425,-2.3e-4 0.331267,-0.0105 0.08283,0 0.165815,-0.0204 0.248653,-0.0412 0.08284,-0.0208 0.144937,-0.052 0.186354,-0.10372 0.04141,-0.0518 0.06203,-0.1241 0.06203,-0.20694 0,-0.0932 -3.3e-5,-0.2382 0.01027,-0.4453 0.01038,-0.19674 0.02086,-0.34176 0.02086,-0.4453 0,-0.16568 -0.03107,-0.26927 -0.09318,-0.31068 -0.14497,-0.0207 -0.404001,-0.0311 -0.787132,-0.0311 -0.383136,0 -0.724923,-0.0105 -1.025221,-0.0207 -0.300294,-0.0105 -0.45547,-0.0414 -0.47618,-0.0828 0,-0.1036 -0.01027,-0.26922 -0.01027,-0.49703 v -0.41415 c 0,-0.18638 0.03107,-0.28997 0.09318,-0.31068 0.186389,-0.0207 0.838594,-0.0312 1.967288,-0.0312 l 0.08288,-0.0621 c 0,-0.0725 -8.5e-5,-0.28988 0.01027,-0.64194 0,-0.35208 0.0105,-0.57986 0.02086,-0.6834 0,-0.0208 -0.02073,-0.0623 -0.04144,-0.10372 -0.03108,-0.0414 -0.05189,-0.0621 -0.07259,-0.0621 h -1.905261 c -0.113901,0 -0.165768,-0.0931 -0.165768,-0.28981 v -0.0209 c 0,0 0.01062,-0.0105 0.01062,-0.0206 0,-0.12426 -1.19e-4,-0.26921 0.02058,-0.4556 0.01038,-0.18638 0.02086,-0.31072 0.02086,-0.39356 l 0.486472,-0.0105 c 0.04141,0 0.103659,0.0105 0.207211,0.0105 h 0.227797 c 0.486683,0 0.82854,-0.0105 1.014929,-0.0414 0.186389,-0.0207 0.289825,-0.0932 0.289825,-0.2175 0,-0.0518 -3.3e-5,-0.22769 0.01027,-0.51763 0.01038,-0.28994 0.02086,-0.45581 0.02086,-0.50759 l -0.03115,-0.24838 c -0.06214,-0.0518 -0.466165,-0.0828 -1.232432,-0.0828 H 18.73713 c -0.227807,0 -0.383378,-0.0105 -0.455863,-0.0105 z m -13.6480425,0.0828 c -0.082837,0 -0.2172631,0.0105 -0.3932951,0.0207 l -0.03115,0.0623 c 0,0.39348 -8.54e-5,1.0768 0.010295,2.05017 0.010379,0.97336 0.020856,1.70873 0.020856,2.18505 0,0.27959 -0.01053,0.70415 -0.020856,1.26332 -0.010379,0.55917 -0.010295,0.99389 -0.010295,1.29419 0,0.12426 0.041471,0.18635 0.1243268,0.18635 l 0.082884,0.0105 c 0,0 0.031124,0.0105 0.082885,0.0105 h 0.1240559 c 0.3520694,0.031 0.7352866,0.0414 1.1598413,0.0414 0.1553279,0 0.2380893,-0.0727 0.2380893,-0.23836 v -1.45996 c 0,-0.2278 0.051813,-0.37272 0.1760619,-0.41415 1.3979203,0 2.4126504,-0.4247 3.0339517,-1.28416 0.1863894,-0.24853 0.290096,-0.63166 0.290096,-1.1287 0,-0.33135 -0.051792,-0.61093 -0.1346197,-0.85945 -0.093195,-0.24852 -0.2484895,-0.50734 -0.4555935,-0.77658 -0.5798774,-0.642 -1.3877186,-0.96291 -2.41286,-0.96291 l -0.7662752,0.0105 c -0.5177493,0.0105 -0.828433,0.0105 -0.9423371,0.0105 -0.062133,-0.0105 -0.1139339,-0.0206 -0.1760619,-0.0206 z m 6.0578815,0 c -0.08284,0 -0.217529,0.0105 -0.393566,0.0207 l -0.03088,0.0623 c 0,0.39348 -8.6e-5,1.0768 0.01029,2.05017 0.01038,0.97336 0.02058,1.70873 0.02058,2.18505 0,0.27959 -0.01026,0.70415 -0.02058,1.26332 -0.01038,0.55917 -0.01029,0.99389 -0.01029,1.29419 0,0.12426 0.04121,0.18635 0.124056,0.18635 l 0.08288,0.0105 c 0,0 0.03113,0.0105 0.08288,0.0105 h 0.124327 c 0.352069,0.031 0.735287,0.0414 1.159841,0.0414 0.155323,0 0.23809,-0.0727 0.23809,-0.23836 v -1.45996 c 0,-0.2278 0.05182,-0.37272 0.176061,-0.41415 1.397926,0 2.412656,-0.4247 3.033952,-1.28416 0.18639,-0.24853 0.289825,-0.63166 0.289825,-1.1287 0,-0.33135 -0.05179,-0.61093 -0.134619,-0.85945 -0.09319,-0.24852 -0.248495,-0.50734 -0.455594,-0.77658 -0.579878,-0.642 -1.387448,-0.96291 -2.412589,-0.96291 l -0.766275,0.0105 c -0.51775,0.0105 -0.828433,0.0105 -0.942337,0.0105 -0.06213,-0.0105 -0.113935,-0.0206 -0.176062,-0.0206 z m 13.834668,0 c -0.08283,0 -0.217533,0.0105 -0.393566,0.0207 l -0.03115,0.0623 c 0,0.39348 -8.5e-5,1.0768 0.01027,2.05017 0.01038,0.97336 0.02086,1.70873 0.02086,2.18505 0,0.27959 -0.0105,0.70415 -0.02086,1.26332 -0.01038,0.55917 -0.01027,0.99389 -0.01027,1.29419 0,0.12426 0.04147,0.18635 0.124327,0.18635 l 0.08288,0.0105 c 0,0 0.03113,0.0105 0.08288,0.0105 h 0.124056 c 0.352069,0.031 0.735286,0.0414 1.15984,0.0414 0.155329,0 0.23809,-0.0727 0.23809,-0.23836 v -1.45996 c 0,-0.2278 0.05181,-0.37272 0.176062,-0.41415 1.397921,0 2.412921,-0.4247 3.034223,-1.28416 0.186389,-0.24853 0.289825,-0.63166 0.289825,-1.1287 0,-0.33135 -0.05179,-0.61093 -0.13462,-0.85945 -0.09319,-0.24852 -0.248495,-0.50734 -0.455594,-0.77658 -0.579882,-0.642 -1.387712,-0.96291 -2.412859,-0.96291 l -0.766276,0.0105 c -0.517749,0.0105 -0.828162,0.0105 -0.942066,0.0105 -0.06214,-0.0105 -0.113925,-0.0206 -0.176062,-0.0206 z m -30.8584935,0.0414 c -0.041419,0 -0.093346,0.0105 -0.1554765,0.0105 h -0.165498 -0.072591 l -0.1484337,0.0168 c -0.6101219,0.73327 -2.6096558,4.12626 -2.6409272,3.596 l -0.2120873,-3.59586 h -1.5921408 l -4.771276,7.05494 h 1.952932 l 2.624405,-3.87201 0.136786,3.89557 h 1.6094766 c 0.08064,0 1.7193879,-2.44644 2.6891417,-3.92672 0.1035535,-0.14497 0.1553523,-0.22779 0.1760618,-0.22779 l 0.062299,0.12432 c 0,0.031 0.01029,0.36221 0.01029,0.98351 0,0.3003 -0.0105,0.74568 -0.020856,1.33591 -0.020709,0.60058 -0.020583,1.03539 -0.020583,1.32533 0,0.24852 0.030988,0.37298 0.1034706,0.37298 h 1.6360205 c 0.06213,0 0.1037412,-2.10207 0.1037412,-6.31656 0,-0.0207 -0.0105,-0.12443 -0.020857,-0.33154 -0.020709,-0.20709 -0.020583,-0.32078 -0.020583,-0.35184 l -0.03115,-0.052 c 0,-0.0206 -0.4141177,-0.0412 -1.232162,-0.0412 z m -16.9924055,0.0875 v 2.7e-4 h 1.052038 c 0.143832,0 0.259487,0.11562 0.259487,0.25949 v 0.71102 c 0,0.14384 -0.115651,0.25976 -0.259487,0.25976 h -1.052038 c -0.143832,0 -0.259759,-0.11597 -0.259759,-0.25976 v -0.71102 c 0,-0.13484 0.10171,-0.24488 0.232943,-0.25813 0.0088,-0.001 0.01783,-0.001 0.02682,-0.001 z m -1.860838,2.7e-4 h 1.052308 c 0.143833,0 0.259488,0.11562 0.259488,0.25949 v 0.71102 c 0,0.14384 -0.115652,0.25976 -0.259488,0.25976 h -1.052308 c -0.143833,0 -0.259488,-0.11597 -0.259488,-0.25976 v -0.71102 c 0,-0.14383 0.115652,-0.25949 0.259488,-0.25949 z m 3.721405,0 h 1.052038 c 0.143831,0 0.259759,0.11562 0.259759,0.25949 v 0.71102 c 0,0.14384 -0.115932,0.25976 -0.259759,0.25976 h -1.052038 c -0.143832,0 -0.259758,-0.11597 -0.259758,-0.25976 v -0.71102 c 0,-0.14383 0.11592,-0.25949 0.259758,-0.25949 z m 27.8063948,1.27902 c 0.6316587,0 1.0665885,0.17597 1.3047539,0.50734 0.1035522,0.18638 0.1554762,0.35206 0.1554762,0.49703 0,0.40385 -0.1244579,0.68348 -0.3729805,0.84916 -0.2485175,0.16568 -0.5798696,0.24853 -0.9940722,0.26925 H 6.2280897 c -0.1449705,0 -0.2072113,-0.0208 -0.2072113,-0.0828 v -1.9467 l 0.1037412,-0.0828 c 0,0 0.072268,-0.0105 0.2172332,-0.0105 z m 6.0578812,0 c 0.631654,0 1.066589,0.17597 1.304754,0.50734 0.103547,0.18638 0.155205,0.35206 0.155205,0.49703 0,0.40385 -0.124192,0.68348 -0.372709,0.84916 -0.248523,0.16568 -0.579875,0.24853 -0.994072,0.26925 H 12.2857 c -0.14497,0 -0.20694,-0.0208 -0.20694,-0.0828 v -1.9467 l 0.103471,-0.0828 c 0,0 0.07253,-0.0105 0.217504,-0.0105 z m 13.834669,0 c 0.631653,0 1.066318,0.17597 1.304483,0.50734 0.103554,0.18638 0.155475,0.35206 0.155475,0.49703 0,0.40385 -0.124186,0.68348 -0.372708,0.84916 -0.248518,0.16568 -0.579875,0.24853 -0.994073,0.26925 h -0.207211 c -0.144965,0 -0.207212,-0.0208 -0.207212,-0.0828 v -1.9467 l 0.103741,-0.0828 c 0,0 0.07253,-0.0105 0.217504,-0.0105 z m -51.42035,0.18528 h 1.052308 c 0.143833,0 0.259488,0.11562 0.259488,0.25949 v 0.71101 c 0,0.14384 -0.115652,0.25976 -0.259488,0.25976 h -1.052308 c -0.143833,0 -0.259488,-0.11596 -0.259488,-0.25976 v -0.71101 c 0,-0.14384 0.115652,-0.25949 0.259488,-0.25949 z m 24.76594203,0.0529 c 0.59023469,0 1.07688647,0.2279 1.44966577,0.66281 0.2899397,0.39349 0.4453012,0.79723 0.4453012,1.19072 0,0.51774 -0.1759073,0.96318 -0.51762198,1.3256 -0.35206933,0.36243 -0.77671156,0.53821 -1.29446097,0.53821 -0.27958463,0 -0.53846558,-0.0412 -0.76627515,-0.13434 -0.2381649,-0.0828 -0.4140716,-0.18649 -0.5176215,-0.3004 -0.4141995,-0.33135 -0.6213632,-0.80778 -0.6213632,-1.42907 0,-0.51775 0.1655521,-0.95263 0.517622,-1.31506 0.3520694,-0.35206 0.78700441,-0.53847 1.30475383,-0.53847 z m 23.98260197,0.99407 -2.392004,0.70425 c -0.05179,0.0207 -0.08282,0.0621 -0.09318,0.10348 -0.02071,0.0518 -0.02058,0.16574 -0.02058,0.35212 0,0.2071 0.01015,0.38322 0.04117,0.52819 0,0.0208 0.02088,0.0309 0.0623,0.0309 l 2.350561,-0.64195 c 0.103554,-0.031 0.155206,-0.21756 0.155206,-0.56963 l -0.02058,-0.31041 c -0.02071,-0.12426 -0.04145,-0.19691 -0.08288,-0.19691 z m 8.791445,0.41416 0.134619,0.32097 c 0.01038,0.0206 0.06235,0.13478 0.145184,0.33153 0.207104,0.5074 0.320973,0.81808 0.320973,0.94234 0,0.0414 -0.248649,0.0726 -0.745689,0.0828 H 31.93989 c -0.155323,0 -0.227797,-0.0414 -0.227797,-0.12433 0,-0.0828 0.09336,-0.36254 0.290096,-0.83887 0.196747,-0.47632 0.310434,-0.71453 0.351853,-0.71453 z m -57.539989,0.004 h 1.052308 c 0.143833,0 0.259488,0.11561 0.259488,0.25947 v 0.71103 c 0,0.14383 -0.115652,0.25976 -0.259488,0.25976 h -1.052308 c -0.143833,0 -0.259488,-0.11597 -0.259488,-0.25976 v -0.71103 c 0,-0.14382 0.115652,-0.25947 0.259488,-0.25947 z m 1.860838,0 h 1.052038 c 0.143832,0 0.259487,0.11561 0.259487,0.25947 v 0.71103 c 0,0.14383 -0.115651,0.25976 -0.259487,0.25976 h -1.052038 c -0.143832,0 -0.259759,-0.11597 -0.259759,-0.25976 v -0.71103 c 0,-0.14382 0.115932,-0.25947 0.259759,-0.25947 z m 1.860567,0 h 1.052038 c 0.143831,0 0.259759,0.11561 0.259759,0.25947 v 0.71103 c 0,0.14383 -0.115932,0.25976 -0.259759,0.25976 h -1.052038 c -0.143832,0 -0.259758,-0.11597 -0.259758,-0.25976 v -0.71103 c 0,-0.14382 0.11592,-0.25947 0.259758,-0.25947 z m 45.037432,0.91849 c -0.05179,0 -0.08288,0.0105 -0.08288,0.0105 l -2.319412,0.69369 c -0.09319,0.0622 -0.134619,0.16591 -0.134619,0.32124 0,0.031 -8.5e-5,0.0621 0.01027,0.10348 0,0.0414 0.01062,0.0619 0.01062,0.0723 0,0.19673 0.01015,0.35231 0.04117,0.45586 0,0.031 0.02081,0.0412 0.07259,0.0412 0.03108,0 0.06217,4e-5 0.08288,-0.0105 l 1.542844,-0.43473 0.08288,-0.0414 0.683391,-0.16577 c 0.06212,-0.031 0.103472,-0.0725 0.103472,-0.13461 v -0.74569 c 0,-0.0725 -0.01027,-0.11386 -0.01027,-0.13462 -0.01038,-0.0208 -0.04145,-0.0309 -0.08288,-0.0309 z m -45.037432,0.54579 h 1.052038 c 0.143831,0 0.259759,0.11562 0.259759,0.25949 v 0.71101 c 0,0.14384 -0.115932,0.25976 -0.259759,0.25976 h -1.052038 c -0.143832,0 -0.259758,-0.11596 -0.259758,-0.25976 v -0.71101 c 0,-0.14383 0.11592,-0.25949 0.259758,-0.25949 z m -3.721405,1.4643 h 1.052308 c 0.143833,0 0.259488,0.11561 0.259488,0.25949 v 0.71101 c 0,0.14384 -0.115652,0.25976 -0.259488,0.25976 h -1.052308 c -0.143833,0 -0.259488,-0.11597 -0.259488,-0.25976 v -0.71101 c 0,-0.14384 0.115652,-0.25949 0.259488,-0.25949 z m 1.860838,0 h 1.052038 c 0.143832,0 0.259487,0.11561 0.259487,0.25949 v 0.71101 c 0,0.14384 -0.115651,0.25976 -0.259487,0.25976 h -1.052038 c -0.143832,0 -0.259759,-0.11597 -0.259759,-0.25976 v -0.71101 c 0,-0.14384 0.115932,-0.25949 0.259759,-0.25949 z m 1.860567,0 h 1.052038 c 0.143831,0 0.259759,0.11561 0.259759,0.25949 v 0.71101 c 0,0.14384 -0.115932,0.25976 -0.259759,0.25976 h -1.052038 c -0.143832,0 -0.259758,-0.11597 -0.259758,-0.25976 v -0.71101 c 0,-0.14384 0.11592,-0.25949 0.259758,-0.25949 z m -1.860567,1.47811 h 1.052038 c 0.143832,0 0.259487,0.11561 0.259487,0.25949 v 0.71101 c 0,0.14383 -0.115651,0.25976 -0.259487,0.25976 h -1.052038 c -0.143832,0 -0.259759,-0.11597 -0.259759,-0.25976 v -0.71101 c 0,-0.14384 0.115932,-0.25949 0.259759,-0.25949 z m 11.948098,2.15498 c -0.162925,0 -0.304308,0.005 -0.423903,0.0131 -0.117861,0.007 -0.218275,0.0219 -0.301471,0.0443 -0.08147,0.0208 -0.148172,0.0518 -0.200169,0.0935 -0.052,0.0399 -0.09297,0.0929 -0.122431,0.15873 -0.02773,0.0642 -0.04675,0.14287 -0.05715,0.23646 -0.01038,0.0936 -0.01544,0.20463 -0.01544,0.33289 v 0.0363 c 0,0.12825 0.005,0.23929 0.01544,0.33288 0.01038,0.0936 0.02942,0.17331 0.05715,0.23918 0.02947,0.0642 0.07043,0.11585 0.122431,0.15575 0.052,0.0398 0.118705,0.0712 0.200169,0.0937 0.08319,0.0225 0.18361,0.0372 0.301471,0.0441 0.119595,0.008 0.260978,0.013 0.423903,0.013 h 0.078 c 0.162925,0 0.303061,-0.005 0.420923,-0.013 0.119594,-0.007 0.220279,-0.0207 0.301743,-0.0414 0.08319,-0.0225 0.150879,-0.0539 0.202877,-0.0937 0.052,-0.0416 0.09172,-0.0943 0.119451,-0.15845 0.02947,-0.0658 0.04946,-0.14558 0.05986,-0.23918 0.01038,-0.0936 0.01544,-0.20462 0.01544,-0.33289 v -0.0363 c 0,-0.12826 -0.005,-0.23929 -0.01544,-0.3329 -0.01038,-0.0936 -0.03039,-0.17232 -0.05986,-0.23646 -0.02773,-0.0658 -0.06746,-0.11886 -0.119451,-0.15872 -0.052,-0.0417 -0.119681,-0.0727 -0.202877,-0.0935 -0.08147,-0.0225 -0.182149,-0.0374 -0.301743,-0.0443 -0.117862,-0.008 -0.257998,-0.013 -0.420923,-0.013 z m 30.457886,0 c -0.227057,0 -0.41152,0.0105 -0.553647,0.0315 -0.140393,0.0208 -0.249749,0.0622 -0.327746,0.1246 -0.07799,0.0607 -0.130725,0.14834 -0.158455,0.26274 -0.02599,0.1127 -0.039,0.26077 -0.039,0.44448 v 0.0752 c 0,0.182 0.01301,0.3294 0.039,0.44205 0.02773,0.1127 0.08047,0.19938 0.158455,0.26004 0.07799,0.0607 0.187353,0.10139 0.327746,0.12216 0.142127,0.0208 0.32827,0.0311 0.558793,0.0311 h 0.210733 c 0.20799,0 0.371753,-0.009 0.491348,-0.0285 0.121327,-0.019 0.212367,-0.052 0.273032,-0.0988 0.06067,-0.0468 0.0987,-0.11013 0.114298,-0.18987 0.01734,-0.0797 0.026,-0.18015 0.026,-0.30148 V 114.132 c 0,-0.0642 -0.01805,-0.11176 -0.05445,-0.14302 -0.03466,-0.0329 -0.09368,-0.0493 -0.176875,-0.0493 h -0.832096 c -0.0364,0 -0.06576,0.008 -0.0883,0.026 -0.02253,0.0174 -0.03386,0.045 -0.03386,0.0832 v 0.0494 c 0,0.0398 0.01132,0.0685 0.03386,0.0859 0.02253,0.0155 0.05288,0.0232 0.09101,0.0232 h 0.61107 c 0.04853,0 0.07259,0.0207 0.07259,0.0623 v 0.12758 c 0,0.0538 -0.0043,0.0971 -0.01301,0.13002 -0.0086,0.0312 -0.03203,0.0553 -0.07015,0.0726 -0.0364,0.0155 -0.09178,0.0262 -0.166311,0.0314 -0.07453,0.005 -0.177599,0.008 -0.309328,0.008 H 19.086 c -0.161193,0 -0.288594,-0.005 -0.38219,-0.0154 -0.09186,-0.0121 -0.160955,-0.0374 -0.207752,-0.0756 -0.04679,-0.0398 -0.07644,-0.0962 -0.08857,-0.16903 -0.01213,-0.0746 -0.01814,-0.17396 -0.01814,-0.29876 v -0.0728 c 0,-0.12653 0.0061,-0.22722 0.01814,-0.30174 0.01213,-0.0763 0.04178,-0.13333 0.08857,-0.17146 0.0468,-0.0398 0.115885,-0.0649 0.207752,-0.0752 0.0936,-0.0121 0.220997,-0.0184 0.38219,-0.0184 h 0.925815 c 0.0364,0 0.06577,-0.008 0.08831,-0.026 0.02253,-0.0191 0.03386,-0.0457 0.03386,-0.0805 v -0.0338 c 0,-0.0329 -0.0079,-0.0596 -0.02357,-0.0805 -0.01386,-0.0225 -0.04422,-0.0399 -0.09101,-0.052 -0.04679,-0.0121 -0.114205,-0.0201 -0.202606,-0.0236 -0.0884,-0.005 -0.207128,-0.008 -0.356187,-0.008 z m -34.944483,0.0131 c -0.157726,0 -0.236735,0.0614 -0.236735,0.18445 v 1.45346 c 0,0.0399 0.01038,0.0719 0.03115,0.0961 0.0208,0.0225 0.05213,0.0338 0.09372,0.0338 h 0.135161 c 0.03986,0 0.06924,-0.0117 0.08831,-0.0338 0.0208,-0.0243 0.03142,-0.0562 0.03142,-0.0961 v -1.20372 c 0,-0.0174 0.0034,-0.0294 0.01027,-0.0363 0.0086,-0.007 0.01832,-0.0105 0.02871,-0.0105 0.01734,0 0.03635,0.0174 0.05715,0.052 l 0.699371,1.22458 c 0.0208,0.0346 0.04053,0.0607 0.05959,0.078 0.0208,0.0174 0.04947,0.026 0.08587,0.026 h 0.135161 c 0.03813,0 0.06777,-0.008 0.08857,-0.026 0.02253,-0.0174 0.04421,-0.044 0.06501,-0.0805 l 0.70181,-1.22457 c 0.01906,-0.0329 0.03809,-0.0496 0.05715,-0.0496 0.01038,0 0.01908,0.005 0.02601,0.0131 0.0086,0.007 0.013,0.0192 0.013,0.0366 v 1.20372 c 0,0.0398 0.01062,0.0709 0.03142,0.0934 0.0208,0.0225 0.05115,0.0338 0.09101,0.0338 h 0.137599 c 0.03986,0 0.06951,-0.0117 0.08857,-0.0338 0.0208,-0.0225 0.03115,-0.0536 0.03115,-0.0934 v -1.4559 c 0,-0.12306 -0.07901,-0.18472 -0.236736,-0.18472 h -0.241611 c -0.05546,0 -0.09882,0.009 -0.130015,0.0287 -0.02947,0.0174 -0.05646,0.0477 -0.08072,0.091 l -0.652513,1.18802 c -0.01386,0.026 -0.02855,0.039 -0.04415,0.039 -0.0156,0 -0.03125,-0.0136 -0.04685,-0.0414 l -0.663076,-1.18314 c -0.02427,-0.0433 -0.05195,-0.0743 -0.08316,-0.0935 -0.02947,-0.0191 -0.07184,-0.0287 -0.127305,-0.0287 z m 6.8306573,0 c -0.1057234,0 -0.1871218,0.0226 -0.2443188,0.0677 -0.057202,0.0433 -0.085867,0.11434 -0.085867,0.21317 v 1.20617 c 0,0.0988 0.028665,0.17081 0.085867,0.21588 0.057202,0.0433 0.1395661,0.065 0.2470278,0.065 h 1.1257128 c 0.1178603,0 0.2165954,-0.008 0.2963254,-0.0232 0.081457,-0.0156 0.1474668,-0.0426 0.1977303,-0.0807 0.050272,-0.0399 0.086625,-0.0919 0.1091534,-0.15602 0.022528,-0.0642 0.033857,-0.14552 0.033857,-0.24432 0,-0.1092 -0.017348,-0.19254 -0.05201,-0.24974 -0.032935,-0.0572 -0.085937,-0.1022 -0.1587275,-0.13516 -0.032935,-0.0139 -0.049292,-0.0293 -0.049292,-0.0465 0,-0.008 0.00338,-0.0167 0.010267,-0.0236 0.00863,-0.007 0.023357,-0.0173 0.044147,-0.0311 0.050272,-0.0329 0.086893,-0.0746 0.1094334,-0.12487 0.024267,-0.052 0.036295,-0.12374 0.036295,-0.2156 0,-0.0832 -0.011317,-0.15257 -0.033857,-0.20803 -0.020802,-0.0555 -0.057155,-0.0998 -0.1091534,-0.13272 -0.051998,-0.0346 -0.1213614,-0.0587 -0.2080238,-0.0726 -0.08666,-0.0155 -0.1950434,-0.0236 -0.325037,-0.0236 z m 2.6772236,0 c -0.041596,0 -0.07292,0.0117 -0.093718,0.0338 -0.019063,0.0225 -0.028441,0.0539 -0.028441,0.0937 v 1.51034 c 0,0.0399 0.010348,0.0719 0.03115,0.0961 0.020798,0.0225 0.051849,0.0338 0.093449,0.0338 h 0.1430166 c 0.039867,0 0.069506,-0.0117 0.088572,-0.0338 0.020798,-0.0225 0.03115,-0.0536 0.03115,-0.0935 v -1.51061 c 0,-0.0398 -0.010348,-0.0712 -0.03115,-0.0937 -0.020798,-0.0243 -0.051147,-0.0363 -0.091011,-0.0363 z m 1.4550834,0 c -0.1057281,0 -0.187122,0.0226 -0.2443194,0.0677 -0.057198,0.0433 -0.085864,0.11434 -0.085864,0.21317 v 1.35974 c 0,0.0398 0.010348,0.0709 0.03115,0.0935 0.020798,0.0225 0.051147,0.0338 0.091011,0.0338 h 0.1403077 c 0.041596,0 0.071946,-0.0117 0.091011,-0.0338 0.020798,-0.0225 0.03115,-0.0536 0.03115,-0.0935 v -0.36918 c 0,-0.0554 0.032026,-0.0832 0.096157,-0.0832 h 0.6189253 c 0.123061,0 0.2210911,0.005 0.2938877,0.0154 0.072797,0.008 0.1281789,0.0276 0.1663106,0.0572 0.038132,0.0278 0.062463,0.0694 0.072863,0.12487 0.012135,0.0538 0.018146,0.12477 0.018146,0.21317 v 0.0418 c 0,0.0398 0.00938,0.0709 0.028441,0.0935 0.020798,0.0225 0.051147,0.0338 0.091011,0.0338 h 0.1430166 c 0.041596,0 0.071945,-0.0117 0.091011,-0.0338 0.020798,-0.0225 0.03115,-0.0536 0.03115,-0.0935 v -0.14301 c 0,-0.071 -0.00435,-0.13079 -0.012999,-0.17932 -0.00867,-0.0503 -0.021674,-0.0919 -0.039003,-0.12487 -0.017333,-0.0329 -0.039716,-0.06 -0.067445,-0.0807 -0.025998,-0.0208 -0.058025,-0.0388 -0.096157,-0.0545 -0.017333,-0.008 -0.030338,-0.0156 -0.039003,-0.0209 -0.00693,-0.007 -0.010558,-0.0156 -0.010558,-0.026 0,-0.008 0.00362,-0.0163 0.010558,-0.0232 0.00867,-0.008 0.024059,-0.0183 0.046587,-0.0287 0.034668,-0.0174 0.065013,-0.0373 0.091011,-0.0598 0.025998,-0.0225 0.047677,-0.0485 0.065008,-0.0781 0.019063,-0.0311 0.033048,-0.0666 0.041712,-0.1064 0.00867,-0.0399 0.013004,-0.0868 0.013004,-0.14058 v -0.052 c 0,-0.10395 -0.010348,-0.18875 -0.03115,-0.25461 -0.019063,-0.0675 -0.055427,-0.1213 -0.1091581,-0.16118 -0.051996,-0.0399 -0.1240159,-0.0675 -0.2158787,-0.0832 -0.090129,-0.0155 -0.2055006,-0.0236 -0.3458938,-0.0236 z m 3.441332,0 c -0.038132,0 -0.068479,0.007 -0.091011,0.0209 -0.020798,0.0139 -0.040795,0.0382 -0.059862,0.0728 l -0.8396792,1.49219 c -0.017333,0.0329 -0.026004,0.0616 -0.026004,0.0859 0,0.0642 0.039993,0.0961 0.1197221,0.0961 h 0.1324528 c 0.039867,0 0.069237,-0.008 0.088302,-0.0233 0.019069,-0.0174 0.040742,-0.047 0.065008,-0.0885 l 0.1040119,-0.18446 c 0.013864,-0.0225 0.027848,-0.0372 0.041712,-0.0441 0.013869,-0.008 0.034568,-0.013 0.062299,-0.013 h 1.08426976 c 0.0277329,0 0.0484319,0.005 0.0622989,0.013 0.0138635,0.007 0.0278484,0.0226 0.0417119,0.0469 l 0.1013029,0.18445 c 0.0207982,0.0399 0.0407949,0.0686 0.0598605,0.0859 0.0207982,0.0156 0.0511467,0.0232 0.0910106,0.0232 h 0.14030775 c 0.0346675,0 0.0633325,-0.008 0.0858644,-0.026 0.022533,-0.0174 0.0338602,-0.0407 0.0338602,-0.0701 0,-0.0294 -0.008668,-0.0588 -0.0260039,-0.0883 l -0.82424031,-1.49246 c -0.019069,-0.0346 -0.039767,-0.058 -0.062299,-0.0701 -0.020798,-0.0139 -0.051147,-0.0209 -0.091011,-0.0209 z m 3.7032578,0 c -0.1057293,0 -0.1871228,0.0226 -0.24432,0.0677 -0.057197,0.0433 -0.085863,0.11434 -0.085863,0.21317 v 1.20617 c 0,0.0988 0.028666,0.17081 0.085863,0.21588 0.057197,0.0433 0.1392956,0.065 0.2467577,0.065 h 1.1259831 c 0.1178608,0 0.2165958,-0.008 0.2963255,-0.0232 0.081463,-0.0156 0.1471957,-0.0426 0.19746,-0.0807 0.050267,-0.0399 0.086627,-0.0919 0.1091583,-0.15602 0.022533,-0.0642 0.03386,-0.14552 0.03386,-0.24432 0,-0.1092 -0.017344,-0.19254 -0.052007,-0.24974 -0.032933,-0.0572 -0.085659,-0.1022 -0.1584556,-0.13516 -0.032933,-0.0139 -0.049569,-0.0293 -0.049569,-0.0465 0,-0.008 0.00362,-0.0167 0.010562,-0.0236 0.00866,-0.007 0.023351,-0.0173 0.04415,-0.0311 0.050267,-0.0329 0.086627,-0.0746 0.1091583,-0.12487 0.024263,-0.052 0.036298,-0.12374 0.036298,-0.2156 0,-0.0832 -0.011054,-0.15257 -0.033588,-0.20803 -0.020798,-0.0555 -0.057432,-0.0998 -0.1094293,-0.13272 -0.051996,-0.0346 -0.1210902,-0.0587 -0.2077528,-0.0726 -0.086663,-0.0155 -0.1950432,-0.0236 -0.3250372,-0.0236 z m 3.4491868,0 c -0.038132,0 -0.068479,0.007 -0.091011,0.0209 -0.020798,0.0139 -0.040795,0.0382 -0.059861,0.0728 l -0.8396799,1.49219 c -0.017334,0.0329 -0.026003,0.0616 -0.026003,0.0859 0,0.0642 0.03972,0.0961 0.1194511,0.0961 h 0.1327238 c 0.039867,0 0.069236,-0.008 0.088302,-0.0233 0.019063,-0.0174 0.040742,-0.047 0.065007,-0.0885 l 0.1040121,-0.18446 c 0.013864,-0.0225 0.027848,-0.0372 0.041712,-0.0441 0.013869,-0.008 0.034568,-0.013 0.062299,-0.013 h 1.0842703 c 0.027733,0 0.048432,0.005 0.062299,0.013 0.013864,0.007 0.027848,0.0226 0.041712,0.0469 l 0.1013029,0.18445 c 0.020798,0.0399 0.040795,0.0686 0.059861,0.0859 0.020798,0.0156 0.051147,0.0232 0.091011,0.0232 H 6.870848 c 0.034668,0 0.063333,-0.008 0.085864,-0.026 0.022533,-0.0174 0.03386,-0.0407 0.03386,-0.0701 0,-0.0294 -0.00867,-0.0588 -0.026004,-0.0883 l -0.8242403,-1.49246 c -0.019063,-0.0346 -0.04004,-0.058 -0.06257,-0.0701 -0.020798,-0.0139 -0.050875,-0.0209 -0.09074,-0.0209 z m 2.2793233,0 c -0.157726,0 -0.2367355,0.0616 -0.2367355,0.18472 v 1.45319 c 0,0.0399 0.010348,0.0719 0.031151,0.0961 0.020798,0.0225 0.052122,0.0338 0.093719,0.0338 h 0.1378699 c 0.039867,0 0.069237,-0.0117 0.088302,-0.0338 0.020798,-0.0225 0.031151,-0.0536 0.031151,-0.0935 v -1.22213 c 0,-0.0174 0.00362,-0.0294 0.010558,-0.0363 0.00867,-0.007 0.018041,-0.0105 0.028441,-0.0105 0.010395,0 0.020043,0.005 0.028713,0.013 0.00867,0.007 0.019991,0.0183 0.033856,0.0338 l 1.0867081,1.25545 c 0.027733,0.033 0.056128,0.0573 0.085593,0.0728 0.029468,0.0139 0.066803,0.0209 0.1118671,0.0209 h 0.2497371 c 0.157726,0 0.2364645,-0.0617 0.2364645,-0.18473 v -1.45319 c 0,-0.0398 -0.010348,-0.0712 -0.031151,-0.0937 -0.020798,-0.0243 -0.051147,-0.0363 -0.091011,-0.0363 H 9.7298221 c -0.041596,0 -0.072649,0.0117 -0.093448,0.0338 -0.019063,0.0225 -0.028713,0.0536 -0.028713,0.0935 v 1.22458 c 0,0.0312 -0.01203,0.0469 -0.036297,0.0469 -0.010395,0 -0.020043,-0.004 -0.028713,-0.0105 -0.00867,-0.008 -0.019991,-0.0206 -0.033855,-0.0363 l -1.0891459,-1.25844 c -0.027733,-0.0329 -0.056399,-0.0562 -0.085864,-0.0701 -0.029463,-0.0155 -0.066802,-0.0232 -0.1118671,-0.0232 z m 2.9992818,0 c -0.0416,0 -0.07265,0.0117 -0.09345,0.0338 -0.01906,0.0225 -0.02871,0.0539 -0.02871,0.0937 v 1.51034 c 0,0.0399 0.01035,0.0719 0.03115,0.0961 0.0208,0.0225 0.05212,0.0338 0.09372,0.0338 h 0.140308 c 0.0416,0 0.07195,-0.0117 0.09101,-0.0338 0.0208,-0.0225 0.03115,-0.0536 0.03115,-0.0935 v -0.52791 c 0,-0.0311 0.008,-0.0528 0.02357,-0.065 0.0156,-0.0139 0.03895,-0.0207 0.07015,-0.0207 h 0.119451 c 0.02773,0 0.05136,0.005 0.07043,0.0155 0.0208,0.008 0.04318,0.0216 0.06745,0.039 l 0.897103,0.62136 c 0.03293,0.0225 0.05965,0.0392 0.08045,0.0496 0.02253,0.0105 0.05023,0.0155 0.08316,0.0155 h 0.163872 c 0.03293,0 0.05965,-0.008 0.08045,-0.026 0.02253,-0.0174 0.03386,-0.0407 0.03386,-0.0701 0,-0.0415 -0.0207,-0.0763 -0.0623,-0.10407 l -0.938545,-0.65251 c -0.01386,-0.008 -0.02351,-0.0174 -0.02871,-0.026 -0.0052,-0.0105 -0.0079,-0.0201 -0.0079,-0.0287 0,-0.0173 0.013,-0.0354 0.039,-0.0545 l 0.868392,-0.61107 c 0.03987,-0.0278 0.05986,-0.0624 0.05986,-0.10407 0,-0.0278 -0.01035,-0.0495 -0.03115,-0.065 -0.0208,-0.0174 -0.04849,-0.026 -0.08315,-0.026 h -0.140581 c -0.03293,0 -0.06062,0.006 -0.08315,0.0157 -0.0208,0.0105 -0.04752,0.0278 -0.08045,0.052 l -0.842388,0.5978 c -0.02427,0.0174 -0.04594,0.0296 -0.06501,0.0366 -0.01733,0.007 -0.03901,0.0105 -0.06501,0.0105 h -0.1327 c -0.0312,0 -0.05526,-0.006 -0.07259,-0.0181 -0.0156,-0.0139 -0.02356,-0.0365 -0.02356,-0.0678 v -0.49648 c 0,-0.0398 -0.01035,-0.0712 -0.03115,-0.0937 -0.01906,-0.0243 -0.04941,-0.0363 -0.09101,-0.0363 z m 2.835678,0 c -0.0416,0 -0.07265,0.0117 -0.09345,0.0338 -0.01906,0.0225 -0.02871,0.0539 -0.02871,0.0937 v 1.51034 c 0,0.0399 0.01035,0.0719 0.03115,0.0961 0.0208,0.0225 0.05212,0.0338 0.09372,0.0338 h 0.143017 c 0.03987,0 0.06924,-0.0117 0.0883,-0.0338 0.0208,-0.0225 0.03115,-0.0536 0.03115,-0.0935 v -1.51061 c 0,-0.0398 -0.01035,-0.0709 -0.03115,-0.0935 -0.0208,-0.0243 -0.05115,-0.0366 -0.09101,-0.0366 z m 1.361636,0 c -0.157727,0 -0.236735,0.0616 -0.236735,0.18472 v 1.45319 c 0,0.0399 0.01035,0.0719 0.03115,0.0961 0.0208,0.0225 0.05212,0.0338 0.09372,0.0338 h 0.13787 c 0.03987,0 0.06924,-0.0117 0.0883,-0.0338 0.0208,-0.0225 0.03115,-0.0536 0.03115,-0.0935 v -1.22213 c 0,-0.0174 0.0036,-0.0294 0.01056,-0.0363 0.0087,-0.007 0.01804,-0.0105 0.02844,-0.0105 0.0104,0 0.02004,0.005 0.02871,0.013 0.0087,0.007 0.01999,0.0183 0.03386,0.0338 l 1.086708,1.25545 c 0.02773,0.033 0.05613,0.0573 0.0856,0.0728 0.02946,0.0139 0.0668,0.0209 0.111871,0.0209 h 0.249737 c 0.157727,0 0.236465,-0.0617 0.236465,-0.18473 v -1.45319 c 0,-0.0398 -0.01038,-0.0712 -0.03115,-0.0937 -0.0208,-0.0243 -0.05115,-0.0363 -0.09101,-0.0363 h -0.137876 c -0.0416,0 -0.07265,0.0117 -0.09345,0.0338 -0.01906,0.0225 -0.02871,0.0536 -0.02871,0.0935 v 1.22458 c 0,0.0312 -0.01203,0.0469 -0.03629,0.0469 -0.01038,0 -0.02004,-0.004 -0.02871,-0.0105 -0.0086,-0.008 -0.01999,-0.021 -0.03386,-0.0366 l -1.089145,-1.25817 c -0.02773,-0.0329 -0.0564,-0.0566 -0.08586,-0.0705 -0.02947,-0.0155 -0.0668,-0.0232 -0.111868,-0.0232 z m 7.50836,0 c -0.105723,0 -0.187122,0.0226 -0.24432,0.0677 -0.0572,0.0433 -0.08587,0.11434 -0.08587,0.21317 v 1.3676 c 0,0.0797 0.04096,0.11944 0.122431,0.11944 h 0.140308 c 0.08146,0 0.122159,-0.0407 0.122159,-0.12215 v -0.48621 c 0,-0.0554 0.03202,-0.0832 0.09616,-0.0832 h 1.107565 c 0.08319,0 0.124867,-0.0373 0.124867,-0.11188 v -0.065 c 0,-0.0746 -0.04265,-0.11153 -0.127576,-0.11153 H 22.82828 c -0.06413,0 -0.09616,-0.0287 -0.09616,-0.0859 v -0.31203 c 0,-0.0572 0.0337,-0.0859 0.101302,-0.0859 h 1.164717 c 0.03986,0 0.07021,-0.009 0.09101,-0.0285 0.02253,-0.0191 0.03386,-0.0468 0.03386,-0.0832 v -0.0807 c 0,-0.0745 -0.04237,-0.11189 -0.127306,-0.11189 z m 2.279323,0 c -0.04159,0 -0.07265,0.0117 -0.09345,0.0338 -0.01906,0.0225 -0.02871,0.0539 -0.02871,0.0937 v 1.51034 c 0,0.0399 0.01038,0.0719 0.03115,0.0961 0.0208,0.0225 0.05213,0.0338 0.09372,0.0338 h 0.143016 c 0.03987,0 0.06924,-0.0117 0.08831,-0.0338 0.0208,-0.0225 0.03115,-0.0536 0.03115,-0.0935 v -1.51061 c 0,-0.0398 -0.01038,-0.0709 -0.03115,-0.0935 -0.0208,-0.0243 -0.05115,-0.0366 -0.09101,-0.0366 z m 1.361636,0 c -0.157726,0 -0.236735,0.0616 -0.236735,0.18472 v 1.45319 c 0,0.0399 0.01062,0.0719 0.03142,0.0961 0.0208,0.0225 0.05185,0.0338 0.09345,0.0338 h 0.13787 c 0.03987,0 0.06924,-0.0117 0.08831,-0.0338 0.0208,-0.0225 0.03115,-0.0536 0.03115,-0.0935 v -1.22213 c 0,-0.0174 0.0036,-0.0294 0.01062,-0.0363 0.0086,-0.007 0.01804,-0.0105 0.02844,-0.0105 0.01038,0 0.02004,0.005 0.02871,0.013 0.0086,0.007 0.02,0.0183 0.03386,0.0338 l 1.086708,1.25545 c 0.02773,0.033 0.0564,0.0573 0.08587,0.0728 0.02947,0.0139 0.06653,0.0209 0.111592,0.0209 h 0.249737 c 0.157726,0 0.236465,-0.0617 0.236465,-0.18473 v -1.45319 c 0,-0.0398 -0.01038,-0.0712 -0.03115,-0.0937 -0.0208,-0.0243 -0.05115,-0.0363 -0.09101,-0.0363 h -0.13787 c -0.04159,0 -0.07265,0.0117 -0.09345,0.0338 -0.01906,0.0225 -0.02871,0.0536 -0.02871,0.0935 v 1.22458 c 0,0.0312 -0.01203,0.0469 -0.03629,0.0469 -0.01038,0 -0.02004,-0.004 -0.02871,-0.0105 -0.0086,-0.008 -0.01998,-0.021 -0.03386,-0.0366 l -1.089146,-1.25817 c -0.02773,-0.0329 -0.0564,-0.0566 -0.08587,-0.0705 -0.02946,-0.0155 -0.0668,-0.0232 -0.111872,-0.0232 z m 2.999281,0 c -0.04159,0 -0.07265,0.0117 -0.09345,0.0338 -0.01906,0.0225 -0.02871,0.0539 -0.02871,0.0937 v 1.35973 c 0,0.0988 0.02867,0.17055 0.08587,0.21562 0.0572,0.0434 0.139566,0.065 0.247029,0.065 h 1.214013 c 0.03987,0 0.07021,-0.008 0.09101,-0.026 0.02253,-0.0191 0.03386,-0.0477 0.03386,-0.0859 v -0.0832 c 0,-0.0746 -0.04237,-0.11188 -0.127306,-0.11188 H 29.68684 c -0.06933,0 -0.104008,-0.0327 -0.104008,-0.0986 v -1.23242 c 0,-0.0399 -0.01038,-0.0709 -0.03115,-0.0935 -0.0208,-0.0243 -0.05115,-0.0366 -0.09101,-0.0366 z m 3.132005,0 c -0.03814,0 -0.06848,0.007 -0.09101,0.0209 -0.0208,0.0139 -0.04052,0.0382 -0.05959,0.0728 l -0.83995,1.49219 c -0.01734,0.0329 -0.02601,0.0616 -0.02601,0.0859 0,0.0642 0.03999,0.0961 0.119722,0.0961 h 0.132453 c 0.03986,0 0.06951,-0.008 0.08857,-0.0233 0.01907,-0.0174 0.04074,-0.0467 0.06501,-0.0883 l 0.104008,-0.18473 c 0.01386,-0.0225 0.02758,-0.0372 0.04144,-0.0441 0.01386,-0.008 0.03484,-0.013 0.06257,-0.013 h 1.083998 c 0.02773,0 0.04871,0.005 0.06257,0.013 0.01386,0.007 0.02758,0.0226 0.04144,0.0469 l 0.10157,0.18445 c 0.0208,0.0399 0.04052,0.0686 0.05959,0.0859 0.0208,0.0156 0.05115,0.0232 0.09101,0.0232 h 0.140579 c 0.03466,0 0.06306,-0.008 0.08559,-0.026 0.02253,-0.0174 0.03386,-0.0407 0.03386,-0.0701 0,-0.0294 -0.0086,-0.0588 -0.026,-0.0883 l -0.82424,-1.49246 c -0.01906,-0.0346 -0.03977,-0.058 -0.0623,-0.0701 -0.0208,-0.0139 -0.05115,-0.0209 -0.09101,-0.0209 z m 2.279323,0 c -0.157725,0 -0.236465,0.0616 -0.236465,0.18472 v 1.45319 c 0,0.0399 0.01038,0.0719 0.03115,0.0961 0.0208,0.0225 0.05185,0.0338 0.09345,0.0338 h 0.13787 c 0.03986,0 0.06951,-0.0117 0.08857,-0.0338 0.0208,-0.0225 0.03115,-0.0536 0.03115,-0.0935 v -1.22213 c 0,-0.0174 0.0034,-0.0294 0.01027,-0.0363 0.0086,-0.007 0.01832,-0.0105 0.02871,-0.0105 0.01038,0 0.01977,0.005 0.02844,0.013 0.0086,0.007 0.01998,0.0183 0.03386,0.0338 l 1.086707,1.25545 c 0.02773,0.033 0.0564,0.0573 0.08587,0.0728 0.02947,0.0139 0.0668,0.0209 0.111872,0.0209 H 36.5099 c 0.157725,0 0.236736,-0.0617 0.236736,-0.18473 v -1.45319 c 0,-0.0398 -0.01062,-0.0712 -0.03142,-0.0937 -0.0208,-0.0243 -0.05115,-0.0363 -0.09101,-0.0363 h -0.1376 c -0.04159,0 -0.07292,0.0117 -0.09372,0.0338 -0.01906,0.0225 -0.02844,0.0536 -0.02844,0.0935 v 1.22458 c 0,0.0312 -0.0123,0.0469 -0.03656,0.0469 -0.01038,0 -0.01978,-0.004 -0.02844,-0.0105 -0.0086,-0.008 -0.01998,-0.021 -0.03386,-0.0366 l -1.089415,-1.25817 c -0.02773,-0.0329 -0.0564,-0.0566 -0.08587,-0.0705 -0.02946,-0.0155 -0.06654,-0.0232 -0.111592,-0.0232 z m 3.207576,0 c -0.105723,0 -0.187394,0.0226 -0.244591,0.0677 -0.0572,0.0433 -0.08559,0.11434 -0.08559,0.21317 v 1.20644 c 0,0.0988 0.0284,0.17054 0.08559,0.21561 0.0572,0.0433 0.139566,0.065 0.247029,0.065 h 0.832096 c 0.162928,0 0.302359,-0.004 0.418486,-0.0105 0.11786,-0.008 0.21757,-0.0243 0.299034,-0.0469 0.08319,-0.0225 0.149904,-0.0528 0.20017,-0.091 0.05027,-0.0399 0.0883,-0.0919 0.114298,-0.15603 0.02773,-0.0642 0.04603,-0.14118 0.05472,-0.2313 0.01038,-0.0902 0.01573,-0.19754 0.01573,-0.32234 v -0.052 c 0,-0.12654 -0.0053,-0.23492 -0.01573,-0.32505 -0.0086,-0.0918 -0.027,-0.16989 -0.05472,-0.23402 -0.02773,-0.0642 -0.06674,-0.11515 -0.117012,-0.15331 -0.05026,-0.0399 -0.11599,-0.0702 -0.19746,-0.091 -0.08147,-0.0225 -0.181174,-0.0372 -0.299034,-0.0441 -0.117861,-0.007 -0.257292,-0.0105 -0.418486,-0.0105 z m -46.8159265,0.27818 h 0.8889772 c 0.1091885,0 0.1845738,0.0156 0.2261714,0.0469 0.041592,0.0311 0.062568,0.0909 0.062568,0.1793 0,0.0814 -0.020965,0.13978 -0.062568,0.17444 -0.039865,0.0329 -0.1065751,0.0492 -0.2001687,0.0492 h -0.9176889 c -0.064132,0 -0.096157,-0.0287 -0.096157,-0.0859 v -0.27818 c 0,-0.0312 0.0077,-0.0529 0.023298,-0.065 0.015598,-0.0139 0.040903,-0.0209 0.075565,-0.0209 z m 11.2766254,0 H 3.286503 c 0.1091954,0 0.1845737,0.0156 0.2261717,0.0469 0.041598,0.0311 0.062299,0.0909 0.062299,0.1793 0,0.0814 -0.020699,0.13978 -0.062299,0.17444 -0.039867,0.0329 -0.1065728,0.0492 -0.2001689,0.0492 H 2.3945466 c -0.064131,0 -0.096157,-0.0287 -0.096157,-0.0859 v -0.27818 c 0,-0.0312 0.00797,-0.0529 0.023565,-0.065 0.015598,-0.0139 0.040637,-0.0209 0.0753,-0.0209 z m -13.7612639,0.008 h 0.05201 c 0.171592,0 0.306688,0.006 0.405483,0.0157 0.09879,0.0105 0.173199,0.0355 0.223464,0.0753 0.05026,0.0399 0.08159,0.0996 0.09372,0.1793 0.01386,0.078 0.02086,0.1847 0.02086,0.31989 v 0.0131 c 0,0.13518 -0.007,0.24161 -0.02086,0.31962 -0.01213,0.0779 -0.04346,0.137 -0.09372,0.17686 -0.05026,0.0399 -0.124668,0.0649 -0.223464,0.0754 -0.09879,0.0105 -0.233891,0.0157 -0.405483,0.0157 h -0.05201 c -0.171593,0 -0.30696,-0.006 -0.405755,-0.0157 -0.09879,-0.0105 -0.173198,-0.0355 -0.223463,-0.0754 -0.05026,-0.0399 -0.08229,-0.0988 -0.09616,-0.17686 -0.01213,-0.0781 -0.01842,-0.18444 -0.01842,-0.31962 v -0.0131 c 0,-0.13519 0.0063,-0.2419 0.01842,-0.31989 0.01387,-0.0797 0.0459,-0.13944 0.09616,-0.1793 0.05026,-0.0398 0.124668,-0.0649 0.223463,-0.0753 0.09879,-0.0105 0.234162,-0.0157 0.405755,-0.0157 z m 6.619383,0.005 h 0.7045183 c 0.098796,0 0.1775343,0.004 0.236465,0.0105 0.060664,0.007 0.1076472,0.0206 0.1405783,0.0414 0.032933,0.0208 0.054608,0.0504 0.065008,0.0886 0.010395,0.0381 0.015436,0.0891 0.015436,0.15331 v 0.039 c 0,0.0554 -0.00602,0.1015 -0.018146,0.13787 -0.010395,0.0346 -0.032079,0.0624 -0.065007,0.0832 -0.031198,0.0208 -0.075256,0.0355 -0.1324528,0.0441 -0.057197,0.008 -0.1308962,0.013 -0.2210255,0.013 h -0.730792 c -0.064131,0 -0.096157,-0.0287 -0.096157,-0.0859 v -0.43934 c 0,-0.0572 0.033976,-0.0859 0.1015736,-0.0859 z m 3.4310391,0.006 c 0.013864,0 0.027575,0.012 0.04144,0.0363 l 0.37975209,0.72023 c 0.008668,0.0174 0.012999,0.0321 0.012999,0.0441 0,0.0278 -0.0192885,0.0418 -0.0574234,0.0418 H -1.7063445 c -0.036398,0 -0.054444,-0.0131 -0.054444,-0.039 0,-0.0121 0.00503,-0.0278 0.015442,-0.0469 l 0.3900443,-0.72294 c 0.010395,-0.0225 0.024379,-0.0336 0.041712,-0.0336 z m 7.1521738,0 c 0.013864,0 0.027848,0.012 0.041712,0.0363 L 6.25978,114.2029 c 0.00867,0.0174 0.012999,0.0321 0.012999,0.0441 0,0.0278 -0.019021,0.0418 -0.057153,0.0418 H 5.4461041 c -0.036397,0 -0.054714,-0.0131 -0.054714,-0.039 0,-0.0121 0.00531,-0.0278 0.015709,-0.0469 l 0.3900449,-0.72294 c 0.0104,-0.0225 0.024111,-0.0336 0.04144,-0.0336 z m 26.7567951,0 c 0.01386,0 0.02785,0.012 0.04171,0.0363 l 0.379481,0.72023 c 0.0086,0.0174 0.013,0.0321 0.013,0.0441 0,0.0278 -0.01902,0.0418 -0.05715,0.0418 h -0.769526 c -0.0364,0 -0.05472,-0.0131 -0.05472,-0.039 0,-0.0121 0.0054,-0.0278 0.0157,-0.0469 l 0.389774,-0.72294 c 0.01038,-0.0225 0.02437,-0.0336 0.04171,-0.0336 z m 5.49963,0.006 h 0.644928 c 0.171592,0 0.306693,0.005 0.405485,0.0154 0.09879,0.0105 0.173197,0.0348 0.223464,0.0728 0.052,0.0382 0.0843,0.0945 0.09642,0.16903 0.01388,0.0746 0.0206,0.17689 0.0206,0.30688 v 0.0311 c 0,0.12479 -0.0068,0.2245 -0.0206,0.29904 -0.01216,0.0746 -0.04346,0.13158 -0.09372,0.17145 -0.04853,0.0382 -0.122936,0.0631 -0.223469,0.0752 -0.09879,0.0121 -0.234863,0.0184 -0.40819,0.0184 h -0.644928 c -0.0676,0 -0.101301,-0.0303 -0.101301,-0.091 v -0.98291 c 0,-0.0311 0.0077,-0.0526 0.0233,-0.0647 0.01734,-0.0139 0.04334,-0.0209 0.078,-0.0209 z m -46.9770915,0.68881 h 0.9464006 c 0.055463,0 0.1014768,0.004 0.1378698,0.0105 0.038138,0.007 0.068483,0.0199 0.091012,0.039 0.022528,0.0173 0.037917,0.0423 0.046585,0.0752 0.010383,0.0312 0.015715,0.0719 0.015715,0.12216 0,0.0468 -0.00432,0.0859 -0.013008,0.11702 -0.00863,0.0311 -0.025037,0.0562 -0.049292,0.0752 -0.024267,0.019 -0.057272,0.033 -0.098863,0.0418 -0.041603,0.007 -0.096273,0.0105 -0.1638736,0.0105 h -0.909828 c -0.0364,0 -0.062405,-0.007 -0.078003,-0.0207 -0.01386,-0.0156 -0.02086,-0.0383 -0.02086,-0.0677 v -0.32233 c 0,-0.0538 0.032025,-0.0807 0.096157,-0.0807 z m 11.2766261,0 h 0.9463999 c 0.055463,0 0.101472,0.004 0.1378698,0.0105 0.038133,0.007 0.068479,0.0199 0.091011,0.039 0.022533,0.0173 0.038195,0.0423 0.046859,0.0752 0.0104,0.0312 0.015442,0.0719 0.015442,0.12216 0,0.0468 -0.00435,0.0859 -0.013004,0.11702 -0.00866,0.0311 -0.025034,0.0562 -0.049297,0.0752 -0.024268,0.019 -0.057267,0.033 -0.098866,0.0418 -0.041596,0.007 -0.096005,0.0105 -0.1636023,0.0105 H 2.3972548 c -0.036398,0 -0.06241,-0.007 -0.078009,-0.0207 -0.013863,-0.0156 -0.020856,-0.0383 -0.020856,-0.0677 v -0.32233 c 0,-0.0538 0.032026,-0.0807 0.096157,-0.0807 z" />
  </g>
</svg>
