<?xml version="1.0" encoding="UTF-8" standalone="no"?>
<!-- Created with Inkscape (http://www.inkscape.org/) -->

<svg
   width="100mm"
   height="100mm"
   viewBox="0 0 100 100"
   version="1.1"
   id="svg1"
   inkscape:version="1.4 (e7c3feb100, 2024-10-09)"
   sodipodi:docname="moppepay.svg"
   xmlns:inkscape="http://www.inkscape.org/namespaces/inkscape"
   xmlns:sodipodi="http://sodipodi.sourceforge.net/DTD/sodipodi-0.dtd"
   xmlns="http://www.w3.org/2000/svg"
   xmlns:svg="http://www.w3.org/2000/svg">
  <sodipodi:namedview
     id="namedview1"
     pagecolor="#ffffff"
     bordercolor="#000000"
     borderopacity="0.25"
     inkscape:showpageshadow="2"
     inkscape:pageopacity="0.0"
     inkscape:pagecheckerboard="0"
     inkscape:deskcolor="#d1d1d1"
     inkscape:document-units="mm"
     inkscape:zoom="1.1754936"
     inkscape:cx="170.56665"
     inkscape:cy="149.29898"
     inkscape:window-width="1440"
     inkscape:window-height="828"
     inkscape:window-x="0"
     inkscape:window-y="0"
     inkscape:window-maximized="1"
     inkscape:current-layer="layer1"
     showguides="false" />
  <defs
     id="defs1" />
  <g
     inkscape:label="Taso 1"
     inkscape:groupmode="layer"
     id="layer1"
     transform="translate(16.100346,-77.232921)">
    <path
       id="path73"
       style="-inkscape-font-specification:'Newcastle-BasicClean Ultra-Condensed';stroke-width:0.206828"
       d="m 23.289189,150.83993 -1.966139,6.7e-4 c -0.157673,0 -0.278676,0.0338 -0.363979,0.10098 -0.0853,0.0646 -0.128539,0.17066 -0.128539,0.31807 v 2.03958 c 0,0.11891 0.06146,0.17773 0.182972,0.17773 h 0.209206 c 0.12149,0 0.182318,-0.0603 0.182318,-0.18166 v -0.72533 c 0,-0.0826 0.04731,-0.12399 0.142967,-0.12399 h 1.652004 c 0.124065,0 0.186252,-0.056 0.186252,-0.16723 v -0.0971 c 0,-0.1113 -0.06353,-0.16592 -0.190188,-0.16592 h -1.648068 c -0.09564,0 -0.142967,-0.0431 -0.142967,-0.12854 v -0.46499 c 0,-0.0853 0.05001,-0.12853 0.150837,-0.12853 h 1.73726 c 0.05944,0 0.104724,-0.013 0.135753,-0.042 0.03361,-0.0286 0.0505,-0.0703 0.0505,-0.12462 v -0.12006 c 0,-0.11117 -0.06352,-0.16723 -0.190189,-0.16723 z m 1.646758,0 -0.213142,6.7e-4 c -0.06202,0 -0.108672,0.0176 -0.139689,0.0505 -0.02841,0.0334 -0.04263,0.0804 -0.04263,0.13969 v 2.25273 c 0,0.0595 0.01558,0.10684 0.04656,0.14297 0.03102,0.0336 0.07767,0.0505 0.139688,0.0505 h 0.21314 c 0.05946,0 0.103367,-0.0175 0.13182,-0.0505 0.03102,-0.0336 0.04656,-0.0796 0.04656,-0.13905 v -2.25338 c 0,-0.0594 -0.01558,-0.10533 -0.04656,-0.13902 -0.03102,-0.0362 -0.0763,-0.0551 -0.135754,-0.0551 z m 2.189117,0 -0.371847,6.7e-4 c -0.235229,0 -0.352832,0.0918 -0.352832,0.27545 v 2.16746 c 0,0.0595 0.01553,0.10685 0.04656,0.14298 0.03102,0.0335 0.07765,0.0505 0.139689,0.0505 h 0.205272 c 0.05947,0 0.103367,-0.0176 0.131818,-0.0505 0.03102,-0.0336 0.04656,-0.0796 0.04656,-0.13905 v -1.82251 c 0,-0.026 0.0052,-0.044 0.01574,-0.0544 0.01287,-0.0104 0.02713,-0.0158 0.04263,-0.0158 0.01548,0 0.02969,0.007 0.04263,0.0196 0.01287,0.0104 0.02983,0.0275 0.0505,0.0505 l 1.620525,1.8717 c 0.04136,0.0492 0.08394,0.0857 0.127884,0.10888 0.04397,0.0208 0.09937,0.0315 0.166577,0.0315 h 0.372504 c 0.235229,0 0.352829,-0.092 0.352829,-0.27544 v -2.16749 c 0,-0.0594 -0.01558,-0.10622 -0.04656,-0.13968 -0.03102,-0.0361 -0.07632,-0.0544 -0.135753,-0.0544 h -0.205268 c -0.06202,0 -0.108671,0.0176 -0.139689,0.0505 -0.02842,0.0334 -0.04263,0.0802 -0.04263,0.1397 v 1.82645 c 0,0.0465 -0.01823,0.0695 -0.05443,0.0695 -0.01548,0 -0.02968,-0.005 -0.04263,-0.0158 -0.01287,-0.0127 -0.0298,-0.0312 -0.0505,-0.0544 l -1.624458,-1.87629 c -0.04136,-0.0491 -0.08392,-0.0844 -0.127884,-0.10495 -0.04393,-0.0231 -0.100012,-0.0348 -0.167235,-0.0348 z m 12.543813,0 -0.372504,6.7e-4 c -0.235227,0 -0.352173,0.0918 -0.352173,0.27545 v 2.16746 c 0,0.0595 0.01493,0.10685 0.0459,0.14298 0.03102,0.0335 0.07766,0.0505 0.139689,0.0505 h 0.205271 c 0.05944,0 0.104039,-0.0176 0.132476,-0.0505 0.03101,-0.0336 0.04656,-0.0796 0.04656,-0.13905 v -1.82251 c 0,-0.026 0.0048,-0.044 0.01507,-0.0544 0.01287,-0.0104 0.02714,-0.0158 0.04263,-0.0158 0.01548,0 0.02971,0.007 0.04263,0.0196 0.01287,0.0104 0.0298,0.0275 0.0505,0.0505 l 1.620523,1.8717 c 0.04136,0.0492 0.0846,0.0857 0.128541,0.10888 0.04397,0.0208 0.09936,0.0315 0.166577,0.0315 h 0.371848 c 0.235226,0 0.353486,-0.092 0.353486,-0.27544 v -2.16749 c 0,-0.0594 -0.0162,-0.10622 -0.04723,-0.13968 -0.03102,-0.0361 -0.0763,-0.0544 -0.135755,-0.0544 h -0.205271 c -0.06202,0 -0.108684,0.0176 -0.139689,0.0505 -0.02842,0.0334 -0.04197,0.0802 -0.04197,0.1397 v 1.82645 c 0,0.0465 -0.01891,0.0695 -0.05509,0.0695 -0.01548,0 -0.02906,-0.005 -0.04197,-0.0158 -0.01287,-0.0127 -0.0298,-0.0312 -0.0505,-0.0544 l -1.625115,-1.87629 c -0.04136,-0.0491 -0.08392,-0.0844 -0.127884,-0.10495 -0.04393,-0.0231 -0.09938,-0.0348 -0.166578,-0.0348 z m 5.655766,0 -1.244084,6.7e-4 c -0.157672,0 -0.279989,0.0338 -0.365291,0.10098 -0.0853,0.0646 -0.127227,0.17066 -0.127227,0.31807 v 1.7989 c 0,0.14734 0.04194,0.25479 0.127227,0.32201 0.08531,0.0646 0.208304,0.0964 0.36857,0.0964 h 1.240805 c 0.242987,0 0.45115,-0.005 0.624337,-0.0157 0.175774,-0.0127 0.324463,-0.0358 0.445957,-0.0695 0.124065,-0.0336 0.223431,-0.0789 0.298397,-0.13576 0.07498,-0.0595 0.13174,-0.13716 0.170512,-0.23281 0.04136,-0.0957 0.069,-0.21057 0.08197,-0.34497 0.01548,-0.13452 0.02296,-0.29459 0.02296,-0.48072 v -0.0774 c 0,-0.18874 -0.0074,-0.35087 -0.02296,-0.4853 -0.01287,-0.13691 -0.04062,-0.25325 -0.08197,-0.3489 -0.04136,-0.0957 -0.09947,-0.17134 -0.174449,-0.22824 -0.07497,-0.0595 -0.172959,-0.10469 -0.29446,-0.13575 -0.121503,-0.0335 -0.270185,-0.0558 -0.445957,-0.0663 -0.175776,-0.0104 -0.383937,-0.0157 -0.624337,-0.0157 z m -14.098098,6.7e-4 c -0.06202,0 -0.108672,0.0176 -0.13969,0.0505 -0.02841,0.0334 -0.04263,0.0804 -0.04263,0.13969 v 2.02778 c 0,0.14736 0.04257,0.25414 0.127884,0.32135 0.08531,0.0647 0.2083,0.0971 0.368569,0.0971 h 1.81071 c 0.05946,0 0.104738,-0.0127 0.135756,-0.0388 0.03361,-0.0286 0.0505,-0.071 0.0505,-0.12789 v -0.12399 c 0,-0.11129 -0.06352,-0.16722 -0.190187,-0.16722 h -1.570683 c -0.103389,0 -0.154772,-0.0487 -0.154772,-0.14691 v -1.83825 c 0,-0.0595 -0.01558,-0.10533 -0.04656,-0.13903 -0.03102,-0.0362 -0.07632,-0.0544 -0.135754,-0.0544 z m 4.670729,0 c -0.05688,0 -0.102162,0.0104 -0.135756,0.0315 -0.03101,0.0208 -0.06009,0.0567 -0.08853,0.10825 l -1.253265,2.22518 c -0.02587,0.0491 -0.0387,0.0923 -0.0387,0.12854 0,0.0957 0.06012,0.14297 0.179038,0.14297 h 0.197401 c 0.05945,0 0.103388,-0.0127 0.13182,-0.0348 0.02844,-0.026 0.06087,-0.0692 0.09706,-0.13115 l 0.155429,-0.27545 c 0.02067,-0.0336 0.04099,-0.0559 0.06166,-0.0663 0.02067,-0.0127 0.05177,-0.019 0.09312,-0.019 h 1.61659 c 0.04136,0 0.07245,0.007 0.09313,0.019 0.02067,0.0104 0.04164,0.0339 0.0623,0.0701 l 0.151492,0.27479 c 0.03102,0.0595 0.06009,0.10264 0.08853,0.12855 0.03102,0.0233 0.0763,0.0342 0.135754,0.0342 h 0.209862 c 0.05169,0 0.09363,-0.0127 0.127227,-0.0388 0.03361,-0.026 0.0505,-0.0606 0.0505,-0.10432 0,-0.0437 -0.01278,-0.0878 -0.0387,-0.13181 l -1.229001,-2.22583 c -0.02842,-0.0516 -0.05953,-0.0862 -0.09312,-0.10433 -0.03102,-0.0208 -0.0763,-0.0315 -0.135754,-0.0315 z m 0.217076,0.44333 c 0.02067,0 0.04163,0.0182 0.0623,0.0544 l 0.56597,1.07357 c 0.01287,0.026 0.01968,0.0482 0.01968,0.0663 0,0.0413 -0.02839,0.0623 -0.08526,0.0623 h -1.14768 c -0.05429,0 -0.08198,-0.0197 -0.08198,-0.0584 0,-0.0182 0.0082,-0.041 0.0236,-0.0695 l 0.581053,-1.07816 c 0.01548,-0.0336 0.03644,-0.0505 0.0623,-0.0505 z m 8.202303,0.009 v 6.4e-4 h 0.962083 c 0.255907,0 0.457327,0.007 0.604664,0.023 0.147333,0.0157 0.258189,0.0515 0.333154,0.10825 0.07755,0.0569 0.12555,0.14133 0.143625,0.25249 0.0207,0.11129 0.03082,0.26323 0.03082,0.45709 v 0.0465 c 0,0.18611 -0.01028,0.33479 -0.03082,0.44596 -0.01814,0.1113 -0.06472,0.19633 -0.139689,0.25577 -0.07238,0.057 -0.183222,0.0942 -0.333154,0.11219 -0.147333,0.0182 -0.350104,0.0275 -0.608599,0.0275 h -0.962084 c -0.100812,0 -0.150839,-0.0452 -0.150839,-0.13575 v -1.46576 c 0,-0.0463 0.01155,-0.0789 0.03476,-0.097 0.02587,-0.0208 0.06439,-0.0308 0.116084,-0.0308 z" />
    <path
       id="path66"
       style="-inkscape-font-specification:'Newcastle-BasicClean Ultra-Condensed';stroke-width:0.206828"
       d="m 13.873949,145.65767 c -0.242982,0 -0.453848,0.007 -0.632208,0.0196 -0.175775,0.0104 -0.325158,0.0328 -0.449234,0.0663 -0.121502,0.031 -0.221506,0.0774 -0.299053,0.13969 -0.07755,0.0595 -0.13838,0.13791 -0.182317,0.23608 -0.04136,0.0957 -0.06975,0.21326 -0.08526,0.35284 -0.01548,0.1396 -0.02296,0.30515 -0.02296,0.49645 v 0.0544 c 0,0.19127 0.0074,0.35688 0.02296,0.49646 0.01548,0.1396 0.0439,0.25853 0.08526,0.35676 0.04395,0.0957 0.104763,0.17264 0.182317,0.23215 0.07755,0.0594 0.17756,0.10623 0.299053,0.13969 0.124065,0.0335 0.273459,0.0552 0.449234,0.0657 0.17836,0.0127 0.389226,0.0196 0.632208,0.0196 h 0.11673 c 0.242982,0 0.451841,-0.007 0.627617,-0.0196 0.178358,-0.0104 0.328397,-0.0308 0.44989,-0.0617 0.124066,-0.0336 0.224783,-0.0804 0.302331,-0.13969 0.07755,-0.062 0.137027,-0.14042 0.178383,-0.23608 0.04394,-0.0981 0.07369,-0.21717 0.08919,-0.35677 0.01548,-0.13959 0.02296,-0.30515 0.02296,-0.49646 v -0.0544 c 0,-0.19129 -0.0074,-0.35684 -0.02296,-0.49645 -0.01548,-0.13959 -0.04524,-0.25719 -0.08919,-0.35283 -0.04136,-0.0981 -0.100843,-0.17663 -0.178383,-0.23609 -0.07755,-0.0622 -0.178254,-0.10863 -0.302331,-0.13968 -0.121501,-0.0336 -0.271532,-0.0559 -0.44989,-0.0663 -0.175776,-0.0127 -0.384635,-0.0196 -0.627617,-0.0196 z m 45.424512,0 c -0.338626,0 -0.613709,0.016 -0.825673,0.0473 -0.209379,0.031 -0.372917,0.0925 -0.48924,0.18558 -0.116311,0.0905 -0.194737,0.22157 -0.236094,0.39219 -0.03876,0.16808 -0.05836,0.38905 -0.05836,0.66304 v 0.11218 c 0,0.27143 0.01959,0.4911 0.05836,0.65909 0.04136,0.16808 0.119789,0.29715 0.236094,0.3876 0.116312,0.0905 0.279861,0.15135 0.48924,0.18232 0.211964,0.031 0.489093,0.0465 0.832888,0.0465 h 0.314136 c 0.31019,0 0.554841,-0.0136 0.733202,-0.0426 0.180946,-0.0283 0.316789,-0.0778 0.407264,-0.14755 0.09049,-0.0698 0.147249,-0.16375 0.170512,-0.28267 0.02587,-0.11891 0.0387,-0.26894 0.0387,-0.44988 v -0.26759 c 0,-0.0957 -0.02703,-0.16652 -0.08132,-0.21313 -0.05169,-0.0491 -0.139564,-0.0735 -0.263639,-0.0735 H 59.38307 c -0.05429,0 -0.09754,0.0127 -0.131164,0.0388 -0.03361,0.026 -0.0505,0.067 -0.0505,0.12399 v 0.0735 c 0,0.0594 0.01688,0.10254 0.0505,0.12854 0.03361,0.0231 0.07888,0.0348 0.135754,0.0348 h 0.910931 c 0.07238,0 0.108214,0.0304 0.108214,0.0926 v 0.19019 c 0,0.0803 -0.0061,0.14503 -0.01902,0.19411 -0.01287,0.0464 -0.04807,0.0825 -0.104928,0.10825 -0.05429,0.0233 -0.136747,0.0395 -0.247899,0.0472 -0.111159,0.007 -0.264584,0.0127 -0.461041,0.0127 h -0.268228 c -0.240399,0 -0.430317,-0.007 -0.569905,-0.023 -0.136996,-0.0182 -0.239754,-0.0559 -0.309545,-0.11282 -0.06979,-0.0594 -0.114383,-0.14321 -0.132476,-0.25183 -0.01809,-0.11131 -0.0269,-0.25982 -0.0269,-0.44596 v -0.10825 c 0,-0.1887 0.009,-0.33941 0.0269,-0.45054 0.01809,-0.11383 0.0627,-0.19825 0.132476,-0.25512 0.0698,-0.0594 0.172538,-0.0975 0.309545,-0.11282 0.139593,-0.0182 0.329506,-0.0269 0.569905,-0.0269 h 1.38115 c 0.05429,0 0.09754,-0.0127 0.131163,-0.0387 0.03361,-0.0286 0.0505,-0.0682 0.0505,-0.12005 v -0.0505 c 0,-0.0491 -0.01143,-0.0893 -0.03476,-0.12069 -0.02067,-0.0335 -0.06598,-0.0594 -0.135755,-0.0774 -0.06978,-0.0182 -0.170493,-0.0302 -0.302331,-0.0354 -0.131838,-0.007 -0.308909,-0.0127 -0.531212,-0.0127 z m -13.94595,0.019 c -0.06203,0 -0.108683,0.0176 -0.139689,0.0505 -0.02842,0.0336 -0.04262,0.0802 -0.04262,0.13969 v 1.82645 c 0,0.0465 -0.01823,0.0695 -0.05443,0.0695 -0.0155,0 -0.02969,-0.005 -0.04263,-0.0157 -0.01287,-0.0127 -0.02983,-0.0303 -0.0505,-0.0538 l -1.624469,-1.8769 c -0.04136,-0.0491 -0.08394,-0.0835 -0.127884,-0.10431 -0.04393,-0.0233 -0.09937,-0.0348 -0.166578,-0.0348 h -0.372504 c -0.235229,0 -0.352829,0.0918 -0.352829,0.27545 v 2.16747 c 0,0.0595 0.01553,0.10686 0.04656,0.14297 0.03102,0.0334 0.07766,0.0505 0.13969,0.0505 h 0.20527 c 0.05945,0 0.103388,-0.0176 0.13182,-0.0505 0.03102,-0.0336 0.04656,-0.0796 0.04656,-0.13904 v -1.82252 c 0,-0.026 0.0053,-0.044 0.01574,-0.0544 0.01287,-0.0104 0.02712,-0.0158 0.04262,-0.0158 0.01551,0 0.02969,0.007 0.04263,0.0196 0.01287,0.0104 0.02981,0.0275 0.0505,0.0505 l 1.620524,1.8717 c 0.04136,0.0493 0.08394,0.0857 0.127885,0.1089 0.04393,0.0208 0.09937,0.0315 0.166577,0.0315 h 0.372505 c 0.235228,0 0.352829,-0.0921 0.352829,-0.27544 v -2.16748 c 0,-0.0594 -0.01553,-0.10622 -0.04656,-0.13969 -0.03102,-0.0362 -0.0763,-0.0544 -0.135754,-0.0544 z m 6.294533,0 -0.213797,6.6e-4 c -0.06203,0 -0.108024,0.0175 -0.139033,0.0505 -0.02841,0.0336 -0.04329,0.0804 -0.04329,0.13969 v 2.25273 c 0,0.0595 0.01553,0.10686 0.04656,0.14297 0.03102,0.0336 0.07765,0.0505 0.139688,0.0505 h 0.213798 c 0.05946,0 0.102723,-0.0176 0.131162,-0.0505 0.03102,-0.0336 0.04656,-0.0796 0.04656,-0.13904 v -2.25339 c 0,-0.0594 -0.01553,-0.10534 -0.04656,-0.13903 -0.03102,-0.0361 -0.07565,-0.0551 -0.135098,-0.0551 z m 2.189117,0 -0.371848,6.6e-4 c -0.23523,0 -0.353486,0.0918 -0.353486,0.27544 v 2.16747 c 0,0.0595 0.01553,0.10685 0.04656,0.14297 0.03101,0.0336 0.07766,0.0505 0.139689,0.0505 h 0.205926 c 0.05948,0 0.103378,-0.0176 0.131821,-0.0505 0.03102,-0.0336 0.04656,-0.0796 0.04656,-0.13904 v -1.82251 c 0,-0.026 0.0053,-0.044 0.01574,-0.0544 0.01301,-0.0104 0.02646,-0.0157 0.04197,-0.0157 0.01551,0 0.03036,0.007 0.04329,0.0196 0.01301,0.0104 0.0298,0.0275 0.0505,0.0505 l 1.620524,1.8717 c 0.04136,0.0492 0.08328,0.0857 0.127228,0.10888 0.04393,0.0208 0.100012,0.0315 0.167233,0.0315 h 0.372504 c 0.23523,0 0.352175,-0.092 0.352175,-0.27544 v -2.16747 c 0,-0.0594 -0.01493,-0.10623 -0.0459,-0.1397 -0.03102,-0.0361 -0.07632,-0.0544 -0.135753,-0.0544 h -0.205927 c -0.06203,0 -0.108024,0.0176 -0.139033,0.0505 -0.02842,0.0336 -0.04329,0.0802 -0.04329,0.13969 v 1.82645 c 0,0.0465 -0.01758,0.0695 -0.05377,0.0695 -0.01548,0 -0.03035,-0.005 -0.04329,-0.0157 -0.01287,-0.0127 -0.02982,-0.0313 -0.0505,-0.0544 l -1.623802,-1.87628 c -0.04136,-0.0491 -0.08461,-0.0844 -0.128541,-0.10496 -0.04397,-0.0231 -0.09936,-0.0348 -0.166576,-0.0348 z m -46.6535137,6.6e-4 c -0.2352282,0 -0.3528296,0.0918 -0.3528296,0.27544 v 2.16747 c 0,0.0595 0.015587,0.10685 0.046563,0.14297 0.03102,0.0336 0.077663,0.0505 0.1396889,0.0505 h 0.201336 c 0.059445,0 0.1033781,-0.0176 0.1318192,-0.0505 0.031021,-0.0362 0.047219,-0.0834 0.047219,-0.14297 v -1.79562 c 0,-0.026 0.00483,-0.0434 0.015084,-0.0538 0.012829,-0.0104 0.027134,-0.0158 0.042628,-0.0158 0.025862,0 0.054235,0.0259 0.085256,0.0774 l 1.043405,1.82645 c 0.031021,0.0516 0.060109,0.0909 0.088535,0.11676 0.031021,0.026 0.073598,0.0387 0.1278843,0.0387 h 0.2019916 c 0.056867,0 0.1007996,-0.0127 0.1318192,-0.0387 0.033601,-0.026 0.06604,-0.0664 0.097061,-0.12069 l 1.0466841,-1.8258 c 0.02843,-0.0491 0.05683,-0.0741 0.08526,-0.0741 0.01548,0 0.02835,0.007 0.03869,0.0196 0.01283,0.0104 0.01967,0.0286 0.01967,0.0544 v 1.79497 c 0,0.0594 0.01555,0.1061 0.04656,0.13968 0.03102,0.0336 0.07631,0.0499 0.135755,0.0499 h 0.205271 c 0.05944,0 0.103392,-0.0168 0.131818,-0.0499 0.03102,-0.0335 0.04656,-0.0803 0.04656,-0.13968 v -2.1714 c 0,-0.18353 -0.117606,-0.27545 -0.35283,-0.27545 h -0.3607 c -0.08271,0 -0.146942,0.0139 -0.193465,0.0433 -0.04395,0.026 -0.084496,0.0705 -0.1206647,0.1351 l -0.9732324,1.77202 c -0.02067,0.0387 -0.042315,0.0584 -0.065581,0.0584 -0.023267,0 -0.046907,-0.0202 -0.070173,-0.0617 l -0.9883088,-1.76472 c -0.036195,-0.0646 -0.078059,-0.11117 -0.1246049,-0.1397 -0.04395,-0.0286 -0.1068112,-0.0427 -0.1895311,-0.0427 z m 10.1874627,0 c -0.157673,0 -0.279334,0.0338 -0.364634,0.10097 -0.08531,0.0646 -0.127885,0.17067 -0.127885,0.31808 v 1.79889 c 0,0.14735 0.04257,0.2548 0.127885,0.32201 0.08531,0.0646 0.208303,0.0964 0.368567,0.0964 h 1.678893 c 0.175774,0 0.323114,-0.0127 0.442021,-0.0342 0.121476,-0.0234 0.2195,-0.0639 0.294462,-0.12069 0.07497,-0.0595 0.1297,-0.13719 0.163297,-0.23282 0.0336,-0.0957 0.0505,-0.21728 0.0505,-0.36463 0,-0.16284 -0.02635,-0.28654 -0.07805,-0.37185 -0.04912,-0.0853 -0.128192,-0.15283 -0.236751,-0.20199 -0.04912,-0.0208 -0.07346,-0.0432 -0.07346,-0.0689 0,-0.0127 0.0055,-0.0251 0.01574,-0.0354 0.01287,-0.0104 0.03458,-0.0259 0.06558,-0.0465 0.07497,-0.0491 0.129681,-0.1113 0.163298,-0.18625 0.03619,-0.0775 0.05377,-0.18435 0.05377,-0.32135 0,-0.12411 -0.01688,-0.22748 -0.0505,-0.31019 -0.03103,-0.0828 -0.08509,-0.14897 -0.162644,-0.19806 -0.07754,-0.0516 -0.180954,-0.0875 -0.3102,-0.10825 -0.129244,-0.0231 -0.29078,-0.0354 -0.484649,-0.0354 z m 3.992614,0 c -0.06203,0 -0.108672,0.0175 -0.13969,0.0505 -0.02842,0.0336 -0.04263,0.0804 -0.04263,0.13969 v 2.25273 c 0,0.0595 0.01554,0.10686 0.04656,0.14297 0.03102,0.0336 0.07765,0.0505 0.139689,0.0505 h 0.213141 c 0.05946,0 0.103378,-0.0176 0.131819,-0.0505 0.03102,-0.0336 0.04656,-0.0796 0.04656,-0.13904 v -2.25339 c 0,-0.0594 -0.01554,-0.10622 -0.04656,-0.13969 -0.03102,-0.0362 -0.07629,-0.0538 -0.135754,-0.0538 z m 2.170099,0 c -0.15768,0 -0.279332,0.0338 -0.364635,0.10097 -0.08531,0.0646 -0.127884,0.17067 -0.127884,0.31808 v 2.02778 c 0,0.0594 0.01554,0.10533 0.04656,0.13904 0.03102,0.0336 0.0763,0.0505 0.135754,0.0505 h 0.209206 c 0.06203,0 0.107326,-0.0176 0.135754,-0.0505 0.03102,-0.0336 0.04656,-0.0796 0.04656,-0.13904 v -0.55088 c 0,-0.0826 0.04732,-0.12399 0.142968,-0.12399 h 0.92339 c 0.183531,0 0.32952,0.007 0.438086,0.023 0.10857,0.0127 0.191032,0.0411 0.2479,0.0853 0.05687,0.0413 0.09335,0.10347 0.108861,0.18625 0.0181,0.0803 0.0269,0.18624 0.0269,0.31807 v 0.0623 c 0,0.0594 0.01421,0.10597 0.04263,0.13969 0.03102,0.0335 0.0763,0.0499 0.135755,0.0499 h 0.21314 c 0.06203,0 0.107313,-0.0169 0.135754,-0.0499 0.03102,-0.0336 0.04656,-0.0802 0.04656,-0.13969 v -0.21315 c 0,-0.10584 -0.0068,-0.19519 -0.01968,-0.26757 -0.01287,-0.075 -0.03186,-0.13707 -0.05771,-0.18625 -0.02584,-0.0491 -0.05964,-0.0896 -0.100989,-0.12069 -0.03877,-0.031 -0.08609,-0.0574 -0.142968,-0.0807 -0.02584,-0.0127 -0.04544,-0.0236 -0.05836,-0.0315 -0.01028,-0.0104 -0.01574,-0.0233 -0.01574,-0.0387 0,-0.0127 0.0053,-0.0244 0.01574,-0.0348 0.01287,-0.0127 0.03592,-0.0271 0.06952,-0.0426 0.0517,-0.026 0.09698,-0.0557 0.135755,-0.0892 0.03878,-0.0336 0.07119,-0.072 0.09706,-0.11613 0.02842,-0.0464 0.04938,-0.0994 0.0623,-0.15871 0.01287,-0.0595 0.01902,-0.12968 0.01902,-0.20985 v -0.078 c 0,-0.15503 -0.01553,-0.28149 -0.04656,-0.37972 -0.02842,-0.10066 -0.08252,-0.18054 -0.162642,-0.24003 -0.07755,-0.0595 -0.185006,-0.10046 -0.322007,-0.12399 -0.134415,-0.0231 -0.306093,-0.0354 -0.515471,-0.0354 z m 5.132424,0 c -0.05687,0 -0.102163,0.0104 -0.135754,0.0315 -0.03102,0.0208 -0.06075,0.0567 -0.08919,0.10825 l -1.252611,2.22519 c -0.02584,0.0491 -0.0387,0.0923 -0.0387,0.12853 0,0.0957 0.05946,0.14297 0.178383,0.14297 h 0.1974 c 0.05945,0 0.103378,-0.0127 0.131818,-0.0348 0.02842,-0.026 0.06087,-0.0698 0.09706,-0.13181 l 0.155429,-0.27478 c 0.02068,-0.0336 0.04162,-0.0559 0.0623,-0.0663 0.02068,-0.0127 0.0511,-0.019 0.09247,-0.019 h 1.617246 c 0.04136,0 0.07244,0.007 0.09312,0.019 0.02067,0.0104 0.04096,0.0339 0.06166,0.0701 l 0.151495,0.27478 c 0.03102,0.0595 0.06075,0.10264 0.08919,0.12855 0.03102,0.0234 0.07629,0.0342 0.135753,0.0342 h 0.209206 c 0.0517,0 0.09428,-0.0127 0.127884,-0.0388 0.03361,-0.026 0.0505,-0.0606 0.0505,-0.10431 0,-0.0437 -0.01278,-0.0878 -0.0387,-0.13182 l -1.229002,-2.22584 c -0.02842,-0.0516 -0.05952,-0.0861 -0.09312,-0.10432 -0.03102,-0.0208 -0.0763,-0.0315 -0.135756,-0.0315 z m 5.522635,0 c -0.157683,0 -0.278677,0.0338 -0.363978,0.10097 -0.08529,0.0646 -0.128541,0.17067 -0.128541,0.31808 v 1.79889 c 0,0.14735 0.04323,0.2548 0.128541,0.32201 0.08529,0.0646 0.207647,0.0964 0.367913,0.0964 h 1.678891 c 0.175775,0 0.323115,-0.0127 0.442022,-0.0342 0.121489,-0.0234 0.219497,-0.0639 0.294461,-0.12069 0.07498,-0.0595 0.129045,-0.13719 0.162642,-0.23282 0.03361,-0.0957 0.0505,-0.21728 0.0505,-0.36463 0,-0.16284 -0.0257,-0.28654 -0.07738,-0.37185 -0.04912,-0.0853 -0.127527,-0.15283 -0.236094,-0.20199 -0.04912,-0.0208 -0.0741,-0.0432 -0.0741,-0.0689 0,-0.0127 0.0053,-0.0251 0.01574,-0.0354 0.01287,-0.0104 0.03522,-0.0259 0.06624,-0.0465 0.07497,-0.0491 0.129043,-0.1113 0.162642,-0.18625 0.03618,-0.0775 0.05377,-0.18435 0.05377,-0.32135 0,-0.12411 -0.01623,-0.22748 -0.04983,-0.31019 -0.03102,-0.0828 -0.08576,-0.14897 -0.163299,-0.19806 -0.07754,-0.0516 -0.180298,-0.0875 -0.309545,-0.10825 -0.12925,-0.0231 -0.291435,-0.0354 -0.485304,-0.0354 z m 5.14423,0 c -0.05687,0 -0.102163,0.0104 -0.135756,0.0315 -0.03102,0.0208 -0.06075,0.0567 -0.08919,0.10825 l -1.252609,2.22519 c -0.02585,0.0491 -0.0387,0.0923 -0.0387,0.12853 0,0.0957 0.05949,0.14297 0.178383,0.14297 h 0.198056 c 0.05945,0 0.102745,-0.0127 0.131164,-0.0348 0.02842,-0.026 0.06088,-0.0698 0.09706,-0.13181 l 0.155429,-0.27478 c 0.02067,-0.0336 0.04162,-0.0559 0.0623,-0.0663 0.02068,-0.0127 0.0511,-0.019 0.09247,-0.019 h 1.617244 c 0.04136,0 0.07244,0.007 0.09313,0.019 0.02067,0.0104 0.04162,0.0339 0.0623,0.0701 l 0.150837,0.27478 c 0.03102,0.0595 0.06075,0.10264 0.08919,0.12855 0.03102,0.0234 0.07629,0.0342 0.135755,0.0342 h 0.209205 c 0.05171,0 0.09428,-0.0127 0.127884,-0.0388 0.03361,-0.026 0.0505,-0.0606 0.0505,-0.10431 0,-0.0437 -0.01278,-0.0878 -0.0387,-0.13182 l -1.229001,-2.22584 c -0.02842,-0.0516 -0.05954,-0.0861 -0.09312,-0.10432 -0.03102,-0.0208 -0.0763,-0.0315 -0.135755,-0.0315 z m 7.872428,0 c -0.06203,0 -0.108672,0.0175 -0.139689,0.0505 -0.02842,0.0336 -0.04263,0.0804 -0.04263,0.13969 v 2.25273 c 0,0.0595 0.01553,0.10686 0.04656,0.14297 0.03102,0.0336 0.07766,0.0505 0.13969,0.0505 h 0.209206 c 0.06203,0 0.107327,-0.0176 0.135753,-0.0505 0.03102,-0.0336 0.04656,-0.0796 0.04656,-0.13904 v -0.78763 c 0,-0.0463 0.01155,-0.0789 0.03476,-0.0971 0.02327,-0.0208 0.0584,-0.0309 0.104928,-0.0309 h 0.178383 c 0.04136,0 0.07649,0.007 0.104928,0.023 0.03102,0.0127 0.06414,0.0325 0.100334,0.0584 l 1.337868,0.92668 c 0.04912,0.0334 0.08899,0.0586 0.120018,0.0741 0.03361,0.0158 0.07483,0.023 0.123951,0.023 h 0.24462 c 0.04912,0 0.08899,-0.0127 0.120016,-0.0387 0.03361,-0.026 0.0505,-0.0604 0.0505,-0.10432 0,-0.0619 -0.03109,-0.11409 -0.09313,-0.15542 l -1.399513,-0.97324 c -0.02067,-0.0127 -0.03487,-0.026 -0.04263,-0.0388 -0.0078,-0.0158 -0.0118,-0.0299 -0.0118,-0.0426 0,-0.0258 0.01894,-0.0529 0.05771,-0.0813 l 1.295237,-0.91158 c 0.05946,-0.0413 0.08919,-0.0926 0.08919,-0.15477 0,-0.0413 -0.01553,-0.074 -0.04656,-0.097 -0.03102,-0.026 -0.07226,-0.0387 -0.12395,-0.0387 h -0.209206 c -0.04912,0 -0.09035,0.009 -0.123952,0.0236 -0.03102,0.0158 -0.07091,0.0411 -0.120017,0.0774 l -1.256546,0.89126 c -0.03619,0.026 -0.06862,0.0447 -0.09706,0.0551 -0.02585,0.0104 -0.05828,0.0151 -0.09706,0.0151 h -0.198056 c -0.04652,0 -0.08236,-0.009 -0.108215,-0.0269 -0.02327,-0.0208 -0.03476,-0.0544 -0.03476,-0.10098 v -0.7404 c 0,-0.0594 -0.01553,-0.10623 -0.04656,-0.13969 -0.02842,-0.0361 -0.07371,-0.0538 -0.135754,-0.0538 z m -29.605551,0.41446 v 6.7e-4 h 1.326063 c 0.16284,0 0.275052,0.023 0.337089,0.0695 0.06203,0.0463 0.09313,0.13575 0.09313,0.26757 0,0.12146 -0.03108,0.20867 -0.09313,0.26037 -0.05945,0.0491 -0.158814,0.0735 -0.298397,0.0735 h -1.368689 c -0.09564,0 -0.143625,-0.0431 -0.143625,-0.12855 v -0.41447 c 0,-0.0465 0.01155,-0.079 0.03476,-0.097 0.02326,-0.0208 0.06111,-0.0315 0.112795,-0.0315 z m 16.817773,0 v 6.7e-4 h 1.326061 c 0.162851,0 0.275052,0.023 0.337091,0.0695 0.06203,0.0463 0.09313,0.13575 0.09313,0.26757 0,0.12146 -0.03109,0.20867 -0.09313,0.26037 -0.05945,0.0491 -0.158808,0.0735 -0.298396,0.0735 h -1.368691 c -0.09564,0 -0.143623,-0.0431 -0.143623,-0.12855 v -0.41447 c 0,-0.0465 0.01219,-0.079 0.03542,-0.097 0.02326,-0.0208 0.06045,-0.0315 0.112149,-0.0315 z m -20.523139,0.0127 h 0.07739 c 0.255908,0 0.457323,0.009 0.604664,0.0236 0.147333,0.0158 0.258191,0.0528 0.333155,0.11219 0.07495,0.0595 0.121603,0.14872 0.139688,0.26757 0.02067,0.11637 0.03149,0.27517 0.03149,0.47679 v 0.0196 c 0,0.2016 -0.01078,0.36045 -0.03149,0.47678 -0.01809,0.11625 -0.06473,0.20421 -0.139688,0.26365 -0.07495,0.0595 -0.185814,0.0966 -0.333155,0.11219 -0.147334,0.0156 -0.348756,0.0236 -0.604664,0.0236 h -0.07739 c -0.255909,0 -0.457979,-0.009 -0.60532,-0.0236 -0.147331,-0.0158 -0.258191,-0.0527 -0.333154,-0.11219 -0.07495,-0.0595 -0.122936,-0.14722 -0.143624,-0.26365 -0.01808,-0.11649 -0.02754,-0.27518 -0.02754,-0.47678 v -0.0196 c 0,-0.20162 0.0095,-0.36048 0.02754,-0.47679 0.02069,-0.11891 0.06867,-0.20814 0.143624,-0.26757 0.07495,-0.0594 0.185815,-0.0967 0.333154,-0.11219 0.147333,-0.0156 0.349411,-0.0236 0.60532,-0.0236 z m 9.872014,0.007 h 1.05062 c 0.14734,0 0.264942,0.005 0.352829,0.0158 0.09048,0.0104 0.160093,0.0305 0.209205,0.0617 0.04912,0.031 0.08156,0.0755 0.09706,0.13248 0.01551,0.0568 0.02296,0.13308 0.02296,0.22888 v 0.0578 c 0,0.0826 -0.0087,0.1517 -0.0269,0.20594 -0.01551,0.0516 -0.04795,0.0929 -0.09706,0.12399 -0.04652,0.031 -0.112111,0.0533 -0.197401,0.0663 -0.08529,0.0127 -0.195458,0.019 -0.329875,0.019 H 23.75711 c -0.09564,0 -0.142968,-0.0425 -0.142968,-0.12789 v -0.65516 c 0,-0.0853 0.05068,-0.12855 0.151493,-0.12855 z m 5.116685,0.009 c 0.02067,0 0.04099,0.0182 0.06166,0.0544 l 0.566625,1.07357 c 0.01287,0.026 0.01902,0.0482 0.01902,0.0663 0,0.0413 -0.02839,0.0623 -0.08526,0.0623 h -1.147681 c -0.05428,0 -0.08132,-0.0197 -0.08132,-0.0584 0,-0.0182 0.0074,-0.041 0.02296,-0.0695 l 0.58171,-1.07816 c 0.01549,-0.0335 0.03644,-0.0505 0.0623,-0.0505 z m 10.666865,0 c 0.02067,0 0.04095,0.0182 0.06164,0.0544 l 0.565971,1.07357 c 0.01287,0.026 0.01967,0.0482 0.01967,0.0663 0,0.0413 -0.02837,0.0623 -0.08526,0.0623 H 38.96355 c -0.05428,0 -0.08132,-0.0197 -0.08132,-0.0584 0,-0.0182 0.0074,-0.041 0.02296,-0.0695 l 0.581709,-1.07816 c 0.01551,-0.0335 0.03646,-0.0505 0.0623,-0.0505 z m -21.954132,1.03619 h 1.411318 c 0.08272,0 0.151651,0.005 0.205926,0.0158 0.05688,0.0104 0.102153,0.0298 0.135755,0.0584 0.03359,0.0258 0.05593,0.0631 0.06886,0.11217 0.01548,0.0466 0.0236,0.10674 0.0236,0.18166 0,0.0698 -0.0061,0.12876 -0.01902,0.17511 -0.01287,0.0464 -0.03727,0.0837 -0.07346,0.11219 -0.03619,0.0283 -0.08554,0.0492 -0.147559,0.0623 -0.06204,0.0104 -0.143803,0.0158 -0.24462,0.0158 h -1.356886 c -0.05429,0 -0.09282,-0.0104 -0.116083,-0.0309 -0.02067,-0.0234 -0.03149,-0.0572 -0.03149,-0.10098 v -0.48072 c 0,-0.0803 0.04798,-0.12068 0.143625,-0.12068 z m 16.817772,0 h 1.411318 c 0.08271,0 0.15099,0.005 0.205271,0.0158 0.05688,0.0104 0.102162,0.0298 0.135755,0.0584 0.03361,0.0258 0.05725,0.0631 0.07017,0.11217 0.01551,0.0466 0.02296,0.10674 0.02296,0.18166 0,0.0698 -0.0068,0.12876 -0.01967,0.17511 -0.01287,0.0464 -0.03726,0.0837 -0.07346,0.11219 -0.03619,0.0283 -0.08552,0.0492 -0.147559,0.0623 -0.06203,0.0104 -0.143152,0.0158 -0.243964,0.0158 h -1.356886 c -0.05428,0 -0.09348,-0.0104 -0.11673,-0.0309 -0.02067,-0.0234 -0.03082,-0.0572 -0.03082,-0.10098 v -0.48072 c 0,-0.0803 0.04798,-0.12068 0.143623,-0.12068 z" />
    <path
       id="path53"
       style="-inkscape-font-specification:'Newcastle-BasicClean Ultra-Condensed';stroke-width:0.162974"
       d="m 18.423079,132.71062 c -0.68145,0 -1.265598,0.12175 -1.752348,0.35295 -0.486749,0.24339 -0.985412,0.62034 -1.520837,1.1436 -0.04867,0.0487 -0.13416,0.17019 -0.231511,0.34055 -0.09735,0.18254 -0.194671,0.30477 -0.267684,0.35346 -0.365062,0.80312 -0.535368,1.4964 -0.535368,2.0805 0,0.66927 0.121412,1.30234 0.389124,1.89859 0.255543,0.59627 0.620726,1.1071 1.083138,1.52084 0.267713,0.27988 0.669203,0.53591 1.18029,0.77928 0.511086,0.24338 1.095285,0.36483 1.72806,0.36483 1.241211,0 2.299651,-0.4261 3.163631,-1.30224 0.851811,-0.87615 1.290361,-1.88616 1.290361,-3.04219 0,-0.66927 -0.121743,-1.27791 -0.35295,-1.81333 -0.243374,-0.53544 -0.511003,-0.94893 -0.803052,-1.25315 -0.888317,-0.94916 -2.007957,-1.42369 -3.370854,-1.42369 z m 43.539978,0.12867 -2.068607,5.2e-4 c -0.02434,0 -0.04874,0.0243 -0.08527,0.0486 -0.04865,0.0243 -0.06046,0.0491 -0.06046,0.0491 0,0.0124 -2.85e-4,0.0361 0.01189,0.0605 0,0.0243 0.01188,0.0488 0.01188,0.061 l 0.706417,1.37511 c 0.292046,0.36505 0.632524,0.91266 1.009758,1.64279 0.450239,0.91265 0.839612,1.60592 1.156001,2.0805 v 3.09128 c 0,0.0973 0.219251,0.13384 0.657325,0.13384 0.07301,0 0.31599,4e-5 0.705383,-0.0124 0.389402,0 0.608597,-0.0124 0.681612,-0.0124 0.08519,-0.0124 0.146197,-0.0487 0.170532,-0.10956 0.0122,-0.32855 0.02429,-0.77918 0.02429,-1.33893 0,-0.55977 -6.5e-5,-0.9977 0.02429,-1.33842 0.0122,-0.32855 0.0487,-0.53569 0.109554,-0.63304 l 0.98547,-1.86138 c 0.02434,-0.0243 0.07301,-0.0974 0.133842,-0.21911 0.04866,-0.12174 0.109445,-0.19448 0.15813,-0.231 l 1.399914,-2.54351 -0.03669,-0.2067 h -2.348694 c -0.07301,0 -0.49893,0.69353 -1.265556,2.0686 -0.03653,0.0973 -0.09699,0.21881 -0.170015,0.36484 -0.07301,0.14602 -0.134313,0.21911 -0.158647,0.21911 -0.02434,0 -0.03664,-0.0123 -0.06098,-0.0486 l -1.37511,-2.49442 c -0.04865,-0.0973 -0.15806,-0.14625 -0.31626,-0.14625 z m -5.536613,0.005 c -0.206865,0 -0.316259,0.0363 -0.316259,0.0971 l -1.72806,4.38113 c -0.04866,0.0973 -0.145947,0.36452 -0.291972,0.77824 -0.146028,0.42592 -0.279883,0.74243 -0.377238,0.9493 l -0.705383,2.04484 c 0,0.0124 -0.0124,0.0243 -0.0124,0.0486 v 0.0605 c 0,0.0973 0.170353,0.14625 0.51108,0.14625 0.219037,0 0.486662,0.0122 0.803052,0.0362 0.316384,0.0243 0.5959,0.0246 0.814937,0.0124 0.07302,-0.0487 0.158166,-0.25552 0.267684,-0.64492 0.09734,-0.37723 0.231728,-0.57206 0.377755,-0.57206 0,0 0.07262,0.0124 0.194303,0.0124 0.121692,0.0124 0.194771,0.0124 0.219108,0.0124 l 1.521355,-0.0243 c 0.133853,0 0.292146,0.0125 0.462504,0.0367 0.170362,0.0243 0.279703,0.0243 0.340547,0.0243 0.06086,0.0852 0.12158,0.17034 0.182418,0.26768 0.04865,0.0973 0.09761,0.18256 0.121956,0.2434 0.02434,0.0731 0.07274,0.1584 0.12144,0.28008 0.04865,0.12175 0.07333,0.20711 0.09767,0.2558 0.206872,0 0.523155,0.0124 0.936893,0.0124 l 0.620117,0.0124 c 0.255543,0 0.438539,-0.0125 0.535885,-0.0367 0.09735,-0.0244 0.145728,-0.0974 0.145728,-0.21911 -1.679284,-4.08869 -2.591743,-6.35244 -2.762106,-6.80269 0,-0.0487 -0.09728,-0.29183 -0.291972,-0.74207 -0.194702,-0.43809 -0.304555,-0.66921 -0.341064,-0.66921 z m -15.92926,0.0238 v 5.1e-4 c -0.243373,0 -0.596156,0.0124 -1.070736,0.0243 -0.474581,0.0243 -0.827411,0.0248 -1.046447,0.0248 l -0.12144,0.0971 c 0,0.0243 2.09e-4,0.0608 0.0124,0.10955 0,0.0487 0.01189,0.0728 0.01189,0.0971 0,0.0731 -0.01234,0.74255 -0.03669,2.03244 -0.02433,1.28989 -0.03669,2.154 -0.03669,2.59209 0,0.19469 2.11e-4,0.48658 0.0124,0.85163 0,0.36507 0.0124,0.6451 0.0124,0.81545 0.02433,0 0.04858,0.0124 0.04858,0.0367 -0.06086,0.10952 -0.08527,0.29144 -0.08527,0.55914 v 0.53537 c 0,0.25555 0.0124,0.46271 0.0124,0.60874 0.03653,0.12175 0.170324,0.18242 0.401526,0.18242 h 0.15813 c 0.04866,0 0.08498,-0.0124 0.09715,-0.0124 0.365064,0 0.924788,0.0125 1.667081,0.0243 0.73012,0.0124 1.302438,0.0124 1.716175,0.0124 0.170363,0 0.291771,-2.8e-4 0.389123,-0.0124 0.09734,0 0.194624,-0.0242 0.291972,-0.0486 0.09734,-0.0244 0.170437,-0.0613 0.219108,-0.12195 0.04866,-0.0608 0.07286,-0.14552 0.07286,-0.24288 0,-0.10952 2.93e-4,-0.28011 0.0124,-0.52349 0.0122,-0.23119 0.02429,-0.40128 0.02429,-0.52296 0,-0.1947 -0.03657,-0.31669 -0.109554,-0.36535 -0.170363,-0.0243 -0.474768,-0.0367 -0.925008,-0.0367 -0.450245,0 -0.85168,-0.0124 -1.204578,-0.0243 -0.352892,-0.0124 -0.535317,-0.0485 -0.559655,-0.0971 0,-0.12175 -0.0124,-0.31624 -0.0124,-0.58395 v -0.48709 c 0,-0.21903 0.03657,-0.34101 0.109554,-0.36535 0.219035,-0.0243 0.985611,-0.0362 2.312004,-0.0362 l 0.09767,-0.0734 c 0,-0.0852 -2.83e-4,-0.34075 0.01189,-0.75447 0,-0.41375 0.01211,-0.68138 0.02429,-0.80305 0,-0.0244 -0.02425,-0.0733 -0.04858,-0.12196 -0.03653,-0.0487 -0.06095,-0.0729 -0.08527,-0.0729 h -2.23914 c -0.133851,0 -0.19482,-0.10938 -0.19482,-0.34055 v -0.0243 c 0,0 0.01292,-0.0125 0.01292,-0.0243 0,-0.14603 -5.59e-4,-0.31632 0.02377,-0.53536 0.0122,-0.21903 0.02481,-0.36516 0.02481,-0.46251 l 0.571541,-0.0124 c 0.04866,0 0.121706,0.0124 0.243396,0.0124 h 0.267684 c 0.571929,0 0.973657,-0.0128 1.192692,-0.0491 0.219037,-0.0243 0.340548,-0.10921 0.340548,-0.25528 0,-0.0608 2.93e-4,-0.2675 0.0124,-0.60823 0.0122,-0.34072 0.02429,-0.53602 0.02429,-0.59687 l -0.03669,-0.29145 c -0.07302,-0.0608 -0.54749,-0.0977 -1.447974,-0.0977 h -0.632519 c -0.267708,0 -0.450704,-0.0124 -0.535885,-0.0124 z m -16.038297,0.0982 c -0.09735,0 -0.25564,0.0124 -0.462505,0.0243 l -0.03669,0.0729 c 0,0.46241 2.03e-4,1.26582 0.0124,2.40968 0.0122,1.14386 0.02429,2.00806 0.02429,2.5678 0,0.32857 -0.01216,0.82755 -0.02429,1.48466 -0.0122,0.65711 -0.0124,1.16794 -0.0124,1.52084 0,0.14602 0.04888,0.21859 0.146245,0.21859 l 0.09767,0.0124 c 0,0 0.03633,0.0124 0.09715,0.0124 h 0.145727 c 0.413736,0.0364 0.864308,0.0491 1.363225,0.0491 0.182536,0 0.279569,-0.0854 0.279569,-0.28009 v -1.71566 c 0,-0.2677 0.06121,-0.43809 0.207222,-0.48679 1.642776,0 2.835031,-0.49947 3.565158,-1.50947 0.219037,-0.29206 0.341064,-0.74192 0.341064,-1.32601 0,-0.38939 -0.06079,-0.71823 -0.15813,-1.01028 -0.109518,-0.29206 -0.292503,-0.59621 -0.535884,-0.9126 -0.681446,-0.75446 -1.630784,-1.1312 -2.835486,-1.1312 l -0.900204,0.0124 c -0.608437,0.0124 -0.973571,0.0124 -1.107426,0.0124 -0.07302,-0.0124 -0.133695,-0.0243 -0.206705,-0.0243 z m 7.118945,0 c -0.09735,0 -0.255633,0.0124 -0.462504,0.0243 l -0.03669,0.0729 c 0,0.46241 2.11e-4,1.26582 0.0124,2.40968 0.0122,1.14386 0.02429,2.00806 0.02429,2.5678 0,0.32857 -0.01215,0.82755 -0.02429,1.48466 -0.0122,0.65711 -0.0124,1.16794 -0.0124,1.52084 0,0.14602 0.04889,0.21859 0.146244,0.21859 l 0.09715,0.0124 c 0,0 0.03685,0.0124 0.09767,0.0124 h 0.145728 c 0.413737,0.0364 0.864306,0.0491 1.363224,0.0491 0.182529,0 0.279569,-0.0854 0.279569,-0.28009 v -1.71566 c 0,-0.2677 0.06121,-0.43809 0.207223,-0.48679 1.642783,0 2.835037,-0.49947 3.565157,-1.50947 0.219038,-0.29206 0.340548,-0.74192 0.340548,-1.32601 0,-0.38939 -0.06079,-0.71823 -0.15813,-1.01028 -0.109513,-0.29206 -0.291995,-0.59621 -0.535368,-0.9126 -0.681448,-0.75446 -1.630268,-1.1312 -2.834969,-1.1312 l -0.90072,0.0124 c -0.608438,0.0124 -0.973571,0.0124 -1.107426,0.0124 -0.07301,-0.0124 -0.133697,-0.0243 -0.206706,-0.0243 z m 16.257922,0 c -0.09734,0 -0.255637,0.0124 -0.462504,0.0243 l -0.03669,0.0729 c 0,0.46241 -2.84e-4,1.26582 0.01189,2.40968 0.0122,1.14386 0.0248,2.00806 0.0248,2.5678 0,0.32857 -0.01262,0.82755 -0.0248,1.48466 -0.0122,0.65711 -0.01189,1.16794 -0.01189,1.52084 0,0.14602 0.04888,0.21859 0.146244,0.21859 l 0.09715,0.0124 c 0,0 0.03633,0.0124 0.09715,0.0124 h 0.146244 c 0.413737,0.0364 0.863789,0.0491 1.362707,0.0491 0.182536,0 0.280087,-0.0854 0.280087,-0.28009 v -1.71566 c 0,-0.2677 0.06068,-0.43809 0.206705,-0.48679 1.642776,0 2.835546,-0.49947 3.565674,-1.50947 0.219036,-0.29206 0.340548,-0.74192 0.340548,-1.32601 0,-0.38939 -0.06079,-0.71823 -0.15813,-1.01028 -0.109513,-0.29206 -0.291994,-0.59621 -0.535368,-0.9126 -0.681452,-0.75446 -1.630778,-1.1312 -2.835486,-1.1312 l -0.90072,0.0124 c -0.608436,0.0124 -0.973054,0.0124 -1.106909,0.0124 -0.07303,-0.0124 -0.133685,-0.0243 -0.206706,-0.0243 z m -36.263937,0.0491 c -0.04867,0 -0.109405,0.0124 -0.182418,0.0124 h -0.19482 -0.08527 l -0.17415,0.0202 c -0.716989,0.8617 -3.0669375,4.84872 -3.1036863,4.22558 L 7.5823963,133.04755 H 5.7111927 L 0.10429985,141.338 H 2.3992501 l 3.0840495,-4.55011 0.1607137,4.57802 h 1.8913575 c 0.094764,0 2.0209175,-2.87515 3.1605302,-4.61471 0.121692,-0.17037 0.182369,-0.26768 0.206706,-0.26768 l 0.07338,0.14624 c 0,0.0364 0.01189,0.42537 0.01189,1.15549 0,0.3529 -0.01212,0.87632 -0.02429,1.56993 -0.02434,0.70578 -0.02429,1.2168 -0.02429,1.55752 0,0.29205 0.03626,0.43822 0.12144,0.43822 h 1.92288 c 0.07301,0 0.121439,-2.47011 0.121439,-7.4228 0,-0.0243 -0.01212,-0.14625 -0.02429,-0.38964 -0.02434,-0.24337 -0.02429,-0.37691 -0.02429,-0.41341 l -0.03669,-0.061 c 0,-0.0242 -0.486642,-0.0486 -1.447973,-0.0486 z m 14.894699,1.60559 c 0.742298,0 1.253358,0.20693 1.53324,0.59635 0.121689,0.21902 0.182934,0.41358 0.182934,0.58394 0,0.47459 -0.146162,0.80317 -0.438216,0.99787 -0.292047,0.1947 -0.681651,0.29191 -1.168404,0.31626 h -0.243396 c -0.170364,0 -0.243396,-0.0243 -0.243396,-0.0971 v -2.28771 l 0.121956,-0.0972 c 0,0 0.08492,-0.0124 0.255282,-0.0124 z m 7.118945,0 c 0.742293,0 1.253359,0.20693 1.53324,0.59635 0.121684,0.21902 0.182418,0.41358 0.182418,0.58394 0,0.47459 -0.145653,0.80317 -0.4377,0.99787 -0.292053,0.1947 -0.681657,0.29191 -1.168404,0.31626 h -0.243396 c -0.170363,0 -0.243396,-0.0243 -0.243396,-0.0971 v -2.28771 l 0.121957,-0.0972 c 0,0 0.08491,-0.0124 0.255281,-0.0124 z m 16.257923,0 c 0.742291,0 1.253358,0.20693 1.533239,0.59635 0.121693,0.21902 0.182418,0.41358 0.182418,0.58394 0,0.47459 -0.145647,0.80317 -0.437699,0.99787 -0.292048,0.1947 -0.681657,0.29191 -1.168404,0.31626 h -0.243396 c -0.170356,0 -0.243396,-0.0243 -0.243396,-0.0971 v -2.28771 l 0.121956,-0.0972 c 0,0 0.08491,-0.0124 0.255282,-0.0124 z m -31.323153,0.2806 c 0.693618,0 1.265697,0.26768 1.703772,0.77877 0.340724,0.46241 0.522965,0.93699 0.522965,1.3994 0,0.60844 -0.206662,1.13214 -0.608231,1.55804 -0.413736,0.42592 -0.9124,0.63252 -1.520838,0.63252 -0.328556,0 -0.633008,-0.0487 -0.90072,-0.15813 -0.279881,-0.0973 -0.486543,-0.21909 -0.608231,-0.35295 -0.486749,-0.3894 -0.730188,-0.94936 -0.730188,-1.67948 0,-0.60843 0.194494,-1.11923 0.608231,-1.54513 0.413737,-0.41374 0.924802,-0.63304 1.53324,-0.63304 z m 28.183293,1.16841 -2.810682,0.82734 c -0.06086,0.0243 -0.09737,0.0734 -0.109554,0.12195 -0.02434,0.0608 -0.02429,0.19439 -0.02429,0.41342 0,0.24337 0.01212,0.45026 0.04858,0.62063 0,0.0244 0.02419,0.0367 0.07286,0.0367 l 2.762622,-0.75448 c 0.121693,-0.0364 0.182418,-0.25598 0.182418,-0.66972 l -0.02429,-0.36432 c -0.02434,-0.14602 -0.04897,-0.23151 -0.09767,-0.23151 z m 10.331669,0.48576 0.15813,0.37724 c 0.0122,0.0242 0.07319,0.15843 0.170532,0.38964 0.243379,0.59627 0.377238,0.96139 0.377238,1.10742 0,0.0487 -0.292333,0.0853 -0.876433,0.0971 h -0.316259 c -0.18253,0 -0.267684,-0.0488 -0.267684,-0.14624 0,-0.0973 0.109352,-0.4257 0.340547,-0.98547 0.23121,-0.55975 0.365255,-0.83974 0.413929,-0.83974 z m -10.319267,1.08469 c -0.06086,0 -0.09767,0.0124 -0.09767,0.0124 l -2.725415,0.81545 c -0.109513,0.0731 -0.158129,0.1947 -0.158129,0.37724 0,0.0365 -2.84e-4,0.0734 0.01188,0.12196 0,0.0487 0.0124,0.0726 0.0124,0.0847 0,0.23118 0.01212,0.41418 0.04858,0.53588 0,0.0364 0.02442,0.0481 0.08527,0.0481 0.03653,0 0.07281,4e-5 0.09715,-0.0124 l 1.813326,-0.51057 0.09715,-0.0491 0.803052,-0.19482 c 0.073,-0.0365 0.121956,-0.0852 0.121956,-0.15813 v -0.87591 c 0,-0.0852 -0.0124,-0.13426 -0.0124,-0.15865 -0.0122,-0.0245 -0.04847,-0.0362 -0.09715,-0.0362 z" />
    <path
       style="-inkscape-font-specification:'Newcastle-BasicClean Ultra-Condensed';stroke-width:0.229612"
       d="m 33.899655,108.39719 a 9.6172819,9.6172819 0 0 0 -9.617215,9.61723 9.6172819,9.6172819 0 0 0 9.617215,9.61721 9.6172819,9.6172819 0 0 0 9.617213,-9.61721 9.6172819,9.6172819 0 0 0 -9.617213,-9.61723 z m -0.925173,1.39919 H 34.7163 c 0.238135,0 0.429621,0.19143 0.429621,0.42962 v 1.17721 c 0,0.23815 -0.191479,0.43008 -0.429621,0.43008 h -1.741818 c -0.238137,0 -0.430072,-0.19201 -0.430072,-0.43008 V 110.226 c 0,-0.23814 0.191943,-0.42962 0.430072,-0.42962 z m 0,2.42423 v 4.5e-4 H 34.7163 c 0.238135,0 0.429621,0.19144 0.429621,0.42964 v 1.1772 c 0,0.23816 -0.191479,0.43008 -0.429621,0.43008 h -1.741818 c -0.238137,0 -0.430072,-0.19201 -0.430072,-0.43008 v -1.1772 c 0,-0.22325 0.168397,-0.40545 0.385674,-0.42739 0.01458,-0.002 0.02952,-0.002 0.0444,-0.002 z m -3.080916,4.5e-4 h 1.742265 c 0.238139,0 0.429624,0.19144 0.429624,0.42964 v 1.1772 c 0,0.23816 -0.191481,0.43008 -0.429624,0.43008 h -1.742265 c -0.238139,0 -0.429625,-0.19201 -0.429625,-0.43008 v -1.1772 c 0,-0.23814 0.191482,-0.42964 0.429625,-0.42964 z m 6.161382,0 h 1.741819 c 0.238135,0 0.430073,0.19144 0.430073,0.42964 v 1.1772 c 0,0.23816 -0.191944,0.43008 -0.430073,0.43008 h -1.741819 c -0.238136,0 -0.43007,-0.19201 -0.43007,-0.43008 v -1.1772 c 0,-0.23814 0.191924,-0.42964 0.43007,-0.42964 z m -6.161382,2.42439 h 1.742265 c 0.238139,0 0.429624,0.19143 0.429624,0.42963 v 1.17719 c 0,0.23815 -0.191481,0.43008 -0.429624,0.43008 h -1.742265 c -0.238139,0 -0.429625,-0.19199 -0.429625,-0.43008 v -1.17719 c 0,-0.23815 0.191482,-0.42963 0.429625,-0.42963 z m 0,2.42576 h 1.742265 c 0.238139,0 0.429624,0.19141 0.429624,0.4296 v 1.17722 c 0,0.23813 -0.191481,0.43008 -0.429624,0.43008 h -1.742265 c -0.238139,0 -0.429625,-0.19201 -0.429625,-0.43008 v -1.17722 c 0,-0.23812 0.191482,-0.4296 0.429625,-0.4296 z m 3.080916,0 H 34.7163 c 0.238135,0 0.429621,0.19141 0.429621,0.4296 v 1.17722 c 0,0.23813 -0.191479,0.43008 -0.429621,0.43008 h -1.741818 c -0.238137,0 -0.430072,-0.19201 -0.430072,-0.43008 v -1.17722 c 0,-0.23812 0.191943,-0.4296 0.430072,-0.4296 z m 3.080466,0 h 1.741819 c 0.238135,0 0.430073,0.19141 0.430073,0.4296 v 1.17722 c 0,0.23813 -0.191944,0.43008 -0.430073,0.43008 h -1.741819 c -0.238136,0 -0.43007,-0.19201 -0.43007,-0.43008 v -1.17722 c 0,-0.23812 0.191924,-0.4296 0.43007,-0.4296 z m 0,2.42435 h 1.741819 c 0.238135,0 0.430073,0.19143 0.430073,0.42963 v 1.17719 c 0,0.23815 -0.191944,0.43008 -0.430073,0.43008 h -1.741819 c -0.238136,0 -0.43007,-0.19199 -0.43007,-0.43008 v -1.17719 c 0,-0.23813 0.191924,-0.42963 0.43007,-0.42963 z m -6.161382,2.42439 h 1.742265 c 0.238139,0 0.429624,0.19141 0.429624,0.42962 v 1.1772 c 0,0.23815 -0.191481,0.43007 -0.429624,0.43007 h -1.742265 c -0.238139,0 -0.429625,-0.19201 -0.429625,-0.43007 v -1.1772 c 0,-0.23815 0.191482,-0.42962 0.429625,-0.42962 z m 3.080916,0 H 34.7163 c 0.238135,0 0.429621,0.19141 0.429621,0.42962 v 1.1772 c 0,0.23815 -0.191479,0.43007 -0.429621,0.43007 h -1.741818 c -0.238137,0 -0.430072,-0.19201 -0.430072,-0.43007 v -1.1772 c 0,-0.23815 0.191943,-0.42962 0.430072,-0.42962 z m 3.080466,0 h 1.741819 c 0.238135,0 0.430073,0.19141 0.430073,0.42962 v 1.1772 c 0,0.23815 -0.191944,0.43007 -0.430073,0.43007 h -1.741819 c -0.238136,0 -0.43007,-0.19201 -0.43007,-0.43007 v -1.1772 c 0,-0.23815 0.191924,-0.42962 0.43007,-0.42962 z m -3.080466,2.44725 H 34.7163 c 0.238135,0 0.429621,0.19141 0.429621,0.42962 v 1.1772 c 0,0.23813 -0.191479,0.43007 -0.429621,0.43007 h -1.741818 c -0.238137,0 -0.430072,-0.19201 -0.430072,-0.43007 v -1.1772 c 0,-0.23815 0.191943,-0.42962 0.430072,-0.42962 z"
       id="text2" />
  </g>
</svg>
