<?xml version="1.0" encoding="UTF-8" standalone="no"?>
<!-- Created with Inkscape (http://www.inkscape.org/) -->

<svg
   width="90mm"
   height="90mm"
   viewBox="0 0 90.000004 90.000003"
   version="1.1"
   id="svg1"
   inkscape:version="1.4 (e7c3feb100, 2024-10-09)"
   sodipodi:docname="moppepay.svg"
   xmlns:inkscape="http://www.inkscape.org/namespaces/inkscape"
   xmlns:sodipodi="http://sodipodi.sourceforge.net/DTD/sodipodi-0.dtd"
   xmlns="http://www.w3.org/2000/svg"
   xmlns:svg="http://www.w3.org/2000/svg">
  <sodipodi:namedview
     id="namedview1"
     pagecolor="#ffffff"
     bordercolor="#000000"
     borderopacity="0.25"
     inkscape:showpageshadow="2"
     inkscape:pageopacity="0.0"
     inkscape:pagecheckerboard="0"
     inkscape:deskcolor="#d1d1d1"
     inkscape:document-units="mm"
     inkscape:zoom="1.1754936"
     inkscape:cx="164.6117"
     inkscape:cy="144.19475"
     inkscape:window-width="1440"
     inkscape:window-height="828"
     inkscape:window-x="0"
     inkscape:window-y="0"
     inkscape:window-maximized="1"
     inkscape:current-layer="layer1"
     showguides="true" />
  <defs
     id="defs1" />
  <g
     inkscape:label="Taso 1"
     inkscape:groupmode="layer"
     id="layer1"
     transform="translate(16.100346,-77.232921)">
    <path
       id="path1"
       style="-inkscape-font-specification:'Newcastle-BasicClean Ultra-Condensed';stroke-width:0.162974"
       d="m 12.899288,132.05284 c -0.68145,0 -1.265538,0.12149 -1.752288,0.35269 -0.486749,0.24339 -0.985451,0.62075 -1.5208757,1.14401 -0.04867,0.0487 -0.134059,0.17022 -0.2314102,0.34058 -0.097346,0.18254 -0.1946844,0.30433 -0.267697,0.35302 -0.365062,0.80312 -0.5353941,1.49668 -0.5353941,2.08078 0,0.66927 0.1215789,1.30212 0.3892907,1.89837 0.2555436,0.59627 0.6207906,1.10747 1.0832023,1.52121 0.267713,0.27988 0.6692,0.53552 1.180287,0.77889 0.511086,0.24338 1.09532,0.36479 1.728095,0.36479 1.241211,0 2.299685,-0.42573 3.163665,-1.30187 0.851811,-0.87615 1.290103,-1.88637 1.290103,-3.0424 0,-0.66927 -0.121797,-1.27766 -0.353004,-1.81308 -0.243374,-0.53544 -0.511042,-0.94897 -0.803091,-1.25319 -0.888317,-0.94916 -2.007986,-1.4238 -3.370883,-1.4238 z m 0.0974,2.1906 c 0.693618,0 1.26551,0.26782 1.703585,0.77891 0.340724,0.46241 0.523298,0.93687 0.523298,1.39928 0,0.60844 -0.206718,1.13189 -0.608287,1.55779 -0.413736,0.42592 -0.912757,0.63249 -1.521195,0.63249 -0.328556,0 -0.632782,-0.0484 -0.900494,-0.15787 -0.279881,-0.0973 -0.486598,-0.21916 -0.608286,-0.35302 -0.486749,-0.3894 -0.7302,-0.94927 -0.7302,-1.67939 0,-0.60843 0.194551,-1.11949 0.608288,-1.54539 0.413737,-0.41374 0.924853,-0.6328 1.533291,-0.6328 z m 41.374018,-2.0613 c -0.02434,0 -0.04846,0.0244 -0.08499,0.0487 -0.04865,0.0243 -0.06079,0.0487 -0.06079,0.0487 0,0.0124 -1.01e-4,0.0364 0.01207,0.0608 0,0.0243 0.01207,0.0485 0.01207,0.0607 l 0.706008,1.3751 c 0.292046,0.36505 0.632757,0.91266 1.009991,1.64279 0.450239,0.91265 0.839388,1.6062 1.155777,2.08078 v 3.09108 c 0,0.0973 0.219233,0.13368 0.657307,0.13368 0.07301,0 0.316296,4e-5 0.705689,-0.0124 0.389402,0 0.608484,-0.0123 0.681499,-0.0123 0.08519,-0.0124 0.14596,-0.0487 0.170295,-0.10953 0.0122,-0.32855 0.02452,-0.77905 0.02452,-1.3388 0,-0.55977 -1.43e-4,-0.99778 0.02421,-1.3385 0.0122,-0.32855 0.04865,-0.53544 0.109501,-0.63279 l 0.985799,-1.86178 c 0.02434,-0.0243 0.07286,-0.0973 0.133689,-0.219 0.04866,-0.12174 0.109512,-0.19458 0.158197,-0.2311 l 1.399606,-2.54328 -0.0366,-0.2069 h -2.348479 c -0.07301,0 -0.498969,0.69363 -1.265595,2.0687 -0.03653,0.0973 -0.09727,0.21907 -0.170293,0.3651 -0.07301,0.14602 -0.133867,0.21898 -0.158201,0.21898 -0.02434,0 -0.03678,-0.0124 -0.06112,-0.0487 l -1.375091,-2.49459 c -0.04865,-0.0973 -0.1582,-0.14611 -0.3164,-0.14611 z m -3.467651,0.004 c -0.206865,0 -0.316399,0.0365 -0.316399,0.0973 l -1.728095,4.38086 c -0.04866,0.0973 -0.145862,0.36487 -0.291887,0.77859 -0.146028,0.42592 -0.279842,0.74233 -0.377197,0.9492 l -0.705688,2.04449 c 0,0.0124 -0.01248,0.0244 -0.01248,0.0487 v 0.0607 c 0,0.0973 0.170477,0.14611 0.511204,0.14611 0.219037,0 0.486701,0.0123 0.803091,0.0363 0.316384,0.0243 0.596151,0.0246 0.815188,0.0124 0.07302,-0.0487 0.158179,-0.25549 0.267697,-0.64489 0.09734,-0.37723 0.231486,-0.572 0.377513,-0.572 0,0 0.0728,0.0124 0.194486,0.0124 0.121692,0.0124 0.19466,0.0124 0.218997,0.0124 l 1.521195,-0.0243 c 0.133853,0 0.292144,0.0124 0.462502,0.0366 0.170362,0.0243 0.279745,0.0243 0.340589,0.0243 0.06086,0.0852 0.121871,0.17034 0.182709,0.26768 0.04865,0.0973 0.09725,0.18268 0.121595,0.24352 0.02434,0.0731 0.0729,0.15809 0.121596,0.27977 0.04865,0.12175 0.07306,0.20694 0.0974,0.25563 0.206872,0 0.523362,0.0124 0.9371,0.0124 l 0.620383,0.0124 c 0.255543,0 0.438047,-0.0124 0.535393,-0.0366 0.09735,-0.0244 0.146104,-0.0973 0.146104,-0.219 -1.679284,-4.08869 -2.591916,-6.35232 -2.762279,-6.80257 0,-0.0487 -0.09719,-0.29205 -0.291887,-0.74229 -0.194702,-0.43809 -0.304401,-0.66908 -0.34091,-0.66908 z m 0.608288,3.71149 0.158198,0.37719 c 0.0122,0.0242 0.07327,0.15839 0.170614,0.3896 0.243379,0.59627 0.377194,0.96137 0.377194,1.1074 0,0.0487 -0.292202,0.0854 -0.876302,0.0973 h -0.316398 c -0.18253,0 -0.267698,-0.0487 -0.267698,-0.14612 0,-0.0973 0.109713,-0.42603 0.340908,-0.9858 0.23121,-0.55975 0.36481,-0.83969 0.413484,-0.83969 z M 34.973639,132.2107 c -0.243373,0 -0.596207,0.0123 -1.070787,0.0242 -0.474581,0.0243 -0.827244,0.0245 -1.04628,0.0245 l -0.121912,0.0974 c 0,0.0243 2.17e-4,0.0608 0.01241,0.10952 0,0.0487 0.01209,0.0728 0.01209,0.0971 0,0.0731 -0.01226,0.74251 -0.03661,2.0324 -0.02433,1.28989 -0.03661,2.1539 -0.03661,2.59199 0,0.19469 2.18e-4,0.48673 0.01241,0.85178 0,0.36507 0.01209,0.64483 0.01209,0.81518 0.02433,0 0.04869,0.0124 0.04869,0.0367 -0.06086,0.10952 -0.0853,0.29188 -0.0853,0.55958 v 0.53539 c 0,0.25555 0.01241,0.46258 0.01241,0.60861 0.03653,0.12175 0.170183,0.18239 0.401385,0.18239 h 0.158201 c 0.04866,0 0.08523,-0.0124 0.0974,-0.0124 0.365064,0 0.924688,0.0124 1.666981,0.0242 0.73012,0.0124 1.302262,0.0124 1.715999,0.0124 0.170363,0 0.291939,-2.8e-4 0.389291,-0.0124 0.09734,0 0.194859,-0.024 0.292207,-0.0484 0.09734,-0.0244 0.170323,-0.0612 0.218994,-0.12189 0.04866,-0.0608 0.07289,-0.14583 0.07289,-0.24319 0,-0.10952 -3.9e-5,-0.27992 0.01207,-0.5233 0.0122,-0.23119 0.02452,-0.40161 0.02452,-0.52329 0,-0.1947 -0.03652,-0.31643 -0.109502,-0.36509 -0.170363,-0.0243 -0.474764,-0.0366 -0.925004,-0.0366 -0.450245,0 -0.851898,-0.0124 -1.204796,-0.0243 -0.352892,-0.0124 -0.535248,-0.0487 -0.559586,-0.0973 0,-0.12175 -0.01207,-0.31638 -0.01207,-0.58409 v -0.48669 c 0,-0.21903 0.03652,-0.34076 0.109502,-0.3651 0.219035,-0.0243 0.985479,-0.0366 2.311872,-0.0366 l 0.0974,-0.073 c 0,-0.0852 -9.9e-5,-0.34066 0.01207,-0.75438 0,-0.41375 0.01234,-0.68143 0.02452,-0.8031 0,-0.0244 -0.02436,-0.0732 -0.04869,-0.12189 -0.03653,-0.0487 -0.06098,-0.073 -0.0853,-0.073 h -2.238982 c -0.133851,0 -0.194803,-0.10941 -0.194803,-0.34058 v -0.0246 c 0,0 0.01248,-0.0124 0.01248,-0.0242 0,-0.14603 -1.4e-4,-0.31636 0.02419,-0.5354 0.0122,-0.21903 0.02452,-0.36515 0.02452,-0.4625 l 0.571681,-0.0124 c 0.04866,0 0.121816,0.0124 0.243506,0.0124 h 0.267697 c 0.571929,0 0.973665,-0.0124 1.1927,-0.0487 0.219037,-0.0243 0.340591,-0.10953 0.340591,-0.2556 0,-0.0608 -3.9e-5,-0.26757 0.01207,-0.6083 0.0122,-0.34072 0.02452,-0.53564 0.02452,-0.59649 l -0.03661,-0.29189 c -0.07302,-0.0608 -0.547818,-0.0973 -1.448302,-0.0973 h -0.632499 c -0.267708,0 -0.450529,-0.0124 -0.53571,-0.0124 z m -16.038593,0.0973 c -0.09735,0 -0.255319,0.0124 -0.462184,0.0243 l -0.03661,0.0732 c 0,0.46241 -10e-5,1.26541 0.0121,2.40927 0.0122,1.14386 0.0245,2.00804 0.0245,2.56778 0,0.32857 -0.01237,0.82749 -0.0245,1.4846 -0.0122,0.65711 -0.0121,1.16798 -0.0121,1.52088 0,0.14602 0.04874,0.21899 0.146104,0.21899 l 0.0974,0.0124 c 0,0 0.03658,0.0124 0.0974,0.0124 h 0.145786 c 0.413736,0.0364 0.864077,0.0487 1.362994,0.0487 0.182536,0 0.279793,-0.0854 0.279793,-0.28011 v -1.71568 c 0,-0.2677 0.06089,-0.438 0.206901,-0.4867 1.642776,0 2.835243,-0.49908 3.56537,-1.50908 0.219037,-0.29206 0.340908,-0.74231 0.340908,-1.3264 0,-0.38939 -0.06086,-0.71794 -0.1582,-1.00999 -0.109518,-0.29206 -0.292013,-0.59621 -0.535394,-0.9126 -0.681446,-0.75446 -1.630787,-1.13158 -2.835489,-1.13158 l -0.900494,0.0124 c -0.608437,0.0124 -0.973539,0.0124 -1.107394,0.0124 -0.07302,-0.0124 -0.13389,-0.0242 -0.2069,-0.0242 z m 2.007887,1.65484 c 0.742298,0 1.253409,0.20679 1.533291,0.59621 0.121689,0.21902 0.182709,0.41372 0.182709,0.58408 0,0.47459 -0.146257,0.8032 -0.438311,0.9979 -0.292047,0.1947 -0.681438,0.29206 -1.168191,0.31641 h -0.243188 c -0.170364,0 -0.243507,-0.0244 -0.243507,-0.0973 v -2.28768 l 0.121913,-0.0973 c 0,0 0.08492,-0.0124 0.255283,-0.0124 z m 5.111075,-1.65484 c -0.09735,0 -0.255631,0.0124 -0.462502,0.0243 l -0.03629,0.0732 c 0,0.46241 -1.01e-4,1.26541 0.01209,2.40927 0.0122,1.14386 0.02419,2.00804 0.02419,2.56778 0,0.32857 -0.01205,0.82749 -0.02419,1.4846 -0.0122,0.65711 -0.01209,1.16798 -0.01209,1.52088 0,0.14602 0.04843,0.21899 0.145785,0.21899 l 0.0974,0.0124 c 0,0 0.03658,0.0124 0.0974,0.0124 h 0.146104 c 0.413737,0.0364 0.864078,0.0487 1.362996,0.0487 0.182529,0 0.279793,-0.0854 0.279793,-0.28011 v -1.71568 c 0,-0.2677 0.06089,-0.438 0.206899,-0.4867 1.642783,0 2.83525,-0.49908 3.56537,-1.50908 0.219038,-0.29206 0.34059,-0.74231 0.34059,-1.3264 0,-0.38939 -0.06086,-0.71794 -0.158198,-1.00999 -0.109513,-0.29206 -0.292021,-0.59621 -0.535394,-0.9126 -0.681448,-0.75446 -1.63047,-1.13158 -2.835171,-1.13158 l -0.900494,0.0124 c -0.608438,0.0124 -0.97354,0.0124 -1.107395,0.0124 -0.07301,-0.0124 -0.133891,-0.0242 -0.2069,-0.0242 z m 2.007887,1.65484 c 0.742293,0 1.25341,0.20679 1.533291,0.59621 0.121684,0.21902 0.18239,0.41372 0.18239,0.58408 0,0.47459 -0.145944,0.8032 -0.437991,0.9979 -0.292053,0.1947 -0.681444,0.29206 -1.168191,0.31641 h -0.243506 c -0.170363,0 -0.243187,-0.0244 -0.243187,-0.0973 v -2.28768 l 0.121594,-0.0973 c 0,0 0.08523,-0.0124 0.255601,-0.0124 z M 42.311916,132.308 c -0.09734,0 -0.255635,0.0124 -0.462502,0.0243 l -0.03661,0.0732 c 0,0.46241 -9.9e-5,1.26541 0.01207,2.40927 0.0122,1.14386 0.02452,2.00804 0.02452,2.56778 0,0.32857 -0.01234,0.82749 -0.02452,1.4846 -0.0122,0.65711 -0.01207,1.16798 -0.01207,1.52088 0,0.14602 0.04874,0.21899 0.146104,0.21899 l 0.0974,0.0124 c 0,0 0.03658,0.0124 0.0974,0.0124 h 0.145785 c 0.413737,0.0364 0.864077,0.0487 1.362995,0.0487 0.182536,0 0.279793,-0.0854 0.279793,-0.28011 v -1.71568 c 0,-0.2677 0.06088,-0.438 0.206901,-0.4867 1.642776,0 2.83556,-0.49908 3.565688,-1.50908 0.219036,-0.29206 0.34059,-0.74231 0.34059,-1.3264 0,-0.38939 -0.06086,-0.71794 -0.158199,-1.00999 -0.109513,-0.29206 -0.292021,-0.59621 -0.535395,-0.9126 -0.681452,-0.75446 -1.63078,-1.13158 -2.835488,-1.13158 l -0.900495,0.0124 c -0.608436,0.0124 -0.97322,0.0124 -1.107075,0.0124 -0.07303,-0.0124 -0.133881,-0.0242 -0.206902,-0.0242 z m 2.007889,1.65484 c 0.742291,0 1.253091,0.20679 1.532972,0.59621 0.121693,0.21902 0.182709,0.41372 0.182709,0.58408 0,0.47459 -0.145939,0.8032 -0.437991,0.9979 -0.292048,0.1947 -0.681445,0.29206 -1.168192,0.31641 h -0.243506 c -0.170356,0 -0.243506,-0.0244 -0.243506,-0.0973 v -2.28768 l 0.121912,-0.0973 c 0,0 0.08523,-0.0124 0.255602,-0.0124 z M 6.0483404,132.35736 c -0.048674,0 -0.1096962,0.0124 -0.1827093,0.0124 H 5.671145 5.5858391 l -0.1744329,0.0198 c -0.7169891,0.8617 -3.0667556,4.849 -3.1035044,4.22586 L 2.0586659,132.3896 H 0.18765055 l -5.60699895,8.29066 h 2.2950019 l 3.08408827,-4.55022 0.16074507,4.57791 H 2.0118745 c 0.094764,0 2.0205509,-2.87495 3.160164,-4.61451 0.1216916,-0.17037 0.1825633,-0.26769 0.2069002,-0.26769 l 0.073211,0.14609 c 0,0.0364 0.012092,0.42566 0.012092,1.15578 0,0.3529 -0.012339,0.8763 -0.024509,1.56991 -0.024336,0.70578 -0.024189,1.21675 -0.024189,1.55747 0,0.29205 0.036416,0.43831 0.1215942,0.43831 h 1.9225812 c 0.073013,0 0.1219122,-2.47026 0.1219122,-7.42295 0,-0.0243 -0.012339,-0.14622 -0.024511,-0.38961 -0.024337,-0.24337 -0.024189,-0.37697 -0.024189,-0.41347 l -0.036606,-0.0612 c 0,-0.0242 -0.4866534,-0.0484 -1.4479841,-0.0484 z m 35.1316746,3.05428 -2.81098,0.8276 c -0.06086,0.0243 -0.09732,0.073 -0.109501,0.1216 -0.02434,0.0608 -0.02419,0.19477 -0.02419,0.4138 0,0.24337 0.01192,0.45034 0.04838,0.62071 0,0.0244 0.02454,0.0363 0.07321,0.0363 l 2.762278,-0.75439 c 0.121693,-0.0364 0.182392,-0.25567 0.182392,-0.66941 l -0.02419,-0.36478 c -0.02434,-0.14602 -0.0487,-0.2314 -0.0974,-0.2314 z m 0.0121,1.57077 c -0.06086,0 -0.0974,0.0124 -0.0974,0.0124 L 38.369041,137.81 c -0.109513,0.0731 -0.158199,0.19497 -0.158199,0.37751 0,0.0365 -9.9e-5,0.073 0.01207,0.1216 0,0.0487 0.01248,0.0728 0.01248,0.0849 0,0.23118 0.01192,0.41401 0.04838,0.53571 0,0.0364 0.02445,0.0484 0.0853,0.0484 0.03653,0 0.07306,4e-5 0.0974,-0.0124 l 1.813085,-0.51088 0.0974,-0.0487 0.803092,-0.1948 c 0.073,-0.0365 0.121596,-0.0853 0.121596,-0.15819 v -0.8763 c 0,-0.0852 -0.01207,-0.13381 -0.01207,-0.1582 -0.0122,-0.0245 -0.04872,-0.0363 -0.0974,-0.0363 z m -41.07162454,6.63162 c -0.19146247,0 -0.35760973,0.006 -0.49815267,0.0154 -0.13850518,0.008 -0.25650741,0.0258 -0.35427583,0.0521 -0.0957404,0.0244 -0.17412537,0.0608 -0.23523,0.10987 -0.0611084,0.0469 -0.10925426,0.10918 -0.14387566,0.18654 -0.032587,0.0754 -0.054939,0.16789 -0.06716,0.27787 -0.012198,0.11 -0.018144,0.24047 -0.018144,0.3912 v 0.0427 c 0,0.15071 0.00588,0.2812 0.018144,0.39118 0.012198,0.11 0.034573,0.20367 0.06716,0.28107 0.034632,0.0754 0.082766,0.13614 0.14387566,0.18303 0.0611084,0.0468 0.13949702,0.0837 0.23523,0.11012 0.097761,0.0264 0.21577065,0.0437 0.35427583,0.0519 0.14054294,0.01 0.3066902,0.0153 0.49815267,0.0153 h 0.0916621 c 0.19146247,0 0.35614427,-0.006 0.49465067,-0.0153 0.1405417,-0.008 0.2588624,-0.0243 0.35459537,-0.0487 0.097761,-0.0264 0.1773066,-0.0634 0.2384123,-0.11011 0.061109,-0.0489 0.1077855,-0.11082 0.1403738,-0.18621 0.034632,-0.0773 0.058123,-0.17107 0.070344,-0.28107 0.012198,-0.10999 0.018145,-0.24046 0.018145,-0.3912 v -0.0427 c 0,-0.15073 -0.00587,-0.2812 -0.018145,-0.39121 -0.012198,-0.10999 -0.035712,-0.2025 -0.070344,-0.27787 -0.032587,-0.0773 -0.079276,-0.13968 -0.1403738,-0.18653 -0.061108,-0.049 -0.1406439,-0.0854 -0.2384123,-0.10987 -0.09574,-0.0264 -0.21405367,-0.0439 -0.35459537,-0.0521 -0.1385064,-0.01 -0.3031882,-0.0153 -0.49465067,-0.0153 z m 0.0152769,0.3517 h 0.06112 c 0.20164757,0 0.36040667,0.007 0.47650627,0.0185 0.1160938,0.0124 0.203536,0.0417 0.2626053,0.0885 0.059064,0.0469 0.095881,0.11705 0.11013577,0.2107 0.016288,0.0917 0.024514,0.21705 0.024514,0.37592 v 0.0154 c 0,0.15885 -0.00823,0.28393 -0.024514,0.3756 -0.014254,0.0916 -0.051073,0.161 -0.11013577,0.20784 -0.059063,0.0469 -0.1465045,0.0763 -0.2626053,0.0886 -0.1160938,0.0123 -0.2748587,0.0185 -0.47650627,0.0185 h -0.06112 c -0.20164873,0 -0.36072616,-0.007 -0.47682583,-0.0185 -0.11609376,-0.0124 -0.20353491,-0.0417 -0.2626041,-0.0886 -0.0590635,-0.0469 -0.0967037,-0.1161 -0.11300312,-0.20784 -0.0142544,-0.0918 -0.0216462,-0.21675 -0.0216462,-0.3756 v -0.0154 c 0,-0.15887 0.007404,-0.28427 0.0216462,-0.37592 0.0162993,-0.0937 0.0539395,-0.16387 0.11300312,-0.2107 0.0590635,-0.0468 0.14650442,-0.0763 0.2626041,-0.0885 0.11609376,-0.0123 0.2751771,-0.0185 0.47682583,-0.0185 z m 35.77752364,-0.3517 c -0.266827,0 -0.4836,0.0124 -0.650622,0.037 -0.164984,0.0244 -0.293494,0.0731 -0.385153,0.14643 -0.09165,0.0713 -0.153622,0.17432 -0.18621,0.30876 -0.03054,0.13244 -0.04583,0.30645 -0.04583,0.52234 v 0.0884 c 0,0.21388 0.01528,0.3871 0.04583,0.51948 0.03259,0.13244 0.09457,0.23431 0.18621,0.30558 0.09165,0.0713 0.220169,0.11916 0.385153,0.14356 0.167022,0.0244 0.38577,0.0366 0.65667,0.0366 h 0.247644 c 0.244421,0 0.436868,-0.0106 0.577411,-0.0335 0.142579,-0.0223 0.249565,-0.0611 0.320856,-0.1161 0.0713,-0.055 0.115988,-0.12943 0.134318,-0.22313 0.02038,-0.0937 0.03056,-0.21171 0.03056,-0.35429 v -0.21072 c 0,-0.0754 -0.02121,-0.13134 -0.06399,-0.16807 -0.04073,-0.0387 -0.110089,-0.058 -0.207856,-0.058 h -0.977844 c -0.04278,0 -0.07728,0.01 -0.103768,0.0305 -0.02648,0.0205 -0.03979,0.0529 -0.03979,0.0978 v 0.0581 c 0,0.0468 0.0133,0.0805 0.03979,0.10098 0.02648,0.0182 0.06214,0.0273 0.106951,0.0273 h 0.718103 c 0.05703,0 0.0853,0.0243 0.0853,0.0732 v 0.14993 c 0,0.0633 -0.0051,0.11411 -0.01528,0.15279 -0.01014,0.0366 -0.03764,0.065 -0.08244,0.0853 -0.04278,0.0183 -0.107855,0.0308 -0.19544,0.0369 -0.08759,0.006 -0.208708,0.01 -0.36351,0.01 h -0.211035 c -0.189427,0 -0.339143,-0.006 -0.449134,-0.0181 -0.107949,-0.0143 -0.189147,-0.0439 -0.244141,-0.0888 -0.05499,-0.0468 -0.08983,-0.11304 -0.104085,-0.19863 -0.01425,-0.0877 -0.02131,-0.20443 -0.02131,-0.3511 v -0.0856 c 0,-0.14869 0.0072,-0.26702 0.02131,-0.35459 0.01425,-0.0897 0.0491,-0.15669 0.104085,-0.2015 0.055,-0.0468 0.136183,-0.0763 0.244141,-0.0884 0.109995,-0.0143 0.259707,-0.0216 0.449134,-0.0216 h 1.087978 c 0.04278,0 0.07729,-0.01 0.103778,-0.0305 0.02648,-0.0225 0.03979,-0.0537 0.03979,-0.0946 v -0.0397 c 0,-0.0387 -0.0093,-0.07 -0.0277,-0.0947 -0.01629,-0.0264 -0.05197,-0.0469 -0.106952,-0.0611 -0.05499,-0.0143 -0.134209,-0.0237 -0.238094,-0.0278 -0.103884,-0.006 -0.243408,-0.01 -0.418576,-0.01 z m -41.0652571,0.0154 c -0.1853528,0 -0.2782008,0.0721 -0.2782008,0.21675 v 1.70804 c 0,0.0469 0.012198,0.0845 0.036606,0.11294 0.024443,0.0264 0.061261,0.0397 0.1101358,0.0397 h 0.1588353 c 0.046841,0 0.081368,-0.0137 0.1037786,-0.0397 0.024443,-0.0285 0.036923,-0.066 0.036923,-0.11294 v -1.41455 c 0,-0.0205 0.00399,-0.0345 0.012069,-0.0427 0.010109,-0.008 0.021529,-0.0123 0.033738,-0.0123 0.020378,0 0.042717,0.0205 0.06716,0.0611 l 0.8218708,1.43908 c 0.024443,0.0407 0.047629,0.0713 0.070028,0.0917 0.024443,0.0205 0.058135,0.0305 0.1009108,0.0305 h 0.1588354 c 0.044809,0 0.079641,-0.01 0.1040839,-0.0305 0.026477,-0.0205 0.051954,-0.0518 0.076397,-0.0946 l 0.824737,-1.43906 c 0.022398,-0.0387 0.044762,-0.0583 0.06716,-0.0583 0.012198,0 0.022422,0.006 0.030566,0.0154 0.010106,0.008 0.015277,0.0226 0.015277,0.043 v 1.41456 c 0,0.0468 0.01248,0.0833 0.036923,0.10976 0.024443,0.0264 0.060109,0.0397 0.106951,0.0397 h 0.1617005 c 0.046842,0 0.081685,-0.0137 0.1040836,-0.0397 0.024443,-0.0264 0.036606,-0.063 0.036606,-0.10976 v -1.71092 c 0,-0.14461 -0.092849,-0.21707 -0.278202,-0.21707 h -0.2839355 c -0.065174,0 -0.116129,0.0106 -0.152788,0.0337 -0.034632,0.0205 -0.06635,0.0561 -0.094859,0.10694 l -0.7668053,1.39611 c -0.016288,0.0305 -0.03355,0.0458 -0.051883,0.0458 -0.018333,0 -0.036723,-0.016 -0.055056,-0.0487 l -0.7792185,-1.39037 c -0.028521,-0.0509 -0.061049,-0.0874 -0.097726,-0.10989 -0.034632,-0.0225 -0.084423,-0.0337 -0.1496035,-0.0337 z m 8.0270953,0 c -0.1242416,0 -0.2198976,0.0265 -0.287113,0.0795 -0.067221,0.0509 -0.1009077,0.13437 -0.1009077,0.25052 v 1.41743 c 0,0.1161 0.033685,0.20073 0.1009077,0.25369 0.067221,0.0509 0.1640121,0.0764 0.2902965,0.0764 h 1.3228894 c 0.1385043,0 0.2545337,-0.01 0.3482289,-0.0273 0.095725,-0.0184 0.1732967,-0.0501 0.2323642,-0.0949 0.059077,-0.0469 0.1017981,-0.108 0.1282724,-0.18335 0.026474,-0.0754 0.039788,-0.17101 0.039788,-0.28712 0,-0.12832 -0.020387,-0.22626 -0.06112,-0.29348 -0.038704,-0.0672 -0.100989,-0.1201 -0.1865297,-0.15883 -0.038704,-0.0164 -0.057926,-0.0344 -0.057926,-0.0546 0,-0.01 0.00397,-0.0197 0.012066,-0.0278 0.01014,-0.008 0.027448,-0.0203 0.05188,-0.0366 0.059077,-0.0387 0.1021129,-0.0877 0.1286014,-0.14674 0.028517,-0.0611 0.042652,-0.14541 0.042652,-0.25336 0,-0.0978 -0.0133,-0.17929 -0.039788,-0.24447 -0.024445,-0.0652 -0.067166,-0.11728 -0.1282724,-0.15596 -0.061105,-0.0407 -0.1426187,-0.069 -0.2444606,-0.0854 -0.1018393,-0.0182 -0.2292066,-0.0278 -0.3819696,-0.0278 z m 0.1804809,0.3269 h 1.0446878 c 0.1283137,0 0.2169033,0.0184 0.265787,0.0551 0.048877,0.0365 0.073527,0.10682 0.073527,0.2107 0,0.0957 -0.024637,0.16426 -0.073527,0.205 -0.046848,0.0387 -0.1252426,0.0578 -0.2352297,0.0578 H 3.0524196 c -0.075365,0 -0.1129996,-0.0337 -0.1129996,-0.10098 v -0.3269 c 0,-0.0367 0.00905,-0.0622 0.027379,-0.0764 0.01833,-0.0164 0.048068,-0.0245 0.088801,-0.0245 z m -0.00319,0.83884 h 1.1121694 c 0.065177,0 0.1192512,0.004 0.1620186,0.0124 0.044819,0.008 0.080478,0.0233 0.1069535,0.0458 0.026474,0.0203 0.044559,0.0497 0.054744,0.0884 0.012202,0.0367 0.018468,0.0845 0.018468,0.14356 0,0.055 -0.00508,0.10098 -0.015286,0.13751 -0.01014,0.0366 -0.029422,0.066 -0.057926,0.0884 -0.028517,0.0223 -0.067303,0.0388 -0.1161796,0.0491 -0.04889,0.008 -0.1131358,0.0124 -0.1925772,0.0124 H 3.0556122 c -0.042776,0 -0.073336,-0.008 -0.091665,-0.0243 -0.016288,-0.0184 -0.024514,-0.045 -0.024514,-0.0795 v -0.37879 c 0,-0.0633 0.037634,-0.0949 0.1129996,-0.0949 z m 2.9688622,-1.16574 c -0.048882,0 -0.085692,0.0137 -0.1101334,0.0397 -0.022402,0.0264 -0.033423,0.0634 -0.033423,0.11011 v 1.77489 c 0,0.0469 0.012161,0.0845 0.036606,0.11293 0.024441,0.0264 0.060931,0.0397 0.1098172,0.0397 h 0.1680671 c 0.04685,0 0.08168,-0.0137 0.1040859,-0.0397 0.024441,-0.0264 0.036606,-0.063 0.036606,-0.10988 v -1.7752 c 0,-0.0468 -0.012161,-0.0837 -0.036606,-0.11011 -0.024441,-0.0285 -0.060106,-0.0427 -0.1069521,-0.0427 z m 1.7099516,0 c -0.1242471,0 -0.2198977,0.0265 -0.2871137,0.0795 -0.067217,0.0509 -0.1009034,0.13437 -0.1009034,0.25052 v 1.5979 c 0,0.0468 0.012161,0.0833 0.036606,0.10988 0.024441,0.0264 0.060106,0.0397 0.1069522,0.0397 h 0.1648836 c 0.048882,0 0.084548,-0.0137 0.1069522,-0.0397 0.024441,-0.0264 0.036606,-0.063 0.036606,-0.10988 v -0.43378 c 0,-0.0651 0.037636,-0.0978 0.1129996,-0.0978 h 0.7273341 c 0.1446162,0 0.2598173,0.006 0.3453646,0.0181 0.085547,0.01 0.1506306,0.0324 0.1954408,0.0672 0.044807,0.0326 0.0734,0.0815 0.085621,0.14675 0.01426,0.0633 0.021326,0.14662 0.021326,0.2505 v 0.0491 c 0,0.0468 0.011027,0.0833 0.03342,0.10987 0.024442,0.0264 0.060102,0.0397 0.1069516,0.0397 h 0.1680678 c 0.04888,0 0.08454,-0.0137 0.106951,-0.0397 0.02444,-0.0264 0.03661,-0.063 0.03661,-0.10987 v -0.16806 c 0,-0.0834 -0.0051,-0.1537 -0.01527,-0.21073 -0.01014,-0.0591 -0.02547,-0.108 -0.04583,-0.14675 -0.02036,-0.0387 -0.04668,-0.0704 -0.07926,-0.0949 -0.03055,-0.0244 -0.06819,-0.0456 -0.113,-0.064 -0.020365,-0.01 -0.035649,-0.0183 -0.045831,-0.0245 -0.00813,-0.008 -0.012411,-0.0183 -0.012411,-0.0305 0,-0.01 0.00423,-0.0191 0.012411,-0.0273 0.01014,-0.01 0.028276,-0.0215 0.054746,-0.0337 0.04074,-0.0205 0.0764,-0.0438 0.106952,-0.0702 0.03056,-0.0264 0.05602,-0.057 0.0764,-0.0918 0.0224,-0.0366 0.03884,-0.0783 0.04902,-0.12503 0.01014,-0.0469 0.01528,-0.10204 0.01528,-0.16521 v -0.0612 c 0,-0.12216 -0.01216,-0.22181 -0.03661,-0.29921 -0.0224,-0.0793 -0.06514,-0.14254 -0.128278,-0.18941 -0.06111,-0.0469 -0.1457386,-0.0793 -0.2536916,-0.0978 -0.1059154,-0.0182 -0.2414951,-0.0278 -0.4064793,-0.0278 z m 0.1833453,0.34218 h 0.8279201 c 0.1161,0 0.2086304,0.004 0.2778826,0.0124 0.071288,0.008 0.1265032,0.0242 0.1652018,0.0487 0.038702,0.0244 0.064179,0.0593 0.07639,0.10415 0.012221,0.0448 0.018136,0.10467 0.018136,0.18016 v 0.0459 c 0,0.0651 -0.00708,0.11928 -0.021326,0.16202 -0.012221,0.0407 -0.037698,0.0733 -0.076389,0.0978 -0.036663,0.0244 -0.088442,0.0417 -0.1556521,0.0519 -0.06721,0.01 -0.1538236,0.0153 -0.2597401,0.0153 H 7.9082108 c -0.075364,0 -0.1129996,-0.0337 -0.1129996,-0.10098 v -0.5163 c 0,-0.0672 0.039927,-0.10098 0.1193649,-0.10098 z m 3.8607608,-0.34218 c -0.04481,0 -0.08048,0.008 -0.106953,0.0246 -0.02444,0.0164 -0.04794,0.0449 -0.07035,0.0855 l -0.986755,1.75356 c -0.02036,0.0387 -0.03056,0.0724 -0.03056,0.10098 0,0.0754 0.04699,0.11293 0.140692,0.11293 h 0.155653 c 0.04685,0 0.08136,-0.01 0.103768,-0.0274 0.0224,-0.0205 0.04788,-0.0552 0.0764,-0.10404 l 0.12223,-0.21677 c 0.0163,-0.0264 0.03272,-0.0437 0.04902,-0.0519 0.0163,-0.01 0.04062,-0.0153 0.07321,-0.0153 h 1.274188 c 0.03259,0 0.05691,0.006 0.07321,0.0153 0.01629,0.008 0.03272,0.0265 0.04902,0.0551 l 0.119047,0.21676 c 0.02444,0.0469 0.04794,0.0806 0.07035,0.10098 0.02444,0.0184 0.0601,0.0273 0.106952,0.0273 h 0.164884 c 0.04074,0 0.07443,-0.01 0.100905,-0.0305 0.02648,-0.0205 0.03979,-0.0479 0.03979,-0.0824 0,-0.0345 -0.01014,-0.0691 -0.03056,-0.10373 l -0.968612,-1.75387 c -0.0224,-0.0407 -0.04673,-0.0681 -0.07321,-0.0824 -0.02444,-0.0164 -0.0601,-0.0245 -0.106951,-0.0245 z m 0.17125,0.34923 c 0.01629,0 0.03241,0.0141 0.04869,0.0427 l 0.446268,0.84638 c 0.01014,0.0205 0.01527,0.0377 0.01527,0.0519 0,0.0326 -0.02267,0.0491 -0.06748,0.0491 h -0.90431 c -0.04277,0 -0.06398,-0.0154 -0.06398,-0.0458 0,-0.0143 0.0059,-0.0326 0.01815,-0.0551 l 0.458364,-0.84957 c 0.01221,-0.0264 0.02865,-0.0395 0.04902,-0.0395 z m 4.18066,-0.34923 c -0.124249,0 -0.2199,0.0265 -0.287115,0.0795 -0.06721,0.0509 -0.100905,0.13437 -0.100905,0.25052 v 1.41743 c 0,0.1161 0.03368,0.20073 0.100905,0.25369 0.06721,0.0509 0.163694,0.0764 0.289979,0.0764 h 1.323206 c 0.138506,0 0.254535,-0.01 0.34823,-0.0273 0.09573,-0.0184 0.172978,-0.0501 0.232047,-0.0949 0.05908,-0.0469 0.101803,-0.108 0.128277,-0.18335 0.02648,-0.0754 0.03979,-0.17101 0.03979,-0.28712 0,-0.12832 -0.02039,-0.22626 -0.06112,-0.29348 -0.0387,-0.0672 -0.100662,-0.1201 -0.18621,-0.15883 -0.0387,-0.0164 -0.05825,-0.0344 -0.05825,-0.0546 0,-0.01 0.0042,-0.0197 0.01241,-0.0278 0.01014,-0.008 0.02744,-0.0203 0.05188,-0.0366 0.05907,-0.0387 0.101803,-0.0877 0.128278,-0.14674 0.02851,-0.0611 0.04265,-0.14541 0.04265,-0.25336 0,-0.0978 -0.01299,-0.17929 -0.03947,-0.24447 -0.02444,-0.0652 -0.0675,-0.11728 -0.128597,-0.15596 -0.0611,-0.0407 -0.142299,-0.069 -0.244142,-0.0854 -0.101845,-0.0182 -0.229206,-0.0278 -0.381969,-0.0278 z m 0.180161,0.3269 h 1.04501 c 0.128321,0 0.216903,0.0184 0.265788,0.0551 0.04888,0.0365 0.07321,0.10682 0.07321,0.2107 0,0.0957 -0.02433,0.16426 -0.07321,0.205 -0.04685,0.0387 -0.12524,0.0578 -0.235231,0.0578 h -1.078746 c -0.07536,0 -0.113,-0.0337 -0.113,-0.10098 v -0.3269 c 0,-0.0367 0.0094,-0.0622 0.0277,-0.0764 0.01833,-0.0164 0.04775,-0.0245 0.08849,-0.0245 z m -0.0032,0.83884 h 1.112168 c 0.06517,0 0.119246,0.004 0.162018,0.0124 0.04482,0.008 0.08048,0.0233 0.106953,0.0458 0.02648,0.0203 0.04488,0.0497 0.05506,0.0884 0.01222,0.0367 0.01815,0.0845 0.01815,0.14356 0,0.055 -0.0051,0.10098 -0.01528,0.13751 -0.01014,0.0366 -0.02942,0.066 -0.05794,0.0884 -0.02852,0.0223 -0.0673,0.0388 -0.116184,0.0491 -0.04888,0.008 -0.112821,0.0124 -0.192258,0.0124 h -1.06951 c -0.04277,0 -0.07335,-0.008 -0.09167,-0.0243 -0.01629,-0.0184 -0.0245,-0.045 -0.0245,-0.0795 v -0.37879 c 0,-0.0633 0.03763,-0.0949 0.113,-0.0949 z m 3.876359,-1.16574 c -0.04481,0 -0.08048,0.008 -0.106953,0.0246 -0.02444,0.0164 -0.04794,0.0449 -0.07035,0.0855 l -0.986757,1.75356 c -0.02037,0.0387 -0.03056,0.0724 -0.03056,0.10098 0,0.0754 0.04668,0.11293 0.140374,0.11293 h 0.155971 c 0.04685,0 0.08137,-0.01 0.103768,-0.0274 0.0224,-0.0205 0.04788,-0.0552 0.07639,-0.10404 l 0.12223,-0.21677 c 0.01629,-0.0264 0.03272,-0.0437 0.04902,-0.0519 0.0163,-0.01 0.04062,-0.0153 0.07321,-0.0153 h 1.274189 c 0.03259,0 0.05691,0.006 0.07321,0.0153 0.01629,0.008 0.03272,0.0265 0.04902,0.0551 l 0.119047,0.21676 c 0.02444,0.0469 0.04794,0.0806 0.07035,0.10098 0.02444,0.0184 0.0601,0.0273 0.106952,0.0273 h 0.164886 c 0.04074,0 0.07443,-0.01 0.100905,-0.0305 0.02648,-0.0205 0.03979,-0.0479 0.03979,-0.0824 0,-0.0345 -0.01014,-0.0691 -0.03056,-0.10373 l -0.968612,-1.75387 c -0.0224,-0.0407 -0.04706,-0.0681 -0.07353,-0.0824 -0.02444,-0.0164 -0.05978,-0.0245 -0.106633,-0.0245 z m 0.170931,0.34923 c 0.01629,0 0.03272,0.0141 0.04902,0.0427 l 0.445954,0.84638 c 0.01014,0.0205 0.01527,0.0377 0.01527,0.0519 0,0.0326 -0.02235,0.0491 -0.06717,0.0491 h -0.904309 c -0.04277,0 -0.0643,-0.0154 -0.0643,-0.0458 0,-0.0143 0.0062,-0.0326 0.01846,-0.0551 l 0.458365,-0.84957 c 0.01222,-0.0264 0.02833,-0.0395 0.04869,-0.0395 z m 2.507632,-0.34923 c -0.185353,0 -0.278202,0.0724 -0.278202,0.21707 v 1.70772 c 0,0.0469 0.01216,0.0845 0.03661,0.11294 0.02444,0.0264 0.06125,0.0397 0.110134,0.0397 h 0.162019 c 0.04685,0 0.08137,-0.0137 0.103768,-0.0397 0.02444,-0.0264 0.03661,-0.063 0.03661,-0.10987 v -1.4362 c 0,-0.0205 0.0042,-0.0345 0.01241,-0.0427 0.01014,-0.008 0.0212,-0.0123 0.03342,-0.0123 0.01222,0 0.02356,0.006 0.03375,0.0153 0.01014,0.008 0.02349,0.0216 0.03979,0.0397 l 1.277053,1.47535 c 0.03259,0.0388 0.06596,0.0673 0.100589,0.0856 0.03462,0.0164 0.0785,0.0246 0.131461,0.0246 h 0.29348 c 0.185353,0 0.277883,-0.0725 0.277883,-0.21708 v -1.70773 c 0,-0.0468 -0.01216,-0.0837 -0.03661,-0.11011 -0.02444,-0.0285 -0.0601,-0.0427 -0.106953,-0.0427 h -0.162012 c -0.04888,0 -0.08538,0.0137 -0.109816,0.0397 -0.0224,0.0264 -0.03375,0.063 -0.03375,0.10988 v 1.43908 c 0,0.0367 -0.01413,0.0551 -0.04265,0.0551 -0.01221,0 -0.02356,-0.004 -0.03375,-0.0123 -0.01014,-0.01 -0.02349,-0.0242 -0.03978,-0.0427 l -1.279918,-1.47886 c -0.03259,-0.0387 -0.06628,-0.066 -0.100906,-0.0824 -0.03462,-0.0183 -0.0785,-0.0273 -0.131461,-0.0273 z m 3.524627,0 c -0.04888,0 -0.08538,0.0137 -0.109818,0.0397 -0.0224,0.0264 -0.03374,0.0634 -0.03374,0.11011 v 1.77489 c 0,0.0469 0.01216,0.0845 0.03661,0.11293 0.02444,0.0264 0.06125,0.0397 0.110136,0.0397 h 0.164884 c 0.04888,0 0.08455,-0.0137 0.106951,-0.0397 0.02444,-0.0264 0.03661,-0.063 0.03661,-0.10988 v -0.62038 c 0,-0.0365 0.0094,-0.062 0.0277,-0.0764 0.01834,-0.0164 0.04577,-0.0243 0.08244,-0.0243 h 0.1404 c 0.03259,0 0.06036,0.006 0.08277,0.0182 0.02444,0.01 0.05074,0.0254 0.07926,0.0458 l 1.054238,0.7302 c 0.0387,0.0264 0.07009,0.0461 0.09454,0.0583 0.02648,0.0124 0.05902,0.0182 0.09773,0.0182 h 0.192575 c 0.0387,0 0.07009,-0.01 0.09454,-0.0305 0.02648,-0.0205 0.03979,-0.0478 0.03979,-0.0824 0,-0.0488 -0.02433,-0.0897 -0.07321,-0.12231 l -1.102938,-0.7668 c -0.01629,-0.01 -0.02763,-0.0205 -0.03374,-0.0305 -0.0061,-0.0124 -0.0093,-0.0237 -0.0093,-0.0337 0,-0.0203 0.01527,-0.0416 0.04583,-0.064 l 1.020497,-0.7181 c 0.04686,-0.0326 0.07035,-0.0733 0.07035,-0.1223 0,-0.0326 -0.01216,-0.0582 -0.03661,-0.0764 -0.02444,-0.0205 -0.05699,-0.0305 -0.09772,-0.0305 H 28.29933 c -0.0387,0 -0.07124,0.007 -0.09772,0.0185 -0.02444,0.0124 -0.05585,0.0326 -0.09454,0.0612 l -0.989938,0.70251 c -0.02852,0.0205 -0.05399,0.0348 -0.0764,0.043 -0.02037,0.008 -0.04584,0.0123 -0.0764,0.0123 h -0.155943 c -0.03666,0 -0.06494,-0.007 -0.08531,-0.0212 -0.01834,-0.0164 -0.02768,-0.0429 -0.02768,-0.0796 v -0.58344 c 0,-0.0468 -0.01216,-0.0837 -0.03661,-0.11011 -0.0224,-0.0285 -0.05806,-0.0427 -0.106952,-0.0427 z m 3.332367,0 c -0.04888,0 -0.08538,0.0137 -0.109818,0.0397 -0.02239,0.0264 -0.03374,0.0634 -0.03374,0.11011 v 1.77489 c 0,0.0469 0.01216,0.0845 0.03661,0.11293 0.02444,0.0264 0.06125,0.0397 0.110136,0.0397 h 0.168068 c 0.04686,0 0.08136,-0.0137 0.103768,-0.0397 0.02444,-0.0264 0.03661,-0.063 0.03661,-0.10988 v -1.7752 c 0,-0.0468 -0.01216,-0.0833 -0.03661,-0.10988 -0.02444,-0.0285 -0.06011,-0.043 -0.106951,-0.043 z m 1.600136,0 c -0.185354,0 -0.2782,0.0724 -0.2782,0.21707 v 1.70772 c 0,0.0469 0.01216,0.0845 0.03661,0.11294 0.02444,0.0264 0.06125,0.0397 0.110135,0.0397 h 0.16202 c 0.04686,0 0.08136,-0.0137 0.103768,-0.0397 0.02444,-0.0264 0.03661,-0.063 0.03661,-0.10987 v -1.4362 c 0,-0.0205 0.0042,-0.0345 0.01241,-0.0427 0.01025,-0.008 0.0212,-0.0123 0.03342,-0.0123 0.01222,0 0.02355,0.006 0.03374,0.0153 0.01025,0.008 0.02349,0.0216 0.03979,0.0397 l 1.277053,1.47535 c 0.03259,0.0388 0.06596,0.0673 0.100589,0.0856 0.03462,0.0164 0.0785,0.0246 0.131466,0.0246 h 0.29348 c 0.185354,0 0.277884,-0.0725 0.277884,-0.21708 v -1.70773 c 0,-0.0468 -0.0122,-0.0837 -0.03661,-0.11011 -0.02444,-0.0285 -0.06011,-0.0427 -0.10695,-0.0427 h -0.162027 c -0.04888,0 -0.08538,0.0137 -0.109818,0.0397 -0.0224,0.0264 -0.03374,0.063 -0.03374,0.10988 v 1.43908 c 0,0.0367 -0.01413,0.0551 -0.04265,0.0551 -0.0122,0 -0.02354,-0.004 -0.03374,-0.0123 -0.01014,-0.01 -0.02349,-0.0247 -0.03979,-0.043 l -1.279917,-1.47855 c -0.03259,-0.0387 -0.06628,-0.0666 -0.100895,-0.0828 -0.03464,-0.0182 -0.0785,-0.0273 -0.131463,-0.0273 z m 8.823504,0 c -0.124242,0 -0.219899,0.0265 -0.287115,0.0795 -0.06722,0.0509 -0.100916,0.13437 -0.100916,0.25052 v 1.60713 c 0,0.0937 0.04813,0.14037 0.143876,0.14037 h 0.164884 c 0.09573,0 0.143555,-0.0479 0.143555,-0.14354 v -0.57138 c 0,-0.0651 0.03763,-0.0978 0.113003,-0.0978 h 1.301563 c 0.09776,0 0.146739,-0.0438 0.146739,-0.13148 v -0.0764 c 0,-0.0877 -0.05012,-0.13106 -0.149922,-0.13106 h -1.298375 c -0.07536,0 -0.113005,-0.0337 -0.113005,-0.10098 v -0.36668 c 0,-0.0672 0.0396,-0.10098 0.119046,-0.10098 h 1.368727 c 0.04684,0 0.0825,-0.0106 0.10695,-0.0335 0.02648,-0.0225 0.03979,-0.055 0.03979,-0.0978 v -0.0949 c 0,-0.0876 -0.04979,-0.13149 -0.149605,-0.13149 z m 2.678562,0 c -0.04887,0 -0.08538,0.0137 -0.109819,0.0397 -0.02239,0.0264 -0.03374,0.0634 -0.03374,0.11011 v 1.77489 c 0,0.0469 0.0122,0.0845 0.03661,0.11293 0.02444,0.0264 0.06126,0.0397 0.110136,0.0397 h 0.168066 c 0.04686,0 0.08136,-0.0137 0.103779,-0.0397 0.02444,-0.0264 0.03661,-0.063 0.03661,-0.10988 v -1.7752 c 0,-0.0468 -0.0122,-0.0833 -0.03661,-0.10988 -0.02444,-0.0285 -0.06011,-0.043 -0.106952,-0.043 z m 1.600136,0 c -0.185353,0 -0.278201,0.0724 -0.278201,0.21707 v 1.70772 c 0,0.0469 0.01248,0.0845 0.03693,0.11294 0.02444,0.0264 0.06093,0.0397 0.109819,0.0397 h 0.162018 c 0.04686,0 0.08136,-0.0137 0.103778,-0.0397 0.02444,-0.0264 0.03661,-0.063 0.03661,-0.10987 v -1.4362 c 0,-0.0205 0.0042,-0.0345 0.01247,-0.0427 0.01014,-0.008 0.0212,-0.0123 0.03342,-0.0123 0.0122,0 0.02355,0.006 0.03374,0.0153 0.01014,0.008 0.0235,0.0216 0.03979,0.0397 l 1.277052,1.47535 c 0.03259,0.0388 0.06628,0.0673 0.100906,0.0856 0.03464,0.0164 0.07818,0.0246 0.131138,0.0246 h 0.29348 c 0.185353,0 0.277883,-0.0725 0.277883,-0.21708 v -1.70773 c 0,-0.0468 -0.0122,-0.0837 -0.03661,-0.11011 -0.02444,-0.0285 -0.06011,-0.0427 -0.106951,-0.0427 h -0.162019 c -0.04887,0 -0.08538,0.0137 -0.109819,0.0397 -0.0224,0.0264 -0.03374,0.063 -0.03374,0.10988 v 1.43908 c 0,0.0367 -0.01413,0.0551 -0.04265,0.0551 -0.0122,0 -0.02354,-0.004 -0.03374,-0.0123 -0.01014,-0.01 -0.02348,-0.0247 -0.03979,-0.043 l -1.279918,-1.47855 c -0.03259,-0.0387 -0.06628,-0.0666 -0.100916,-0.0828 -0.03462,-0.0182 -0.0785,-0.0273 -0.131467,-0.0273 z m 3.524626,0 c -0.04887,0 -0.08538,0.0137 -0.109818,0.0397 -0.02239,0.0264 -0.03374,0.0634 -0.03374,0.11011 v 1.59789 c 0,0.11612 0.03369,0.20043 0.100906,0.25339 0.06722,0.051 0.164011,0.0764 0.290298,0.0764 h 1.426656 c 0.04686,0 0.08251,-0.01 0.106951,-0.0305 0.02648,-0.0225 0.03979,-0.0561 0.03979,-0.10098 v -0.0978 c 0,-0.0877 -0.04979,-0.13147 -0.149604,-0.13147 h -1.237587 c -0.08147,0 -0.122226,-0.0385 -0.122226,-0.11587 v -1.44829 c 0,-0.0469 -0.0122,-0.0833 -0.03661,-0.10988 -0.02444,-0.0285 -0.06011,-0.043 -0.106952,-0.043 z m 3.680598,0 c -0.04482,0 -0.08048,0.008 -0.10695,0.0246 -0.02444,0.0164 -0.04762,0.0449 -0.07003,0.0855 l -0.987073,1.75356 c -0.02038,0.0387 -0.03057,0.0724 -0.03057,0.10098 0,0.0754 0.04699,0.11293 0.140692,0.11293 h 0.155653 c 0.04685,0 0.08168,-0.01 0.104085,-0.0274 0.02241,-0.0205 0.04788,-0.0549 0.0764,-0.10373 l 0.122226,-0.21708 c 0.01629,-0.0264 0.03241,-0.0437 0.04869,-0.0519 0.01629,-0.01 0.04094,-0.0153 0.07353,-0.0153 h 1.273868 c 0.03259,0 0.05724,0.006 0.07353,0.0153 0.01629,0.008 0.03241,0.0265 0.04869,0.0551 l 0.11936,0.21676 c 0.02444,0.0469 0.04762,0.0806 0.07003,0.10098 0.02444,0.0183 0.06011,0.0273 0.106951,0.0273 h 0.165202 c 0.04073,0 0.07411,-0.01 0.100579,-0.0305 0.02648,-0.0205 0.03979,-0.0479 0.03979,-0.0824 0,-0.0345 -0.01014,-0.0691 -0.03056,-0.10373 l -0.968611,-1.75387 c -0.0224,-0.0407 -0.04674,-0.0681 -0.07321,-0.0824 -0.02444,-0.0164 -0.06011,-0.0245 -0.10695,-0.0245 z m 0.17125,0.34923 c 0.01629,0 0.03272,0.0141 0.04901,0.0427 l 0.44595,0.84638 c 0.01014,0.0205 0.01527,0.0377 0.01527,0.0519 0,0.0326 -0.02235,0.0491 -0.06716,0.0491 h -0.904314 c -0.04278,0 -0.06431,-0.0154 -0.06431,-0.0458 0,-0.0143 0.0063,-0.0326 0.01845,-0.0551 l 0.458046,-0.84957 c 0.0122,-0.0264 0.02864,-0.0395 0.04901,-0.0395 z m 2.507313,-0.34923 c -0.185352,0 -0.277883,0.0724 -0.277883,0.21707 v 1.70772 c 0,0.0469 0.0122,0.0845 0.03661,0.11294 0.02444,0.0264 0.06094,0.0397 0.109818,0.0397 h 0.16202 c 0.04684,0 0.08168,-0.0137 0.104085,-0.0397 0.02444,-0.0264 0.03661,-0.063 0.03661,-0.10987 v -1.4362 c 0,-0.0205 0.004,-0.0345 0.01207,-0.0427 0.01014,-0.008 0.02153,-0.0123 0.03374,-0.0123 0.0122,0 0.02324,0.006 0.03342,0.0153 0.01014,0.008 0.02348,0.0216 0.03979,0.0397 l 1.277051,1.47535 c 0.03259,0.0388 0.06628,0.0673 0.100905,0.0856 0.03464,0.0164 0.0785,0.0246 0.131467,0.0246 h 0.293166 c 0.185351,0 0.278201,-0.0725 0.278201,-0.21708 v -1.70773 c 0,-0.0468 -0.01248,-0.0837 -0.03693,-0.11011 -0.02444,-0.0285 -0.06011,-0.0427 -0.106951,-0.0427 h -0.161702 c -0.04887,0 -0.0857,0.0137 -0.110135,0.0397 -0.0224,0.0264 -0.03342,0.063 -0.03342,0.10988 v 1.43908 c 0,0.0367 -0.01446,0.0551 -0.04297,0.0551 -0.0122,0 -0.02325,-0.004 -0.03342,-0.0123 -0.01014,-0.01 -0.02348,-0.0247 -0.03979,-0.043 l -1.280233,-1.47855 c -0.03259,-0.0387 -0.06628,-0.0666 -0.100917,-0.0828 -0.03462,-0.0182 -0.07819,-0.0273 -0.131138,-0.0273 z m 3.769406,0 c -0.124241,0 -0.220218,0.0265 -0.287433,0.0795 -0.06722,0.0509 -0.100578,0.13437 -0.100578,0.25052 v 1.41775 c 0,0.1161 0.03338,0.20041 0.100578,0.25337 0.06722,0.0509 0.164012,0.0764 0.290297,0.0764 h 0.977844 c 0.191466,0 0.35532,-0.004 0.491787,-0.0124 0.138505,-0.01 0.255679,-0.0285 0.351412,-0.0551 0.09776,-0.0264 0.17616,-0.0621 0.235231,-0.10695 0.05908,-0.0469 0.103768,-0.10799 0.134319,-0.18336 0.03259,-0.0754 0.05409,-0.16591 0.06431,-0.27181 0.0122,-0.106 0.01848,-0.23214 0.01848,-0.3788 v -0.0612 c 0,-0.14871 -0.0062,-0.27606 -0.01848,-0.38199 -0.01014,-0.10787 -0.03173,-0.19964 -0.06431,-0.27501 -0.03259,-0.0754 -0.07843,-0.13532 -0.137508,-0.18015 -0.05907,-0.0469 -0.136306,-0.0825 -0.232046,-0.10695 -0.09574,-0.0264 -0.212909,-0.0437 -0.351412,-0.0519 -0.138506,-0.008 -0.302359,-0.0123 -0.491787,-0.0123 z m 0.186211,0.35629 h 0.757891 c 0.201647,0 0.360412,0.006 0.476509,0.0181 0.116094,0.0124 0.203534,0.0409 0.262605,0.0856 0.06111,0.0449 0.09907,0.11105 0.113309,0.19864 0.01631,0.0877 0.02421,0.20787 0.02421,0.36063 v 0.0365 c 0,0.14664 -0.008,0.26382 -0.02421,0.35142 -0.01429,0.0877 -0.05107,0.15463 -0.110136,0.20147 -0.05703,0.0449 -0.144469,0.0742 -0.262611,0.0884 -0.116094,0.0143 -0.276001,0.0216 -0.479688,0.0216 h -0.757891 c -0.07944,0 -0.119045,-0.0356 -0.119045,-0.10693 v -1.15508 c 0,-0.0365 0.0091,-0.0618 0.02738,-0.0761 0.02038,-0.0164 0.05093,-0.0246 0.09166,-0.0246 z" />
    <path
       style="-inkscape-font-specification:'Newcastle-BasicClean Ultra-Condensed';stroke-width:0.229612"
       d="m 28.899655,100.33104 a 9.6172819,9.6172819 0 0 0 -9.617215,9.61721 9.6172819,9.6172819 0 0 0 9.617215,9.61721 9.6172819,9.6172819 0 0 0 9.617213,-9.61721 9.6172819,9.6172819 0 0 0 -9.617213,-9.61721 z m -0.925173,1.39919 H 29.7163 c 0.238135,0 0.429621,0.19143 0.429621,0.42962 v 1.1772 c 0,0.23815 -0.191479,0.43008 -0.429621,0.43008 h -1.741818 c -0.238137,0 -0.430072,-0.19201 -0.430072,-0.43008 v -1.1772 c 0,-0.23814 0.191943,-0.42962 0.430072,-0.42962 z m 0,2.42422 v 4.5e-4 H 29.7163 c 0.238135,0 0.429621,0.19143 0.429621,0.42963 v 1.1772 c 0,0.23816 -0.191479,0.43008 -0.429621,0.43008 h -1.741818 c -0.238137,0 -0.430072,-0.19201 -0.430072,-0.43008 v -1.1772 c 0,-0.22325 0.168397,-0.40544 0.385674,-0.42738 0.01458,-0.002 0.02952,-0.002 0.0444,-0.002 z m -3.080916,4.5e-4 h 1.742265 c 0.238139,0 0.429624,0.19143 0.429624,0.42963 v 1.1772 c 0,0.23816 -0.191481,0.43008 -0.429624,0.43008 h -1.742265 c -0.238139,0 -0.429625,-0.19201 -0.429625,-0.43008 v -1.1772 c 0,-0.23814 0.191482,-0.42963 0.429625,-0.42963 z m 6.161382,0 h 1.741819 c 0.238135,0 0.430073,0.19143 0.430073,0.42963 v 1.1772 c 0,0.23816 -0.191944,0.43008 -0.430073,0.43008 h -1.741819 c -0.238136,0 -0.43007,-0.19201 -0.43007,-0.43008 v -1.1772 c 0,-0.23814 0.191924,-0.42963 0.43007,-0.42963 z m -6.161382,2.42438 h 1.742265 c 0.238139,0 0.429624,0.19143 0.429624,0.42963 v 1.17719 c 0,0.23815 -0.191481,0.43008 -0.429624,0.43008 h -1.742265 c -0.238139,0 -0.429625,-0.19199 -0.429625,-0.43008 v -1.17719 c 0,-0.23815 0.191482,-0.42963 0.429625,-0.42963 z m 0,2.42576 h 1.742265 c 0.238139,0 0.429624,0.19141 0.429624,0.4296 v 1.17722 c 0,0.23813 -0.191481,0.43008 -0.429624,0.43008 h -1.742265 c -0.238139,0 -0.429625,-0.19201 -0.429625,-0.43008 v -1.17722 c 0,-0.23812 0.191482,-0.4296 0.429625,-0.4296 z m 3.080916,0 H 29.7163 c 0.238135,0 0.429621,0.19141 0.429621,0.4296 v 1.17722 c 0,0.23813 -0.191479,0.43008 -0.429621,0.43008 h -1.741818 c -0.238137,0 -0.430072,-0.19201 -0.430072,-0.43008 v -1.17722 c 0,-0.23812 0.191943,-0.4296 0.430072,-0.4296 z m 3.080466,0 h 1.741819 c 0.238135,0 0.430073,0.19141 0.430073,0.4296 v 1.17722 c 0,0.23813 -0.191944,0.43008 -0.430073,0.43008 h -1.741819 c -0.238136,0 -0.43007,-0.19201 -0.43007,-0.43008 v -1.17722 c 0,-0.23812 0.191924,-0.4296 0.43007,-0.4296 z m 0,2.42435 h 1.741819 c 0.238135,0 0.430073,0.19143 0.430073,0.42963 v 1.17719 c 0,0.23815 -0.191944,0.43008 -0.430073,0.43008 h -1.741819 c -0.238136,0 -0.43007,-0.19199 -0.43007,-0.43008 v -1.17719 c 0,-0.23813 0.191924,-0.42963 0.43007,-0.42963 z m -6.161382,2.42439 h 1.742265 c 0.238139,0 0.429624,0.19141 0.429624,0.42962 v 1.1772 c 0,0.23815 -0.191481,0.43007 -0.429624,0.43007 h -1.742265 c -0.238139,0 -0.429625,-0.19201 -0.429625,-0.43007 v -1.1772 c 0,-0.23815 0.191482,-0.42962 0.429625,-0.42962 z m 3.080916,0 H 29.7163 c 0.238135,0 0.429621,0.19141 0.429621,0.42962 v 1.1772 c 0,0.23815 -0.191479,0.43007 -0.429621,0.43007 h -1.741818 c -0.238137,0 -0.430072,-0.19201 -0.430072,-0.43007 v -1.1772 c 0,-0.23815 0.191943,-0.42962 0.430072,-0.42962 z m 3.080466,0 h 1.741819 c 0.238135,0 0.430073,0.19141 0.430073,0.42962 v 1.1772 c 0,0.23815 -0.191944,0.43007 -0.430073,0.43007 h -1.741819 c -0.238136,0 -0.43007,-0.19201 -0.43007,-0.43007 v -1.1772 c 0,-0.23815 0.191924,-0.42962 0.43007,-0.42962 z m -3.080466,2.44725 H 29.7163 c 0.238135,0 0.429621,0.19141 0.429621,0.42962 v 1.1772 c 0,0.23813 -0.191479,0.43007 -0.429621,0.43007 h -1.741818 c -0.238137,0 -0.430072,-0.19201 -0.430072,-0.43007 v -1.1772 c 0,-0.23815 0.191943,-0.42962 0.430072,-0.42962 z"
       id="text2" />
  </g>
</svg>
