<?xml version="1.0" encoding="UTF-8" standalone="no"?>
<!-- Created with Inkscape (http://www.inkscape.org/) -->

<svg
   width="105mm"
   height="10mm"
   viewBox="0 0 105 10"
   version="1.1"
   id="svg5"
   inkscape:version="1.1.2 (0a00cf5339, 2022-02-04)"
   sodipodi:docname="aukotus.svg"
   xmlns:inkscape="http://www.inkscape.org/namespaces/inkscape"
   xmlns:sodipodi="http://sodipodi.sourceforge.net/DTD/sodipodi-0.dtd"
   xmlns="http://www.w3.org/2000/svg"
   xmlns:svg="http://www.w3.org/2000/svg">
  <sodipodi:namedview
     id="namedview7"
     pagecolor="#ffffff"
     bordercolor="#666666"
     borderopacity="1.0"
     inkscape:pageshadow="2"
     inkscape:pageopacity="0.0"
     inkscape:pagecheckerboard="0"
     inkscape:document-units="mm"
     showgrid="false"
     inkscape:zoom="5.4127404"
     inkscape:cx="355.6424"
     inkscape:cy="35.287116"
     inkscape:window-width="1920"
     inkscape:window-height="1013"
     inkscape:window-x="0"
     inkscape:window-y="0"
     inkscape:window-maximized="1"
     inkscape:current-layer="layer1"
     fit-margin-top="0"
     fit-margin-left="0"
     fit-margin-right="0"
     fit-margin-bottom="0"
     showguides="true"
     inkscape:guide-bbox="true">
    <sodipodi:guide
       position="42.359218,4.5617421"
       orientation="1,0"
       id="guide14791" />
  </sodipodi:namedview>
  <defs
     id="defs2" />
  <g
     inkscape:label="Layer 1"
     inkscape:groupmode="layer"
     id="layer1"
     transform="translate(-96.513487,-27.58092)">
    <path
       id="rect1013"
       style="fill:#ff0000;stroke-width:9.6;stroke-linecap:round;stroke-linejoin:round"
       d="m 730.0979,109.99805 c -7.83918,8.60966 -16.96355,7.37695 -22.34375,7.37695 H 451.83049 c -56.48724,0 -87.0551,-17.54978 -87.0551,-23.14832 v 57.81069 c 0,-7.43109 31.75548,-23.32448 87.0551,-23.32448 h 255.92366 c 8.15873,0 13.94092,-0.92006 21.53817,7.34238 9.75776,10.61213 33.14347,8.04711 33.14347,-12.34824 0,-20.53714 -22.45313,-24.323612 -32.33789,-13.70898 z m 13.95117,5.48633 c 4.17591,-8.3e-4 7.56137,3.38463 7.56055,7.56054 -2.5e-4,4.17516 -3.38539,7.55943 -7.56055,7.5586 -4.17439,-2.6e-4 -7.55834,-3.38421 -7.55859,-7.5586 -8.2e-4,-4.17515 3.38344,-7.56028 7.55859,-7.56054 z"
       transform="scale(0.26458333)"
       sodipodi:nodetypes="cssccsssccccccc" />
  </g>
</svg>
